<svg xmlns="http://www.w3.org/2000/svg" xmlns:xlink="http://www.w3.org/1999/xlink" contentStyleType="text/css" data-diagram-type="ACTIVITY" height="1969px" preserveAspectRatio="none" style="width:1067px;height:1969px;background:#FFFFFF;" version="1.1" viewBox="0 0 1067 1969" width="1067px" zoomAndPan="magnify"><?plantuml 1.2026.6?><defs/><g><g class="title" data-source-line="1"><text fill="#000000" font-family="sans-serif" font-size="14" font-weight="700" lengthAdjust="spacing" textLength="241.958" x="411.584" y="33.5352">POS Login And License Activation</text></g><rect fill="none" height="21.1992" style="stroke:none;stroke-width:1;" width="1020.126" x="20" y="54.7852"/><ellipse cx="105.5654" cy="90.9844" fill="#222222" rx="10" ry="10" style="stroke:#222222;stroke-width:1;"/><rect fill="#F1F1F1" height="34.1328" rx="12.5" ry="12.5" style="stroke:#181818;stroke-width:0.5;" width="127.8008" x="41.665" y="120.9844"/><text fill="#000000" font-family="sans-serif" font-size="12" lengthAdjust="spacing" textLength="107.8008" x="51.665" y="142.5859">Open POS desktop</text><rect fill="#F1F1F1" height="34.1328" rx="12.5" ry="12.5" style="stroke:#181818;stroke-width:0.5;" width="159.1309" x="26" y="175.1172"/><text fill="#000000" font-family="sans-serif" font-size="12" lengthAdjust="spacing" textLength="139.1309" x="36" y="196.7188">Enter username and PIN</text><rect fill="#F1F1F1" height="34.1328" rx="12.5" ry="12.5" style="stroke:#181818;stroke-width:0.5;" width="82.9766" x="149.667" y="543.9141"/><text fill="#000000" font-family="sans-serif" font-size="12" lengthAdjust="spacing" textLength="62.9766" x="159.667" y="565.5156">Retry login</text><ellipse cx="191.1553" cy="609.0469" fill="none" rx="11" ry="11" style="stroke:#222222;stroke-width:1;"/><ellipse cx="191.1553" cy="609.0469" fill="#222222" rx="6" ry="6" style="stroke:#222222;stroke-width:1;"/><rect fill="#F1F1F1" height="34.1328" rx="12.5" ry="12.5" style="stroke:#181818;stroke-width:0.5;" width="131.3223" x="142.4658" y="738.1797"/><text fill="#000000" font-family="sans-serif" font-size="12" lengthAdjust="spacing" textLength="111.3223" x="152.4658" y="759.7813">Select organization</text><rect fill="#F1F1F1" height="34.1328" rx="12.5" ry="12.5" style="stroke:#181818;stroke-width:0.5;" width="97.8652" x="138.9368" y="1032.7109"/><text fill="#000000" font-family="sans-serif" font-size="12" lengthAdjust="spacing" textLength="77.8652" x="148.9368" y="1054.3125">Select branch</text><rect fill="#F1F1F1" height="34.1328" rx="12.5" ry="12.5" style="stroke:#181818;stroke-width:0.5;" width="150.582" x="30.2744" y="1872.7822"/><text fill="#000000" font-family="sans-serif" font-size="12" lengthAdjust="spacing" textLength="130.582" x="40.2744" y="1894.3838">Enter POS main screen</text><ellipse cx="105.5654" cy="1937.915" fill="none" rx="11" ry="11" style="stroke:#222222;stroke-width:1;"/><ellipse cx="105.5654" cy="1937.915" fill="#222222" rx="6" ry="6" style="stroke:#222222;stroke-width:1;"/><line style="stroke:#000000;stroke-width:1.5;" x1="20" x2="20" y1="54.7852" y2="1948.915"/><rect fill="#F1F1F1" height="34.1328" rx="12.5" ry="12.5" style="stroke:#181818;stroke-width:0.5;" width="200.375" x="378.7236" y="229.25"/><text fill="#000000" font-family="sans-serif" font-size="12" lengthAdjust="spacing" textLength="180.375" x="388.7236" y="250.8516">Read saved orgId and branchId</text><rect fill="#F1F1F1" height="34.1328" rx="12.5" ry="12.5" style="stroke:#181818;stroke-width:0.5;" width="128.8672" x="414.4775" y="283.3828"/><text fill="#000000" font-family="sans-serif" font-size="12" lengthAdjust="spacing" textLength="108.8672" x="424.4775" y="304.9844">Send login request</text><rect fill="#F1F1F1" height="34.1328" rx="12.5" ry="12.5" style="stroke:#181818;stroke-width:0.5;" width="116.1465" x="506.4277" y="489.7813"/><text fill="#000000" font-family="sans-serif" font-size="12" lengthAdjust="spacing" textLength="96.1465" x="516.4277" y="511.3828">Show login error</text><polygon fill="#F1F1F1" points="427.9421,640.0469,529.8801,640.0469,541.8801,652.0469,529.8801,664.0469,427.9421,664.0469,415.9421,652.0469,427.9421,640.0469" style="stroke:#181818;stroke-width:0.5;stroke-linejoin:miter;stroke-miterlimit:10;"/><text fill="#000000" font-family="sans-serif" font-size="11" lengthAdjust="spacing" textLength="101.938" x="427.9421" y="656.2041">Saved orgId exists?</text><text fill="#000000" font-family="sans-serif" font-size="11" lengthAdjust="spacing" textLength="18.5894" x="397.3528" y="649.7266">Yes</text><text fill="#000000" font-family="sans-serif" font-size="11" lengthAdjust="spacing" textLength="14.8833" x="541.8801" y="649.7266">No</text><rect fill="#F1F1F1" height="34.1328" rx="12.5" ry="12.5" style="stroke:#181818;stroke-width:0.5;" width="185.123" x="283.7881" y="684.0469"/><text fill="#000000" font-family="sans-serif" font-size="12" lengthAdjust="spacing" textLength="165.123" x="293.7881" y="705.6484">Request scoped POS session</text><rect fill="#F1F1F1" height="34.1328" rx="12.5" ry="12.5" style="stroke:#181818;stroke-width:0.5;" width="146.6738" x="508.1357" y="684.0469"/><text fill="#000000" font-family="sans-serif" font-size="12" lengthAdjust="spacing" textLength="126.6738" x="518.1357" y="705.6484">Load organization list</text><rect fill="#F1F1F1" height="34.1328" rx="12.5" ry="12.5" style="stroke:#181818;stroke-width:0.5;" width="185.123" x="488.9111" y="792.3125"/><text fill="#000000" font-family="sans-serif" font-size="12" lengthAdjust="spacing" textLength="165.123" x="498.9111" y="813.9141">Request scoped POS session</text><polygon fill="#F1F1F1" points="478.9111,836.4453,490.9111,848.4453,478.9111,860.4453,466.9111,848.4453,478.9111,836.4453" style="stroke:#181818;stroke-width:0.5;stroke-linejoin:miter;stroke-miterlimit:10;"/><polygon fill="#F1F1F1" points="418.6072,934.5781,539.2151,934.5781,551.2151,946.5781,539.2151,958.5781,418.6072,958.5781,406.6072,946.5781,418.6072,934.5781" style="stroke:#181818;stroke-width:0.5;stroke-linejoin:miter;stroke-miterlimit:10;"/><text fill="#000000" font-family="sans-serif" font-size="11" lengthAdjust="spacing" textLength="120.6079" x="418.6072" y="950.7354">Saved branchId exists?</text><text fill="#000000" font-family="sans-serif" font-size="11" lengthAdjust="spacing" textLength="18.5894" x="388.0178" y="944.2578">Yes</text><text fill="#000000" font-family="sans-serif" font-size="11" lengthAdjust="spacing" textLength="14.8833" x="551.2151" y="944.2578">No</text><rect fill="#F1F1F1" height="34.1328" rx="12.5" ry="12.5" style="stroke:#181818;stroke-width:0.5;" width="122.0352" x="335.5896" y="978.5781"/><text fill="#000000" font-family="sans-serif" font-size="12" lengthAdjust="spacing" textLength="102.0352" x="345.5896" y="1000.1797">Use saved branch</text><rect fill="#F1F1F1" height="34.1328" rx="12.5" ry="12.5" style="stroke:#181818;stroke-width:0.5;" width="113.2168" x="504.6067" y="978.5781"/><text fill="#000000" font-family="sans-serif" font-size="12" lengthAdjust="spacing" textLength="93.2168" x="514.6067" y="1000.1797">Load branch list</text><polygon fill="#F1F1F1" points="478.9111,1076.8438,490.9111,1088.8438,478.9111,1100.8438,466.9111,1088.8438,478.9111,1076.8438" style="stroke:#181818;stroke-width:0.5;stroke-linejoin:miter;stroke-miterlimit:10;"/><rect fill="#F1F1F1" height="34.1328" rx="12.5" ry="12.5" style="stroke:#181818;stroke-width:0.5;" width="256.4199" x="350.7012" y="1120.8438"/><text fill="#000000" font-family="sans-serif" font-size="12" lengthAdjust="spacing" textLength="236.4199" x="360.7012" y="1142.4453">Save local user, org, and branch settings</text><rect fill="#F1F1F1" height="34.1328" rx="12.5" ry="12.5" style="stroke:#181818;stroke-width:0.5;" width="248.7617" x="354.5303" y="1174.9766"/><text fill="#000000" font-family="sans-serif" font-size="12" lengthAdjust="spacing" textLength="228.7617" x="364.5303" y="1196.5781">Generate or read device id and key pair</text><rect fill="#F1F1F1" height="34.1328" rx="12.5" ry="12.5" style="stroke:#181818;stroke-width:0.5;" width="196.7363" x="380.543" y="1229.1094"/><text fill="#000000" font-family="sans-serif" font-size="12" lengthAdjust="spacing" textLength="176.7363" x="390.543" y="1250.7109">Request POS license activation</text><rect fill="#F1F1F1" height="34.1328" rx="12.5" ry="12.5" style="stroke:#181818;stroke-width:0.5;" width="126.9277" x="415.4473" y="1439.9854"/><text fill="#000000" font-family="sans-serif" font-size="12" lengthAdjust="spacing" textLength="106.9277" x="425.4473" y="1461.5869">Show license error</text><ellipse cx="478.9111" cy="1505.1182" fill="none" rx="11" ry="11" style="stroke:#222222;stroke-width:1;"/><ellipse cx="478.9111" cy="1505.1182" fill="#222222" rx="6" ry="6" style="stroke:#222222;stroke-width:1;"/><rect fill="#F1F1F1" height="34.1328" rx="12.5" ry="12.5" style="stroke:#181818;stroke-width:0.5;" width="153.5527" x="499.4668" y="1656.251"/><text fill="#000000" font-family="sans-serif" font-size="12" lengthAdjust="spacing" textLength="133.5527" x="509.4668" y="1677.8525">Show device limit error</text><ellipse cx="576.2432" cy="1721.3838" fill="none" rx="11" ry="11" style="stroke:#222222;stroke-width:1;"/><ellipse cx="576.2432" cy="1721.3838" fill="#222222" rx="6" ry="6" style="stroke:#222222;stroke-width:1;"/><rect fill="#F1F1F1" height="34.1328" rx="12.5" ry="12.5" style="stroke:#181818;stroke-width:0.5;" width="191.3809" x="383.2207" y="1764.5166"/><text fill="#000000" font-family="sans-serif" font-size="12" lengthAdjust="spacing" textLength="171.3809" x="393.2207" y="1786.1182">Persist activation state locally</text><rect fill="#F1F1F1" height="34.1328" rx="12.5" ry="12.5" style="stroke:#181818;stroke-width:0.5;" width="199.0801" x="379.3711" y="1818.6494"/><text fill="#000000" font-family="sans-serif" font-size="12" lengthAdjust="spacing" textLength="179.0801" x="389.3711" y="1840.251">Store auth session for POS app</text><line style="stroke:#000000;stroke-width:1.5;" x1="277.7881" x2="277.7881" y1="54.7852" y2="1948.915"/><rect fill="#F1F1F1" height="34.1328" rx="12.5" ry="12.5" style="stroke:#181818;stroke-width:0.5;" width="148.8711" x="804.8184" y="337.5156"/><text fill="#000000" font-family="sans-serif" font-size="12" lengthAdjust="spacing" textLength="128.8711" x="814.8184" y="359.1172">Authenticate POS user</text><polygon fill="#F1F1F1" points="832.5308,391.6484,925.9771,391.6484,937.9771,403.6484,925.9771,415.6484,832.5308,415.6484,820.5308,403.6484,832.5308,391.6484" style="stroke:#181818;stroke-width:0.5;stroke-linejoin:miter;stroke-miterlimit:10;"/><text fill="#000000" font-family="sans-serif" font-size="11" lengthAdjust="spacing" textLength="93.4463" x="832.5308" y="407.8057">Credentials valid?</text><text fill="#000000" font-family="sans-serif" font-size="11" lengthAdjust="spacing" textLength="18.5894" x="801.9414" y="401.3281">Yes</text><text fill="#000000" font-family="sans-serif" font-size="11" lengthAdjust="spacing" textLength="14.8833" x="937.9771" y="401.3281">No</text><rect fill="#F1F1F1" height="34.1328" rx="12.5" ry="12.5" style="stroke:#181818;stroke-width:0.5;" width="178.1738" x="704.5771" y="435.6484"/><text fill="#000000" font-family="sans-serif" font-size="12" lengthAdjust="spacing" textLength="158.1738" x="714.5771" y="457.25">Return bearer access token</text><rect fill="#F1F1F1" height="34.1328" rx="12.5" ry="12.5" style="stroke:#181818;stroke-width:0.5;" width="124.1855" x="902.751" y="435.6484"/><text fill="#000000" font-family="sans-serif" font-size="12" lengthAdjust="spacing" textLength="104.1855" x="912.751" y="457.25">Return login error</text><rect fill="#F1F1F1" height="34.1328" rx="12.5" ry="12.5" style="stroke:#181818;stroke-width:0.5;" width="222.6992" x="767.9043" y="880.4453"/><text fill="#000000" font-family="sans-serif" font-size="12" lengthAdjust="spacing" textLength="202.6992" x="777.9043" y="902.0469">Issue organization-scoped session</text><rect fill="#F1F1F1" height="34.1328" rx="12.5" ry="12.5" style="stroke:#181818;stroke-width:0.5;" width="203.5273" x="777.4902" y="1283.2422"/><text fill="#000000" font-family="sans-serif" font-size="12" lengthAdjust="spacing" textLength="183.5273" x="787.4902" y="1304.8438">Find active organization license</text><rect fill="#F1F1F1" height="34.1328" rx="12.5" ry="12.5" style="stroke:#181818;stroke-width:0.5;" width="115.3848" x="821.5615" y="1385.8525"/><text fill="#000000" font-family="sans-serif" font-size="12" lengthAdjust="spacing" textLength="95.3848" x="831.5615" y="1407.4541">Reject activation</text><polygon fill="#F1F1F1" points="840.0959,1337.375,918.4119,1337.375,930.4119,1349.375,918.4119,1361.375,840.0959,1361.375,828.0959,1349.375,840.0959,1337.375" style="stroke:#181818;stroke-width:0.5;stroke-linejoin:miter;stroke-miterlimit:10;"/><text fill="#000000" font-family="sans-serif" font-size="11" lengthAdjust="spacing" textLength="14.8833" x="883.2539" y="1372.0098">No</text><text fill="#000000" font-family="sans-serif" font-size="11" lengthAdjust="spacing" textLength="78.3159" x="840.0959" y="1353.5322">License active?</text><text fill="#000000" font-family="sans-serif" font-size="11" lengthAdjust="spacing" textLength="18.5894" x="930.4119" y="1347.0547">Yes</text><polygon fill="#F1F1F1" points="820.7358,1558.1182,937.772,1558.1182,949.772,1570.1182,937.772,1582.1182,820.7358,1582.1182,808.7358,1570.1182,820.7358,1558.1182" style="stroke:#181818;stroke-width:0.5;stroke-linejoin:miter;stroke-miterlimit:10;"/><text fill="#000000" font-family="sans-serif" font-size="11" lengthAdjust="spacing" textLength="117.0361" x="820.7358" y="1574.2754">Device limit available?</text><text fill="#000000" font-family="sans-serif" font-size="11" lengthAdjust="spacing" textLength="18.5894" x="790.1465" y="1567.7979">Yes</text><text fill="#000000" font-family="sans-serif" font-size="11" lengthAdjust="spacing" textLength="14.8833" x="949.772" y="1567.7979">No</text><rect fill="#F1F1F1" height="34.1328" rx="12.5" ry="12.5" style="stroke:#181818;stroke-width:0.5;" width="195.7754" x="684.0342" y="1602.1182"/><text fill="#000000" font-family="sans-serif" font-size="12" lengthAdjust="spacing" textLength="175.7754" x="694.0342" y="1623.7197">Create or reuse POS activation</text><rect fill="#F1F1F1" height="34.1328" rx="12.5" ry="12.5" style="stroke:#181818;stroke-width:0.5;" width="191.1758" x="686.334" y="1656.251"/><text fill="#000000" font-family="sans-serif" font-size="12" lengthAdjust="spacing" textLength="171.1758" x="696.334" y="1677.8525">Create POS activation session</text><rect fill="#F1F1F1" height="34.1328" rx="12.5" ry="12.5" style="stroke:#181818;stroke-width:0.5;" width="158.75" x="702.5469" y="1710.3838"/><text fill="#000000" font-family="sans-serif" font-size="12" lengthAdjust="spacing" textLength="138.75" x="712.5469" y="1731.9854">Return activation expiry</text><rect fill="#F1F1F1" height="34.1328" rx="12.5" ry="12.5" style="stroke:#181818;stroke-width:0.5;" width="115.3848" x="918.8936" y="1602.1182"/><text fill="#000000" font-family="sans-serif" font-size="12" lengthAdjust="spacing" textLength="95.3848" x="928.8936" y="1623.7197">Reject activation</text><line style="stroke:#000000;stroke-width:1.5;" x1="678.0342" x2="678.0342" y1="54.7852" y2="1948.915"/><line style="stroke:#000000;stroke-width:1.5;" x1="1038.2783" x2="1038.2783" y1="54.7852" y2="1948.915"/><line style="stroke:#181818;stroke-width:1;" x1="105.5654" x2="105.5654" y1="100.9844" y2="120.9844"/><polygon fill="#181818" points="101.5654,110.9844,105.5654,120.9844,109.5654,110.9844,105.5654,114.9844" style="stroke:#181818;stroke-width:1;stroke-linejoin:miter;stroke-miterlimit:10;"/><line style="stroke:#181818;stroke-width:1;" x1="105.5654" x2="105.5654" y1="155.1172" y2="175.1172"/><polygon fill="#181818" points="101.5654,165.1172,105.5654,175.1172,109.5654,165.1172,105.5654,169.1172" style="stroke:#181818;stroke-width:1;stroke-linejoin:miter;stroke-miterlimit:10;"/><line style="stroke:#181818;stroke-width:1;" x1="191.1553" x2="191.1553" y1="578.0469" y2="598.0469"/><polygon fill="#181818" points="187.1553,588.0469,191.1553,598.0469,195.1553,588.0469,191.1553,592.0469" style="stroke:#181818;stroke-width:1;stroke-linejoin:miter;stroke-miterlimit:10;"/><line style="stroke:#181818;stroke-width:1;" x1="105.5654" x2="105.5654" y1="1906.915" y2="1926.915"/><polygon fill="#181818" points="101.5654,1916.915,105.5654,1926.915,109.5654,1916.915,105.5654,1920.915" style="stroke:#181818;stroke-width:1;stroke-linejoin:miter;stroke-miterlimit:10;"/><line style="stroke:#181818;stroke-width:1;" x1="478.9111" x2="478.9111" y1="263.3828" y2="283.3828"/><polygon fill="#181818" points="474.9111,273.3828,478.9111,283.3828,482.9111,273.3828,478.9111,277.3828" style="stroke:#181818;stroke-width:1;stroke-linejoin:miter;stroke-miterlimit:10;"/><line style="stroke:#181818;stroke-width:1;" x1="415.9421" x2="376.3496" y1="652.0469" y2="652.0469"/><line style="stroke:#181818;stroke-width:1;" x1="376.3496" x2="376.3496" y1="652.0469" y2="684.0469"/><polygon fill="#181818" points="372.3496,674.0469,376.3496,684.0469,380.3496,674.0469,376.3496,678.0469" style="stroke:#181818;stroke-width:1;stroke-linejoin:miter;stroke-miterlimit:10;"/><line style="stroke:#181818;stroke-width:1;" x1="541.8801" x2="581.4727" y1="652.0469" y2="652.0469"/><line style="stroke:#181818;stroke-width:1;" x1="581.4727" x2="581.4727" y1="652.0469" y2="684.0469"/><polygon fill="#181818" points="577.4727,674.0469,581.4727,684.0469,585.4727,674.0469,581.4727,678.0469" style="stroke:#181818;stroke-width:1;stroke-linejoin:miter;stroke-miterlimit:10;"/><line style="stroke:#181818;stroke-width:1;" x1="376.3496" x2="376.3496" y1="718.1797" y2="848.4453"/><line style="stroke:#181818;stroke-width:1;" x1="376.3496" x2="466.9111" y1="848.4453" y2="848.4453"/><polygon fill="#181818" points="456.9111,844.4453,466.9111,848.4453,456.9111,852.4453,460.9111,848.4453" style="stroke:#181818;stroke-width:1;stroke-linejoin:miter;stroke-miterlimit:10;"/><line style="stroke:#181818;stroke-width:1;" x1="581.4727" x2="581.4727" y1="826.4453" y2="848.4453"/><line style="stroke:#181818;stroke-width:1;" x1="581.4727" x2="490.9111" y1="848.4453" y2="848.4453"/><polygon fill="#181818" points="500.9111,844.4453,490.9111,848.4453,500.9111,852.4453,496.9111,848.4453" style="stroke:#181818;stroke-width:1;stroke-linejoin:miter;stroke-miterlimit:10;"/><line style="stroke:#181818;stroke-width:1;" x1="406.6072" x2="396.6072" y1="946.5781" y2="946.5781"/><line style="stroke:#181818;stroke-width:1;" x1="396.6072" x2="396.6072" y1="946.5781" y2="978.5781"/><polygon fill="#181818" points="392.6072,968.5781,396.6072,978.5781,400.6072,968.5781,396.6072,972.5781" style="stroke:#181818;stroke-width:1;stroke-linejoin:miter;stroke-miterlimit:10;"/><line style="stroke:#181818;stroke-width:1;" x1="551.2151" x2="561.2151" y1="946.5781" y2="946.5781"/><line style="stroke:#181818;stroke-width:1;" x1="561.2151" x2="561.2151" y1="946.5781" y2="978.5781"/><polygon fill="#181818" points="557.2151,968.5781,561.2151,978.5781,565.2151,968.5781,561.2151,972.5781" style="stroke:#181818;stroke-width:1;stroke-linejoin:miter;stroke-miterlimit:10;"/><line style="stroke:#181818;stroke-width:1;" x1="396.6072" x2="396.6072" y1="1012.7109" y2="1088.8438"/><line style="stroke:#181818;stroke-width:1;" x1="396.6072" x2="466.9111" y1="1088.8438" y2="1088.8438"/><polygon fill="#181818" points="456.9111,1084.8438,466.9111,1088.8438,456.9111,1092.8438,460.9111,1088.8438" style="stroke:#181818;stroke-width:1;stroke-linejoin:miter;stroke-miterlimit:10;"/><line style="stroke:#181818;stroke-width:1;" x1="478.9111" x2="478.9111" y1="1100.8438" y2="1120.8438"/><polygon fill="#181818" points="474.9111,1110.8438,478.9111,1120.8438,482.9111,1110.8438,478.9111,1114.8438" style="stroke:#181818;stroke-width:1;stroke-linejoin:miter;stroke-miterlimit:10;"/><line style="stroke:#181818;stroke-width:1;" x1="478.9111" x2="478.9111" y1="1154.9766" y2="1174.9766"/><polygon fill="#181818" points="474.9111,1164.9766,478.9111,1174.9766,482.9111,1164.9766,478.9111,1168.9766" style="stroke:#181818;stroke-width:1;stroke-linejoin:miter;stroke-miterlimit:10;"/><line style="stroke:#181818;stroke-width:1;" x1="478.9111" x2="478.9111" y1="1209.1094" y2="1229.1094"/><polygon fill="#181818" points="474.9111,1219.1094,478.9111,1229.1094,482.9111,1219.1094,478.9111,1223.1094" style="stroke:#181818;stroke-width:1;stroke-linejoin:miter;stroke-miterlimit:10;"/><line style="stroke:#181818;stroke-width:1;" x1="478.9111" x2="478.9111" y1="1474.1182" y2="1494.1182"/><polygon fill="#181818" points="474.9111,1484.1182,478.9111,1494.1182,482.9111,1484.1182,478.9111,1488.1182" style="stroke:#181818;stroke-width:1;stroke-linejoin:miter;stroke-miterlimit:10;"/><line style="stroke:#181818;stroke-width:1;" x1="576.2432" x2="576.2432" y1="1690.3838" y2="1710.3838"/><polygon fill="#181818" points="572.2432,1700.3838,576.2432,1710.3838,580.2432,1700.3838,576.2432,1704.3838" style="stroke:#181818;stroke-width:1;stroke-linejoin:miter;stroke-miterlimit:10;"/><line style="stroke:#181818;stroke-width:1;" x1="478.9111" x2="478.9111" y1="1798.6494" y2="1818.6494"/><polygon fill="#181818" points="474.9111,1808.6494,478.9111,1818.6494,482.9111,1808.6494,478.9111,1812.6494" style="stroke:#181818;stroke-width:1;stroke-linejoin:miter;stroke-miterlimit:10;"/><line style="stroke:#181818;stroke-width:1;" x1="820.5308" x2="793.6641" y1="403.6484" y2="403.6484"/><line style="stroke:#181818;stroke-width:1;" x1="793.6641" x2="793.6641" y1="403.6484" y2="435.6484"/><polygon fill="#181818" points="789.6641,425.6484,793.6641,435.6484,797.6641,425.6484,793.6641,429.6484" style="stroke:#181818;stroke-width:1;stroke-linejoin:miter;stroke-miterlimit:10;"/><line style="stroke:#181818;stroke-width:1;" x1="937.9771" x2="964.8438" y1="403.6484" y2="403.6484"/><line style="stroke:#181818;stroke-width:1;" x1="964.8438" x2="964.8438" y1="403.6484" y2="435.6484"/><polygon fill="#181818" points="960.8438,425.6484,964.8438,435.6484,968.8438,425.6484,964.8438,429.6484" style="stroke:#181818;stroke-width:1;stroke-linejoin:miter;stroke-miterlimit:10;"/><line style="stroke:#181818;stroke-width:1;" x1="793.6641" x2="793.6641" y1="469.7813" y2="625.0469"/><line style="stroke:#181818;stroke-width:1;" x1="793.6641" x2="478.9111" y1="625.0469" y2="625.0469"/><line style="stroke:#181818;stroke-width:1;" x1="478.9111" x2="478.9111" y1="625.0469" y2="640.0469"/><polygon fill="#181818" points="474.9111,630.0469,478.9111,640.0469,482.9111,630.0469,478.9111,634.0469" style="stroke:#181818;stroke-width:1;stroke-linejoin:miter;stroke-miterlimit:10;"/><line style="stroke:#181818;stroke-width:1;" x1="879.2539" x2="879.2539" y1="371.6484" y2="391.6484"/><polygon fill="#181818" points="875.2539,381.6484,879.2539,391.6484,883.2539,381.6484,879.2539,385.6484" style="stroke:#181818;stroke-width:1;stroke-linejoin:miter;stroke-miterlimit:10;"/><line style="stroke:#181818;stroke-width:1;" x1="879.2539" x2="879.2539" y1="1361.375" y2="1385.8525"/><polygon fill="#181818" points="875.2539,1375.8525,879.2539,1385.8525,883.2539,1375.8525,879.2539,1379.8525" style="stroke:#181818;stroke-width:1;stroke-linejoin:miter;stroke-miterlimit:10;"/><line style="stroke:#181818;stroke-width:1;" x1="930.4119" x2="952.7178" y1="1349.375" y2="1349.375"/><polygon fill="#181818" points="948.7178,1437.9854,952.7178,1447.9854,956.7178,1437.9854,952.7178,1441.9854" style="stroke:#181818;stroke-width:1;stroke-linejoin:miter;stroke-miterlimit:10;"/><line style="stroke:#181818;stroke-width:1;" x1="952.7178" x2="952.7178" y1="1349.375" y2="1538.1182"/><line style="stroke:#181818;stroke-width:1;" x1="952.7178" x2="879.2539" y1="1538.1182" y2="1538.1182"/><line style="stroke:#181818;stroke-width:1;" x1="879.2539" x2="879.2539" y1="1538.1182" y2="1558.1182"/><polygon fill="#181818" points="875.2539,1548.1182,879.2539,1558.1182,883.2539,1548.1182,879.2539,1552.1182" style="stroke:#181818;stroke-width:1;stroke-linejoin:miter;stroke-miterlimit:10;"/><line style="stroke:#181818;stroke-width:1;" x1="879.2539" x2="879.2539" y1="1317.375" y2="1337.375"/><polygon fill="#181818" points="875.2539,1327.375,879.2539,1337.375,883.2539,1327.375,879.2539,1331.375" style="stroke:#181818;stroke-width:1;stroke-linejoin:miter;stroke-miterlimit:10;"/><line style="stroke:#181818;stroke-width:1;" x1="781.9219" x2="781.9219" y1="1636.251" y2="1656.251"/><polygon fill="#181818" points="777.9219,1646.251,781.9219,1656.251,785.9219,1646.251,781.9219,1650.251" style="stroke:#181818;stroke-width:1;stroke-linejoin:miter;stroke-miterlimit:10;"/><line style="stroke:#181818;stroke-width:1;" x1="781.9219" x2="781.9219" y1="1690.3838" y2="1710.3838"/><polygon fill="#181818" points="777.9219,1700.3838,781.9219,1710.3838,785.9219,1700.3838,781.9219,1704.3838" style="stroke:#181818;stroke-width:1;stroke-linejoin:miter;stroke-miterlimit:10;"/><line style="stroke:#181818;stroke-width:1;" x1="808.7358" x2="781.9219" y1="1570.1182" y2="1570.1182"/><line style="stroke:#181818;stroke-width:1;" x1="781.9219" x2="781.9219" y1="1570.1182" y2="1602.1182"/><polygon fill="#181818" points="777.9219,1592.1182,781.9219,1602.1182,785.9219,1592.1182,781.9219,1596.1182" style="stroke:#181818;stroke-width:1;stroke-linejoin:miter;stroke-miterlimit:10;"/><line style="stroke:#181818;stroke-width:1;" x1="949.772" x2="976.5859" y1="1570.1182" y2="1570.1182"/><line style="stroke:#181818;stroke-width:1;" x1="976.5859" x2="976.5859" y1="1570.1182" y2="1602.1182"/><polygon fill="#181818" points="972.5859,1592.1182,976.5859,1602.1182,980.5859,1592.1182,976.5859,1596.1182" style="stroke:#181818;stroke-width:1;stroke-linejoin:miter;stroke-miterlimit:10;"/><line style="stroke:#181818;stroke-width:1;" x1="781.9219" x2="781.9219" y1="1744.5166" y2="1749.5166"/><line style="stroke:#181818;stroke-width:1;" x1="781.9219" x2="478.9111" y1="1749.5166" y2="1749.5166"/><line style="stroke:#181818;stroke-width:1;" x1="478.9111" x2="478.9111" y1="1749.5166" y2="1764.5166"/><polygon fill="#181818" points="474.9111,1754.5166,478.9111,1764.5166,482.9111,1754.5166,478.9111,1758.5166" style="stroke:#181818;stroke-width:1;stroke-linejoin:miter;stroke-miterlimit:10;"/><line style="stroke:#181818;stroke-width:1;" x1="105.5654" x2="105.5654" y1="209.25" y2="214.25"/><line style="stroke:#181818;stroke-width:1;" x1="105.5654" x2="478.9111" y1="214.25" y2="214.25"/><line style="stroke:#181818;stroke-width:1;" x1="478.9111" x2="478.9111" y1="214.25" y2="229.25"/><polygon fill="#181818" points="474.9111,219.25,478.9111,229.25,482.9111,219.25,478.9111,223.25" style="stroke:#181818;stroke-width:1;stroke-linejoin:miter;stroke-miterlimit:10;"/><line style="stroke:#181818;stroke-width:1;" x1="478.9111" x2="478.9111" y1="317.5156" y2="322.5156"/><line style="stroke:#181818;stroke-width:1;" x1="478.9111" x2="879.2539" y1="322.5156" y2="322.5156"/><line style="stroke:#181818;stroke-width:1;" x1="879.2539" x2="879.2539" y1="322.5156" y2="337.5156"/><polygon fill="#181818" points="875.2539,327.5156,879.2539,337.5156,883.2539,327.5156,879.2539,331.5156" style="stroke:#181818;stroke-width:1;stroke-linejoin:miter;stroke-miterlimit:10;"/><line style="stroke:#181818;stroke-width:1;" x1="964.8438" x2="964.8438" y1="469.7813" y2="474.7813"/><line style="stroke:#181818;stroke-width:1;" x1="964.8438" x2="564.501" y1="474.7813" y2="474.7813"/><line style="stroke:#181818;stroke-width:1;" x1="564.501" x2="564.501" y1="474.7813" y2="489.7813"/><polygon fill="#181818" points="560.501,479.7813,564.501,489.7813,568.501,479.7813,564.501,483.7813" style="stroke:#181818;stroke-width:1;stroke-linejoin:miter;stroke-miterlimit:10;"/><line style="stroke:#181818;stroke-width:1;" x1="564.501" x2="564.501" y1="523.9141" y2="528.9141"/><line style="stroke:#181818;stroke-width:1;" x1="564.501" x2="191.1553" y1="528.9141" y2="528.9141"/><line style="stroke:#181818;stroke-width:1;" x1="191.1553" x2="191.1553" y1="528.9141" y2="543.9141"/><polygon fill="#181818" points="187.1553,533.9141,191.1553,543.9141,195.1553,533.9141,191.1553,537.9141" style="stroke:#181818;stroke-width:1;stroke-linejoin:miter;stroke-miterlimit:10;"/><line style="stroke:#181818;stroke-width:1;" x1="581.4727" x2="581.4727" y1="718.1797" y2="723.1797"/><line style="stroke:#181818;stroke-width:1;" x1="581.4727" x2="208.127" y1="723.1797" y2="723.1797"/><line style="stroke:#181818;stroke-width:1;" x1="208.127" x2="208.127" y1="723.1797" y2="738.1797"/><polygon fill="#181818" points="204.127,728.1797,208.127,738.1797,212.127,728.1797,208.127,732.1797" style="stroke:#181818;stroke-width:1;stroke-linejoin:miter;stroke-miterlimit:10;"/><line style="stroke:#181818;stroke-width:1;" x1="208.127" x2="208.127" y1="772.3125" y2="777.3125"/><line style="stroke:#181818;stroke-width:1;" x1="208.127" x2="581.4727" y1="777.3125" y2="777.3125"/><line style="stroke:#181818;stroke-width:1;" x1="581.4727" x2="581.4727" y1="777.3125" y2="792.3125"/><polygon fill="#181818" points="577.4727,782.3125,581.4727,792.3125,585.4727,782.3125,581.4727,786.3125" style="stroke:#181818;stroke-width:1;stroke-linejoin:miter;stroke-miterlimit:10;"/><line style="stroke:#181818;stroke-width:1;" x1="478.9111" x2="478.9111" y1="860.4453" y2="865.4453"/><line style="stroke:#181818;stroke-width:1;" x1="478.9111" x2="879.2539" y1="865.4453" y2="865.4453"/><line style="stroke:#181818;stroke-width:1;" x1="879.2539" x2="879.2539" y1="865.4453" y2="880.4453"/><polygon fill="#181818" points="875.2539,870.4453,879.2539,880.4453,883.2539,870.4453,879.2539,874.4453" style="stroke:#181818;stroke-width:1;stroke-linejoin:miter;stroke-miterlimit:10;"/><line style="stroke:#181818;stroke-width:1;" x1="561.2151" x2="561.2151" y1="1012.7109" y2="1017.7109"/><line style="stroke:#181818;stroke-width:1;" x1="561.2151" x2="187.8694" y1="1017.7109" y2="1017.7109"/><line style="stroke:#181818;stroke-width:1;" x1="187.8694" x2="187.8694" y1="1017.7109" y2="1032.7109"/><polygon fill="#181818" points="183.8694,1022.7109,187.8694,1032.7109,191.8694,1022.7109,187.8694,1026.7109" style="stroke:#181818;stroke-width:1;stroke-linejoin:miter;stroke-miterlimit:10;"/><line style="stroke:#181818;stroke-width:1;" x1="187.8694" x2="187.8694" y1="1066.8438" y2="1070.8438"/><line style="stroke:#181818;stroke-width:1;" x1="187.8694" x2="508.9111" y1="1070.8438" y2="1070.8438"/><line style="stroke:#181818;stroke-width:1;" x1="508.9111" x2="508.9111" y1="1070.8438" y2="1088.8438"/><line style="stroke:#181818;stroke-width:1;" x1="508.9111" x2="490.9111" y1="1088.8438" y2="1088.8438"/><polygon fill="#181818" points="500.9111,1084.8438,490.9111,1088.8438,500.9111,1092.8438,496.9111,1088.8438" style="stroke:#181818;stroke-width:1;stroke-linejoin:miter;stroke-miterlimit:10;"/><line style="stroke:#181818;stroke-width:1;" x1="879.2539" x2="879.2539" y1="914.5781" y2="919.5781"/><line style="stroke:#181818;stroke-width:1;" x1="879.2539" x2="478.9111" y1="919.5781" y2="919.5781"/><line style="stroke:#181818;stroke-width:1;" x1="478.9111" x2="478.9111" y1="919.5781" y2="934.5781"/><polygon fill="#181818" points="474.9111,924.5781,478.9111,934.5781,482.9111,924.5781,478.9111,928.5781" style="stroke:#181818;stroke-width:1;stroke-linejoin:miter;stroke-miterlimit:10;"/><line style="stroke:#181818;stroke-width:1;" x1="478.9111" x2="478.9111" y1="1263.2422" y2="1268.2422"/><line style="stroke:#181818;stroke-width:1;" x1="478.9111" x2="879.2539" y1="1268.2422" y2="1268.2422"/><line style="stroke:#181818;stroke-width:1;" x1="879.2539" x2="879.2539" y1="1268.2422" y2="1283.2422"/><polygon fill="#181818" points="875.2539,1273.2422,879.2539,1283.2422,883.2539,1273.2422,879.2539,1277.2422" style="stroke:#181818;stroke-width:1;stroke-linejoin:miter;stroke-miterlimit:10;"/><line style="stroke:#181818;stroke-width:1;" x1="879.2539" x2="879.2539" y1="1419.9854" y2="1424.9854"/><line style="stroke:#181818;stroke-width:1;" x1="879.2539" x2="478.9111" y1="1424.9854" y2="1424.9854"/><line style="stroke:#181818;stroke-width:1;" x1="478.9111" x2="478.9111" y1="1424.9854" y2="1439.9854"/><polygon fill="#181818" points="474.9111,1429.9854,478.9111,1439.9854,482.9111,1429.9854,478.9111,1433.9854" style="stroke:#181818;stroke-width:1;stroke-linejoin:miter;stroke-miterlimit:10;"/><line style="stroke:#181818;stroke-width:1;" x1="976.5859" x2="976.5859" y1="1636.251" y2="1641.251"/><line style="stroke:#181818;stroke-width:1;" x1="976.5859" x2="576.2432" y1="1641.251" y2="1641.251"/><line style="stroke:#181818;stroke-width:1;" x1="576.2432" x2="576.2432" y1="1641.251" y2="1656.251"/><polygon fill="#181818" points="572.2432,1646.251,576.2432,1656.251,580.2432,1646.251,576.2432,1650.251" style="stroke:#181818;stroke-width:1;stroke-linejoin:miter;stroke-miterlimit:10;"/><line style="stroke:#181818;stroke-width:1;" x1="478.9111" x2="478.9111" y1="1852.7822" y2="1857.7822"/><line style="stroke:#181818;stroke-width:1;" x1="478.9111" x2="105.5654" y1="1857.7822" y2="1857.7822"/><line style="stroke:#181818;stroke-width:1;" x1="105.5654" x2="105.5654" y1="1857.7822" y2="1872.7822"/><polygon fill="#181818" points="101.5654,1862.7822,105.5654,1872.7822,109.5654,1862.7822,105.5654,1866.7822" style="stroke:#181818;stroke-width:1;stroke-linejoin:miter;stroke-miterlimit:10;"/><text fill="#000000" font-family="sans-serif" font-size="18" lengthAdjust="spacing" textLength="65.3379" x="116.2251" y="72.1875">Cashier</text><text fill="#000000" font-family="sans-serif" font-size="18" lengthAdjust="spacing" textLength="113.0977" x="421.3623" y="72.1875">Desktop App</text><text fill="#000000" font-family="sans-serif" font-size="18" lengthAdjust="spacing" textLength="111.8848" x="802.2139" y="72.1875">POS Backend</text><?plantuml-src dLJBRjim4BphA_Re0EaFM8V2ITh0W94OCNheSKsjRTOqgN9fDIxyyLrIiYBwaKEFnBvcPeSRT304yzS5pDnQMvZO2cPQaMM2YGgwmQ2TBOhZ8_96apyM7D27OlnQaqrr5V4skBeinjzi80zx9cznHu3IQZvzAQNugSs1ILqVY_4ROGMC3LNW_7fQfSobHwisqqhwB4ZU9i7nz7jF76AFEEi1rLQ2qcEo3nkoGIiCBVmujYpq2aQFdgeOGiFGeD7Lrpk8oJ3wINnN00Y0iFSMbeHU0ADIn0p1IUko82FCHozkcDXY8U-TZ038wKZQOkF-N2JrWhLz_A7DY36Mua9uwDMvDX7_Og0ClMiEV8L0aWLOkLfo8tyM3hAfCm8pXwaLMlqtRHACZdAUuLkG8HMonAj4FvtRySdtD6NUKzRuIrVS5zwKu6I9Mohy4A8yoBp6lOryohellhQGSOGYcrDeaiNk8vVxWME5HmZQhbcC-qoMV3Iay-9ScLvH8ty9T6lnBHsWHYtsw8MCOfdkks7_tIxj_brBVKgWytMcujRvis4dolKwy_Mlo7muyQQjkvwziJFpPYWZXAUMiT4xBVqRr0QNXYvM9t-qrqbaJJhaQ4ufUUJ3DH-_Sn2bzrhxG_dVPAiX-kkCStVCoRDOAqCO8kpa67E8romuBokHUtK23olXdNZLTJayhTq5ZQ4ToZ5XvIdUf0ZW7m00?></g></svg>