<svg xmlns="http://www.w3.org/2000/svg" xmlns:xlink="http://www.w3.org/1999/xlink" contentStyleType="text/css" data-diagram-type="SEQUENCE" height="1008px" preserveAspectRatio="none" style="width:1707px;height:1008px;background:#FFFFFF;" version="1.1" viewBox="0 0 1707 1008" width="1707px" zoomAndPan="magnify"><?plantuml 1.2026.6?><defs/><g><g class="title" data-source-line="1"><text fill="#000000" font-family="sans-serif" font-size="14" font-weight="700" lengthAdjust="spacing" textLength="231.8408" x="734.4233" y="28.5352">Signed POS Request Verification</text></g><rect fill="none" height="105.2422" style="stroke:#000000;stroke-width:1.5;" width="774.2646" x="311.2573" y="253.2188"/><rect fill="none" height="208.1289" style="stroke:#000000;stroke-width:1.5;" width="1237.1152" x="200.4204" y="701.2559"/><g class="participant-lifeline" data-entity-uid="part1" data-qualified-name="Cashier" data-source-line="3" id="part1-lifeline"><g><title>Cashier</title><rect fill="#000000" fill-opacity="0.00000" height="807.4082" width="8" x="29.4092" y="118.9766"/><line style="stroke:#181818;stroke-width:0.5;stroke-dasharray:5,5;" x1="33" x2="33" y1="118.9766" y2="926.3848"/></g></g><g class="participant-lifeline" data-entity-uid="part2" data-qualified-name="Desktop" data-source-line="4" id="part2-lifeline"><g><title>POS Desktop</title><rect fill="#000000" fill-opacity="0.00000" height="807.4082" width="8" x="256.8389" y="118.9766"/><line style="stroke:#181818;stroke-width:0.5;stroke-dasharray:5,5;" x1="260.4204" x2="260.4204" y1="118.9766" y2="926.3848"/></g></g><g class="participant-lifeline" data-entity-uid="part3" data-qualified-name="Settings" data-source-line="5" id="part3-lifeline"><g><title>Local Settings</title><rect fill="#000000" fill-opacity="0.00000" height="807.4082" width="8" x="367.186" y="118.9766"/><line style="stroke:#181818;stroke-width:0.5;stroke-dasharray:5,5;" x1="370.2573" x2="370.2573" y1="118.9766" y2="926.3848"/></g></g><g class="participant-lifeline" data-entity-uid="part4" data-qualified-name="SignedClient" data-source-line="6" id="part4-lifeline"><g><title>Signed POS Client</title><rect fill="#000000" fill-opacity="0.00000" height="807.4082" width="8" x="630.4165" y="118.9766"/><line style="stroke:#181818;stroke-width:0.5;stroke-dasharray:5,5;" x1="634.3491" x2="634.3491" y1="118.9766" y2="926.3848"/></g></g><g class="participant-lifeline" data-entity-uid="part5" data-qualified-name="PosApi" data-source-line="7" id="part5-lifeline"><g><title>Backend .pos</title><rect fill="#000000" fill-opacity="0.00000" height="807.4082" width="8" x="1018.1436" y="118.9766"/><line style="stroke:#181818;stroke-width:0.5;stroke-dasharray:5,5;" x1="1021.7651" x2="1021.7651" y1="118.9766" y2="926.3848"/></g></g><g class="participant-lifeline" data-entity-uid="part6" data-qualified-name="LicenseService" data-source-line="8" id="part6-lifeline"><g><title>License Service</title><rect fill="#000000" fill-opacity="0.00000" height="807.4082" width="8" x="1365.6011" y="118.9766"/><line style="stroke:#181818;stroke-width:0.5;stroke-dasharray:5,5;" x1="1368.6665" x2="1368.6665" y1="118.9766" y2="926.3848"/></g></g><g class="participant-lifeline" data-entity-uid="part7" data-qualified-name="LicenseDb" data-source-line="9" id="part7-lifeline"><g><title>License Tables</title><rect fill="#000000" fill-opacity="0.00000" height="807.4082" width="8" x="1640.2295" y="118.9766"/><line style="stroke:#181818;stroke-width:0.5;stroke-dasharray:5,5;" x1="1643.7715" x2="1643.7715" y1="118.9766" y2="926.3848"/></g></g><g class="participant participant-head" data-entity-uid="part1" data-qualified-name="Cashier" data-source-line="3" id="part1-head"><text fill="#000000" font-family="sans-serif" font-size="14" lengthAdjust="spacing" textLength="50.8184" x="5" y="116.0234">Cashier</text><ellipse cx="33.4092" cy="50.9883" fill="#E2E2F0" rx="8" ry="8" style="stroke:#181818;stroke-width:0.5;"/><path d="M33.4092,58.9883 L33.4092,85.9883 M20.4092,66.9883 L46.4092,66.9883 M33.4092,85.9883 L20.4092,100.9883 M33.4092,85.9883 L46.4092,100.9883" fill="none" style="stroke:#181818;stroke-width:0.5;"/></g><g class="participant participant-tail" data-entity-uid="part1" data-qualified-name="Cashier" data-source-line="3" id="part1-tail"><text fill="#000000" font-family="sans-serif" font-size="14" lengthAdjust="spacing" textLength="50.8184" x="5" y="938.9199">Cashier</text><ellipse cx="33.4092" cy="950.373" fill="#E2E2F0" rx="8" ry="8" style="stroke:#181818;stroke-width:0.5;"/><path d="M33.4092,958.373 L33.4092,985.373 M20.4092,966.373 L46.4092,966.373 M33.4092,985.373 L20.4092,1000.373 M33.4092,985.373 L46.4092,1000.373" fill="none" style="stroke:#181818;stroke-width:0.5;"/></g><g class="participant participant-head" data-entity-uid="part2" data-qualified-name="Desktop" data-source-line="4" id="part2-head"><rect fill="#E2E2F0" height="30.4883" rx="2.5" ry="2.5" style="stroke:#181818;stroke-width:0.5;" width="100.8369" x="210.4204" y="87.4883"/><text fill="#000000" font-family="sans-serif" font-size="14" lengthAdjust="spacing" textLength="86.8369" x="217.4204" y="108.0234">POS Desktop</text></g><g class="participant participant-tail" data-entity-uid="part2" data-qualified-name="Desktop" data-source-line="4" id="part2-tail"><rect fill="#E2E2F0" height="30.4883" rx="2.5" ry="2.5" style="stroke:#181818;stroke-width:0.5;" width="100.8369" x="210.4204" y="925.3848"/><text fill="#000000" font-family="sans-serif" font-size="14" lengthAdjust="spacing" textLength="86.8369" x="217.4204" y="945.9199">POS Desktop</text></g><g class="participant participant-head" data-entity-uid="part3" data-qualified-name="Settings" data-source-line="5" id="part3-head"><text fill="#000000" font-family="sans-serif" font-size="14" lengthAdjust="spacing" textLength="93.8574" x="321.2573" y="116.0234">Local Settings</text><path d="M353.186,66.4883 C353.186,56.4883 371.186,56.4883 371.186,56.4883 C371.186,56.4883 389.186,56.4883 389.186,66.4883 L389.186,92.4883 C389.186,102.4883 371.186,102.4883 371.186,102.4883 C371.186,102.4883 353.186,102.4883 353.186,92.4883 L353.186,66.4883" fill="#E2E2F0" style="stroke:#181818;stroke-width:0.5;"/><path d="M353.186,66.4883 C353.186,76.4883 371.186,76.4883 371.186,76.4883 C371.186,76.4883 389.186,76.4883 389.186,66.4883" fill="none" style="stroke:#181818;stroke-width:0.5;"/></g><g class="participant participant-tail" data-entity-uid="part3" data-qualified-name="Settings" data-source-line="5" id="part3-tail"><text fill="#000000" font-family="sans-serif" font-size="14" lengthAdjust="spacing" textLength="93.8574" x="321.2573" y="938.9199">Local Settings</text><path d="M353.186,951.873 C353.186,941.873 371.186,941.873 371.186,941.873 C371.186,941.873 389.186,941.873 389.186,951.873 L389.186,977.873 C389.186,987.873 371.186,987.873 371.186,987.873 C371.186,987.873 353.186,987.873 353.186,977.873 L353.186,951.873" fill="#E2E2F0" style="stroke:#181818;stroke-width:0.5;"/><path d="M353.186,951.873 C353.186,961.873 371.186,961.873 371.186,961.873 C371.186,961.873 389.186,961.873 389.186,951.873" fill="none" style="stroke:#181818;stroke-width:0.5;"/></g><g class="participant participant-head" data-entity-uid="part4" data-qualified-name="SignedClient" data-source-line="6" id="part4-head"><rect fill="#E2E2F0" height="30.4883" rx="2.5" ry="2.5" style="stroke:#181818;stroke-width:0.5;" width="134.1348" x="567.3491" y="87.4883"/><text fill="#000000" font-family="sans-serif" font-size="14" lengthAdjust="spacing" textLength="120.1348" x="574.3491" y="108.0234">Signed POS Client</text></g><g class="participant participant-tail" data-entity-uid="part4" data-qualified-name="SignedClient" data-source-line="6" id="part4-tail"><rect fill="#E2E2F0" height="30.4883" rx="2.5" ry="2.5" style="stroke:#181818;stroke-width:0.5;" width="134.1348" x="567.3491" y="925.3848"/><text fill="#000000" font-family="sans-serif" font-size="14" lengthAdjust="spacing" textLength="120.1348" x="574.3491" y="945.9199">Signed POS Client</text></g><g class="participant participant-head" data-entity-uid="part5" data-qualified-name="PosApi" data-source-line="7" id="part5-head"><rect fill="#E2E2F0" height="30.4883" rx="2.5" ry="2.5" style="stroke:#181818;stroke-width:0.5;" width="106.7568" x="968.7651" y="87.4883"/><text fill="#000000" font-family="sans-serif" font-size="14" lengthAdjust="spacing" textLength="92.7568" x="975.7651" y="108.0234">Backend /pos</text></g><g class="participant participant-tail" data-entity-uid="part5" data-qualified-name="PosApi" data-source-line="7" id="part5-tail"><rect fill="#E2E2F0" height="30.4883" rx="2.5" ry="2.5" style="stroke:#181818;stroke-width:0.5;" width="106.7568" x="968.7651" y="925.3848"/><text fill="#000000" font-family="sans-serif" font-size="14" lengthAdjust="spacing" textLength="92.7568" x="975.7651" y="945.9199">Backend /pos</text></g><g class="participant participant-head" data-entity-uid="part6" data-qualified-name="LicenseService" data-source-line="8" id="part6-head"><rect fill="#E2E2F0" height="30.4883" rx="2.5" ry="2.5" style="stroke:#181818;stroke-width:0.5;" width="115.8691" x="1311.6665" y="87.4883"/><text fill="#000000" font-family="sans-serif" font-size="14" lengthAdjust="spacing" textLength="101.8691" x="1318.6665" y="108.0234">License Service</text></g><g class="participant participant-tail" data-entity-uid="part6" data-qualified-name="LicenseService" data-source-line="8" id="part6-tail"><rect fill="#E2E2F0" height="30.4883" rx="2.5" ry="2.5" style="stroke:#181818;stroke-width:0.5;" width="115.8691" x="1311.6665" y="925.3848"/><text fill="#000000" font-family="sans-serif" font-size="14" lengthAdjust="spacing" textLength="101.8691" x="1318.6665" y="945.9199">License Service</text></g><g class="participant participant-head" data-entity-uid="part7" data-qualified-name="LicenseDb" data-source-line="9" id="part7-head"><text fill="#000000" font-family="sans-serif" font-size="14" lengthAdjust="spacing" textLength="98.916" x="1591.7715" y="116.0234">License Tables</text><path d="M1626.2295,66.4883 C1626.2295,56.4883 1644.2295,56.4883 1644.2295,56.4883 C1644.2295,56.4883 1662.2295,56.4883 1662.2295,66.4883 L1662.2295,92.4883 C1662.2295,102.4883 1644.2295,102.4883 1644.2295,102.4883 C1644.2295,102.4883 1626.2295,102.4883 1626.2295,92.4883 L1626.2295,66.4883" fill="#E2E2F0" style="stroke:#181818;stroke-width:0.5;"/><path d="M1626.2295,66.4883 C1626.2295,76.4883 1644.2295,76.4883 1644.2295,76.4883 C1644.2295,76.4883 1662.2295,76.4883 1662.2295,66.4883" fill="none" style="stroke:#181818;stroke-width:0.5;"/></g><g class="participant participant-tail" data-entity-uid="part7" data-qualified-name="LicenseDb" data-source-line="9" id="part7-tail"><text fill="#000000" font-family="sans-serif" font-size="14" lengthAdjust="spacing" textLength="98.916" x="1591.7715" y="938.9199">License Tables</text><path d="M1626.2295,951.873 C1626.2295,941.873 1644.2295,941.873 1644.2295,941.873 C1644.2295,941.873 1662.2295,941.873 1662.2295,951.873 L1662.2295,977.873 C1662.2295,987.873 1644.2295,987.873 1644.2295,987.873 C1644.2295,987.873 1626.2295,987.873 1626.2295,977.873 L1626.2295,951.873" fill="#E2E2F0" style="stroke:#181818;stroke-width:0.5;"/><path d="M1626.2295,951.873 C1626.2295,961.873 1644.2295,961.873 1644.2295,961.873 C1644.2295,961.873 1662.2295,961.873 1662.2295,951.873" fill="none" style="stroke:#181818;stroke-width:0.5;"/></g><g class="message" data-entity-1="part1" data-entity-2="part2" data-source-line="11" id="msg1"><polygon fill="#181818" points="248.8389,146.2871,258.8389,150.2871,248.8389,154.2871,252.8389,150.2871" style="stroke:#181818;stroke-width:1;stroke-linejoin:miter;stroke-miterlimit:10;"/><line style="stroke:#181818;stroke-width:1;" x1="33.4092" x2="254.8389" y1="150.2871" y2="150.2871"/><text fill="#000000" font-family="sans-serif" font-size="13" lengthAdjust="spacing" textLength="203.4297" x="40.4092" y="145.5449">Open protected POS data screen</text></g><g class="message" data-entity-1="part2" data-entity-2="part4" data-source-line="12" id="msg2"><polygon fill="#181818" points="622.4165,175.5977,632.4165,179.5977,622.4165,183.5977,626.4165,179.5977" style="stroke:#181818;stroke-width:1;stroke-linejoin:miter;stroke-miterlimit:10;"/><line style="stroke:#181818;stroke-width:1;" x1="260.8389" x2="628.4165" y1="179.5977" y2="179.5977"/><text fill="#000000" font-family="sans-serif" font-size="13" lengthAdjust="spacing" textLength="175.0112" x="267.8389" y="174.8555">Request protected POS data</text></g><g class="message" data-entity-1="part4" data-entity-2="part3" data-source-line="13" id="msg3"><polygon fill="#181818" points="382.186,204.9082,372.186,208.9082,382.186,212.9082,378.186,208.9082" style="stroke:#181818;stroke-width:1;stroke-linejoin:miter;stroke-miterlimit:10;"/><line style="stroke:#181818;stroke-width:1;" x1="376.186" x2="633.4165" y1="208.9082" y2="208.9082"/><text fill="#000000" font-family="sans-serif" font-size="13" lengthAdjust="spacing" textLength="239.2305" x="388.186" y="204.166">Read auth session and activation keys</text></g><g class="message" data-entity-1="part3" data-entity-2="part4" data-source-line="14" id="msg4"><polygon fill="#181818" points="622.4165,234.2188,632.4165,238.2188,622.4165,242.2188,626.4165,238.2188" style="stroke:#181818;stroke-width:1;stroke-linejoin:miter;stroke-miterlimit:10;"/><line style="stroke:#181818;stroke-width:1;stroke-dasharray:2,2;" x1="371.186" x2="628.4165" y1="238.2188" y2="238.2188"/><text fill="#000000" font-family="sans-serif" font-size="13" lengthAdjust="spacing" textLength="214.0938" x="378.186" y="233.4766">accessToken, deviceId, privateKey</text></g><path d="M311.2573,253.2188 L373.396,253.2188 L373.396,260.5293 L363.396,270.5293 L311.2573,270.5293 L311.2573,253.2188" fill="#EEEEEE" style="stroke:#000000;stroke-width:1.5;"/><rect fill="none" height="105.2422" style="stroke:#000000;stroke-width:1.5;" width="774.2646" x="311.2573" y="253.2188"/><text fill="#000000" font-family="sans-serif" font-size="13" font-weight="700" lengthAdjust="spacing" textLength="17.1387" x="326.2573" y="266.7871">alt</text><text fill="#000000" font-family="sans-serif" font-size="11" font-weight="700" lengthAdjust="spacing" textLength="180.5815" x="388.396" y="265.8535">[Session expired or near expiry]</text><g class="message" data-entity-1="part4" data-entity-2="part5" data-source-line="17" id="msg5"><polygon fill="#181818" points="1010.1436,287.8398,1020.1436,291.8398,1010.1436,295.8398,1014.1436,291.8398" style="stroke:#181818;stroke-width:1;stroke-linejoin:miter;stroke-miterlimit:10;"/><line style="stroke:#181818;stroke-width:1;" x1="634.4165" x2="1016.1436" y1="291.8398" y2="291.8398"/><text fill="#000000" font-family="sans-serif" font-size="13" lengthAdjust="spacing" textLength="119.9834" x="641.4165" y="287.0977">POST /pos/session</text></g><g class="message" data-entity-1="part5" data-entity-2="part4" data-source-line="18" id="msg6"><polygon fill="#181818" points="645.4165,317.1504,635.4165,321.1504,645.4165,325.1504,641.4165,321.1504" style="stroke:#181818;stroke-width:1;stroke-linejoin:miter;stroke-miterlimit:10;"/><line style="stroke:#181818;stroke-width:1;stroke-dasharray:2,2;" x1="639.4165" x2="1021.1436" y1="321.1504" y2="321.1504"/><text fill="#000000" font-family="sans-serif" font-size="13" lengthAdjust="spacing" textLength="147.145" x="651.4165" y="316.4082">Refreshed accessToken</text></g><g class="message" data-entity-1="part4" data-entity-2="part3" data-source-line="19" id="msg7"><polygon fill="#181818" points="382.186,346.4609,372.186,350.4609,382.186,354.4609,378.186,350.4609" style="stroke:#181818;stroke-width:1;stroke-linejoin:miter;stroke-miterlimit:10;"/><line style="stroke:#181818;stroke-width:1;" x1="376.186" x2="633.4165" y1="350.4609" y2="350.4609"/><text fill="#000000" font-family="sans-serif" font-size="13" lengthAdjust="spacing" textLength="143.3364" x="388.186" y="345.7188">Save refreshed session</text></g><g class="message" data-entity-1="part4" data-entity-2="part4" data-source-line="22" id="msg8"><line style="stroke:#181818;stroke-width:1;" x1="634.4165" x2="676.4165" y1="386.7715" y2="386.7715"/><line style="stroke:#181818;stroke-width:1;" x1="676.4165" x2="676.4165" y1="386.7715" y2="399.7715"/><line style="stroke:#181818;stroke-width:1;" x1="635.4165" x2="676.4165" y1="399.7715" y2="399.7715"/><polygon fill="#181818" points="645.4165,395.7715,635.4165,399.7715,645.4165,403.7715,641.4165,399.7715" style="stroke:#181818;stroke-width:1;stroke-linejoin:miter;stroke-miterlimit:10;"/><text fill="#000000" font-family="sans-serif" font-size="13" lengthAdjust="spacing" textLength="118.3394" x="641.4165" y="382.0293">Hash request body</text></g><g class="message" data-entity-1="part4" data-entity-2="part4" data-source-line="23" id="msg9"><line style="stroke:#181818;stroke-width:1;" x1="634.4165" x2="676.4165" y1="429.082" y2="429.082"/><line style="stroke:#181818;stroke-width:1;" x1="676.4165" x2="676.4165" y1="429.082" y2="442.082"/><line style="stroke:#181818;stroke-width:1;" x1="635.4165" x2="676.4165" y1="442.082" y2="442.082"/><polygon fill="#181818" points="645.4165,438.082,635.4165,442.082,645.4165,446.082,641.4165,442.082" style="stroke:#181818;stroke-width:1;stroke-linejoin:miter;stroke-miterlimit:10;"/><text fill="#000000" font-family="sans-serif" font-size="13" lengthAdjust="spacing" textLength="181.6191" x="641.4165" y="424.3398">Create nonce and timestamp</text></g><g class="message" data-entity-1="part4" data-entity-2="part4" data-source-line="24" id="msg10"><line style="stroke:#181818;stroke-width:1;" x1="634.4165" x2="676.4165" y1="471.3926" y2="471.3926"/><line style="stroke:#181818;stroke-width:1;" x1="676.4165" x2="676.4165" y1="471.3926" y2="484.3926"/><line style="stroke:#181818;stroke-width:1;" x1="635.4165" x2="676.4165" y1="484.3926" y2="484.3926"/><polygon fill="#181818" points="645.4165,480.3926,635.4165,484.3926,645.4165,488.3926,641.4165,484.3926" style="stroke:#181818;stroke-width:1;stroke-linejoin:miter;stroke-miterlimit:10;"/><text fill="#000000" font-family="sans-serif" font-size="13" lengthAdjust="spacing" textLength="245.9653" x="641.4165" y="466.6504">Sign canonical request with private key</text></g><g class="message" data-entity-1="part4" data-entity-2="part5" data-source-line="25" id="msg11"><polygon fill="#181818" points="1010.1436,509.7031,1020.1436,513.7031,1010.1436,517.7031,1014.1436,513.7031" style="stroke:#181818;stroke-width:1;stroke-linejoin:miter;stroke-miterlimit:10;"/><line style="stroke:#181818;stroke-width:1;" x1="634.4165" x2="1016.1436" y1="513.7031" y2="513.7031"/><text fill="#000000" font-family="sans-serif" font-size="13" lengthAdjust="spacing" textLength="363.7271" x="641.4165" y="508.9609">GET protected data with bearer token and signed headers</text></g><g class="message" data-entity-1="part5" data-entity-2="part6" data-source-line="27" id="msg12"><polygon fill="#181818" points="1357.6011,539.0137,1367.6011,543.0137,1357.6011,547.0137,1361.6011,543.0137" style="stroke:#181818;stroke-width:1;stroke-linejoin:miter;stroke-miterlimit:10;"/><line style="stroke:#181818;stroke-width:1;" x1="1022.1436" x2="1363.6011" y1="543.0137" y2="543.0137"/><text fill="#000000" font-family="sans-serif" font-size="13" lengthAdjust="spacing" textLength="323.4575" x="1029.1436" y="538.2715">Verify device id, nonce, timestamp, hash, signature</text></g><g class="message" data-entity-1="part6" data-entity-2="part7" data-source-line="28" id="msg13"><polygon fill="#181818" points="1632.2295,568.3242,1642.2295,572.3242,1632.2295,576.3242,1636.2295,572.3242" style="stroke:#181818;stroke-width:1;stroke-linejoin:miter;stroke-miterlimit:10;"/><line style="stroke:#181818;stroke-width:1;" x1="1369.6011" x2="1638.2295" y1="572.3242" y2="572.3242"/><text fill="#000000" font-family="sans-serif" font-size="13" lengthAdjust="spacing" textLength="212.6655" x="1376.6011" y="567.582">Load activation and latest session</text></g><g class="message" data-entity-1="part7" data-entity-2="part6" data-source-line="29" id="msg14"><polygon fill="#181818" points="1380.6011,597.6348,1370.6011,601.6348,1380.6011,605.6348,1376.6011,601.6348" style="stroke:#181818;stroke-width:1;stroke-linejoin:miter;stroke-miterlimit:10;"/><line style="stroke:#181818;stroke-width:1;stroke-dasharray:2,2;" x1="1374.6011" x2="1643.2295" y1="601.6348" y2="601.6348"/><text fill="#000000" font-family="sans-serif" font-size="13" lengthAdjust="spacing" textLength="207.8159" x="1386.6011" y="596.8926">Public key and activation context</text></g><g class="message" data-entity-1="part6" data-entity-2="part6" data-source-line="30" id="msg15"><line style="stroke:#181818;stroke-width:1;" x1="1369.6011" x2="1411.6011" y1="630.9453" y2="630.9453"/><line style="stroke:#181818;stroke-width:1;" x1="1411.6011" x2="1411.6011" y1="630.9453" y2="643.9453"/><line style="stroke:#181818;stroke-width:1;" x1="1370.6011" x2="1411.6011" y1="643.9453" y2="643.9453"/><polygon fill="#181818" points="1380.6011,639.9453,1370.6011,643.9453,1380.6011,647.9453,1376.6011,643.9453" style="stroke:#181818;stroke-width:1;stroke-linejoin:miter;stroke-miterlimit:10;"/><text fill="#000000" font-family="sans-serif" font-size="13" lengthAdjust="spacing" textLength="260.6284" x="1376.6011" y="626.2031">Reject replayed nonce or stale timestamp</text></g><g class="message" data-entity-1="part6" data-entity-2="part6" data-source-line="31" id="msg16"><line style="stroke:#181818;stroke-width:1;" x1="1369.6011" x2="1411.6011" y1="673.2559" y2="673.2559"/><line style="stroke:#181818;stroke-width:1;" x1="1411.6011" x2="1411.6011" y1="673.2559" y2="686.2559"/><line style="stroke:#181818;stroke-width:1;" x1="1370.6011" x2="1411.6011" y1="686.2559" y2="686.2559"/><polygon fill="#181818" points="1380.6011,682.2559,1370.6011,686.2559,1380.6011,690.2559,1376.6011,686.2559" style="stroke:#181818;stroke-width:1;stroke-linejoin:miter;stroke-miterlimit:10;"/><text fill="#000000" font-family="sans-serif" font-size="13" lengthAdjust="spacing" textLength="206.9399" x="1376.6011" y="668.5137">Verify signature using public key</text></g><path d="M200.4204,701.2559 L262.5591,701.2559 L262.5591,708.5664 L252.5591,718.5664 L200.4204,718.5664 L200.4204,701.2559" fill="#EEEEEE" style="stroke:#000000;stroke-width:1.5;"/><rect fill="none" height="208.1289" style="stroke:#000000;stroke-width:1.5;" width="1237.1152" x="200.4204" y="701.2559"/><text fill="#000000" font-family="sans-serif" font-size="13" font-weight="700" lengthAdjust="spacing" textLength="17.1387" x="215.4204" y="714.8242">alt</text><text fill="#000000" font-family="sans-serif" font-size="11" font-weight="700" lengthAdjust="spacing" textLength="93.1509" x="277.5591" y="713.8906">[Signature valid]</text><g class="message" data-entity-1="part6" data-entity-2="part5" data-source-line="34" id="msg17"><polygon fill="#181818" points="1033.1436,735.877,1023.1436,739.877,1033.1436,743.877,1029.1436,739.877" style="stroke:#181818;stroke-width:1;stroke-linejoin:miter;stroke-miterlimit:10;"/><line style="stroke:#181818;stroke-width:1;stroke-dasharray:2,2;" x1="1027.1436" x2="1368.6011" y1="739.877" y2="739.877"/><text fill="#000000" font-family="sans-serif" font-size="13" lengthAdjust="spacing" textLength="132.1899" x="1039.1436" y="735.1348">Verification accepted</text></g><g class="message" data-entity-1="part5" data-entity-2="part4" data-source-line="35" id="msg18"><polygon fill="#181818" points="645.4165,765.1875,635.4165,769.1875,645.4165,773.1875,641.4165,769.1875" style="stroke:#181818;stroke-width:1;stroke-linejoin:miter;stroke-miterlimit:10;"/><line style="stroke:#181818;stroke-width:1;stroke-dasharray:2,2;" x1="639.4165" x2="1021.1436" y1="769.1875" y2="769.1875"/><text fill="#000000" font-family="sans-serif" font-size="13" lengthAdjust="spacing" textLength="119.4565" x="651.4165" y="764.4453">Protected POS data</text></g><g class="message" data-entity-1="part4" data-entity-2="part2" data-source-line="36" id="msg19"><polygon fill="#181818" points="271.8389,794.498,261.8389,798.498,271.8389,802.498,267.8389,798.498" style="stroke:#181818;stroke-width:1;stroke-linejoin:miter;stroke-miterlimit:10;"/><line style="stroke:#181818;stroke-width:1;stroke-dasharray:2,2;" x1="265.8389" x2="633.4165" y1="798.498" y2="798.498"/><text fill="#000000" font-family="sans-serif" font-size="13" lengthAdjust="spacing" textLength="68.9482" x="277.8389" y="793.7559">Data result</text></g><line style="stroke:#000000;stroke-width:1;stroke-dasharray:2,2;" x1="200.4204" x2="1437.5356" y1="807.498" y2="807.498"/><text fill="#000000" font-family="sans-serif" font-size="11" font-weight="700" lengthAdjust="spacing" textLength="103.9521" x="205.4204" y="818.1328">[Signature invalid]</text><g class="message" data-entity-1="part6" data-entity-2="part5" data-source-line="38" id="msg20"><polygon fill="#181818" points="1033.1436,838.7637,1023.1436,842.7637,1033.1436,846.7637,1029.1436,842.7637" style="stroke:#181818;stroke-width:1;stroke-linejoin:miter;stroke-miterlimit:10;"/><line style="stroke:#181818;stroke-width:1;stroke-dasharray:2,2;" x1="1027.1436" x2="1368.6011" y1="842.7637" y2="842.7637"/><text fill="#000000" font-family="sans-serif" font-size="13" lengthAdjust="spacing" textLength="126.6865" x="1039.1436" y="838.0215">Verification rejected</text></g><g class="message" data-entity-1="part5" data-entity-2="part4" data-source-line="39" id="msg21"><polygon fill="#181818" points="645.4165,868.0742,635.4165,872.0742,645.4165,876.0742,641.4165,872.0742" style="stroke:#181818;stroke-width:1;stroke-linejoin:miter;stroke-miterlimit:10;"/><line style="stroke:#181818;stroke-width:1;stroke-dasharray:2,2;" x1="639.4165" x2="1021.1436" y1="872.0742" y2="872.0742"/><text fill="#000000" font-family="sans-serif" font-size="13" lengthAdjust="spacing" textLength="146.5991" x="651.4165" y="867.332">Unauthorized response</text></g><g class="message" data-entity-1="part4" data-entity-2="part2" data-source-line="40" id="msg22"><polygon fill="#181818" points="271.8389,897.3848,261.8389,901.3848,271.8389,905.3848,267.8389,901.3848" style="stroke:#181818;stroke-width:1;stroke-linejoin:miter;stroke-miterlimit:10;"/><line style="stroke:#181818;stroke-width:1;stroke-dasharray:2,2;" x1="265.8389" x2="633.4165" y1="901.3848" y2="901.3848"/><text fill="#000000" font-family="sans-serif" font-size="13" lengthAdjust="spacing" textLength="113.4771" x="277.8389" y="896.6426">Show access error</text></g><?plantuml-src bLJBRjim4BppAnO-EyZTXm2jNRH53SImtDufQXEnLaYMf9oeNzybHScKdDZeJQJsCJipIozzWr38PuKLx1uBsEEV5fs7NsZbanJSIwqOuy9h2slkQecM6Mwz5D9mvM4HaZReZbwR1N0tVBEAUrvoXx3OQi4RAD1xgPvT31eEqr8PZ7KZKVa-Djxs5zFuprmSKLLmRtHVTgVT9oEdGLifK16C0ks9FcDSkajNETGKVE1bWowFtPICfVdXxc6OSWMF1XKOgpqAdx27Sk24HLGinOMKV8xLoFDbAii3Os8YAoJn2dZhQt3e72a3dCOdSUGf2WL7x1mRuk7keYiNWX8FccXRGeLX-k_Laa240lW3EvAwyTInhuvlHbg2HjehvBO_TmnW3h4dVXLcE4GvxXD0Ykt_lGDcZqyMNOrL3kkTukVv2tv2i6FQq8Cym2vPc_JwHj9HPizvgQlkHlpQ8X42IYk1aMGlNoYLlvWRYU44WbEY3AuVMhvA4YtH75HY7p7uzSiXyqIqKimjYN-odWySHK2kNvQQB87MCJRG_31pzwfVvIx93PBqZcCjppCjeIP-bh4czwr5DgsHLTsKAzXgFd5TWDFGO3Jd8CaO7NMV8zgrPID5u65kOA6LnpV_SV-nnXv_4qT4i6buHqJqKf5JQI9wqivwtIwL21gdXzQHty2CADDMZFzFl94LENLUEjCnVp-ZlmtfUMqRTfSFmNmLydTd4vn1Uz0sdc7ZC4CdrV_Yiv7Bw_X-gl3mQ2l_4aHgR3HLlWgngFLhMcr0QxKDY_eF?></g></svg>