<svg xmlns="http://www.w3.org/2000/svg" xmlns:xlink="http://www.w3.org/1999/xlink" contentStyleType="text/css" data-diagram-type="ACTIVITY" height="1425px" preserveAspectRatio="none" style="width:1748px;height:1425px;background:#FFFFFF;" version="1.1" viewBox="0 0 1748 1425" width="1748px" zoomAndPan="magnify"><?plantuml 1.2026.6?><defs/><g><g class="title" data-source-line="1"><text fill="#000000" font-family="sans-serif" font-size="14" font-weight="700" lengthAdjust="spacing" textLength="329.8477" x="708.1113" y="33.5352">Master Data Import To Organization Products</text></g><rect fill="none" height="21.1992" style="stroke:none;stroke-width:1;" width="1701.0703" x="20" y="54.7852"/><ellipse cx="156.5566" cy="90.9844" fill="#222222" rx="10" ry="10" style="stroke:#222222;stroke-width:1;"/><rect fill="#F1F1F1" height="34.1328" rx="12.5" ry="12.5" style="stroke:#181818;stroke-width:0.5;" width="251.873" x="30.6201" y="120.9844"/><text fill="#000000" font-family="sans-serif" font-size="12" lengthAdjust="spacing" textLength="231.873" x="40.6201" y="142.5859">Open product import or creation screen</text><rect fill="#F1F1F1" height="34.1328" rx="12.5" ry="12.5" style="stroke:#181818;stroke-width:0.5;" width="261.1133" x="26" y="175.1172"/><text fill="#000000" font-family="sans-serif" font-size="12" lengthAdjust="spacing" textLength="241.1133" x="36" y="196.7188">Search/select master category or product</text><rect fill="#F1F1F1" height="34.1328" rx="12.5" ry="12.5" style="stroke:#181818;stroke-width:0.5;" width="213.8633" x="49.625" y="391.6484"/><text fill="#000000" font-family="sans-serif" font-size="12" lengthAdjust="spacing" textLength="193.8633" x="59.625" y="413.25">Confirm import into organization</text><rect fill="#F1F1F1" height="34.1328" rx="12.5" ry="12.5" style="stroke:#181818;stroke-width:0.5;" width="247.2559" x="32.9287" y="1328.542"/><text fill="#000000" font-family="sans-serif" font-size="12" lengthAdjust="spacing" textLength="227.2559" x="42.9287" y="1350.1436">Review product in organization catalog</text><ellipse cx="156.5566" cy="1393.6748" fill="none" rx="11" ry="11" style="stroke:#222222;stroke-width:1;"/><ellipse cx="156.5566" cy="1393.6748" fill="#222222" rx="6" ry="6" style="stroke:#222222;stroke-width:1;"/><line style="stroke:#000000;stroke-width:1.5;" x1="20" x2="20" y1="54.7852" y2="1404.6748"/><rect fill="#F1F1F1" height="34.1328" rx="12.5" ry="12.5" style="stroke:#181818;stroke-width:0.5;" width="186.9746" x="297.1133" y="229.25"/><text fill="#000000" font-family="sans-serif" font-size="12" lengthAdjust="spacing" textLength="166.9746" x="307.1133" y="250.8516">Request master data records</text><line style="stroke:#000000;stroke-width:1.5;" x1="291.1133" x2="291.1133" y1="54.7852" y2="1404.6748"/><rect fill="#F1F1F1" height="34.1328" rx="12.5" ry="12.5" style="stroke:#181818;stroke-width:0.5;" width="425.8613" x="494.0879" y="283.3828"/><text fill="#000000" font-family="sans-serif" font-size="12" lengthAdjust="spacing" textLength="405.8613" x="504.0879" y="304.9844">Read master category, product, variant, price, vendor, bundle records</text><rect fill="#F1F1F1" height="34.1328" rx="12.5" ry="12.5" style="stroke:#181818;stroke-width:0.5;" width="183.1133" x="615.4619" y="337.5156"/><text fill="#000000" font-family="sans-serif" font-size="12" lengthAdjust="spacing" textLength="163.1133" x="625.4619" y="359.1172">Return selected master data</text><line style="stroke:#000000;stroke-width:1.5;" x1="488.0879" x2="488.0879" y1="54.7852" y2="1404.6748"/><rect fill="#F1F1F1" height="34.1328" rx="12.5" ry="12.5" style="stroke:#181818;stroke-width:0.5;" width="191.9316" x="1083.2119" y="445.7813"/><text fill="#000000" font-family="sans-serif" font-size="12" lengthAdjust="spacing" textLength="171.9316" x="1093.2119" y="467.3828">Validate organization context</text><polygon fill="#F1F1F1" points="1069.3738,499.9141,1288.9817,499.9141,1300.9817,511.9141,1288.9817,523.9141,1069.3738,523.9141,1057.3738,511.9141,1069.3738,499.9141" style="stroke:#181818;stroke-width:0.5;stroke-linejoin:miter;stroke-miterlimit:10;"/><text fill="#000000" font-family="sans-serif" font-size="11" lengthAdjust="spacing" textLength="219.6079" x="1069.3738" y="516.0713">Product already imported by referenceId?</text><text fill="#000000" font-family="sans-serif" font-size="11" lengthAdjust="spacing" textLength="18.5894" x="1038.7844" y="509.5938">Yes</text><text fill="#000000" font-family="sans-serif" font-size="11" lengthAdjust="spacing" textLength="14.8833" x="1300.9817" y="509.5938">No</text><rect fill="#F1F1F1" height="34.1328" rx="12.5" ry="12.5" style="stroke:#181818;stroke-width:0.5;" width="224.9141" x="929.9492" y="533.9141"/><text fill="#000000" font-family="sans-serif" font-size="12" lengthAdjust="spacing" textLength="204.9141" x="939.9492" y="555.5156">Load existing organization product</text><rect fill="#F1F1F1" height="34.1328" rx="12.5" ry="12.5" style="stroke:#181818;stroke-width:0.5;" width="282.1719" x="1174.8633" y="533.9141"/><text fill="#000000" font-family="sans-serif" font-size="12" lengthAdjust="spacing" textLength="262.1719" x="1184.8633" y="555.5156">Create organization product with referenceId</text><polygon fill="#F1F1F1" points="1179.1777,574.0469,1191.1777,586.0469,1179.1777,598.0469,1167.1777,586.0469,1179.1777,574.0469" style="stroke:#181818;stroke-width:0.5;stroke-linejoin:miter;stroke-miterlimit:10;"/><rect fill="#F1F1F1" height="34.1328" rx="12.5" ry="12.5" style="stroke:#181818;stroke-width:0.5;" width="247.2266" x="1055.5645" y="666.5244"/><text fill="#000000" font-family="sans-serif" font-size="12" lengthAdjust="spacing" textLength="227.2266" x="1065.5645" y="688.126">Create organization category reference</text><polygon fill="#F1F1F1" points="1108.7788,618.0469,1249.5767,618.0469,1261.5767,630.0469,1249.5767,642.0469,1108.7788,642.0469,1096.7788,630.0469,1108.7788,618.0469" style="stroke:#181818;stroke-width:0.5;stroke-linejoin:miter;stroke-miterlimit:10;"/><text fill="#000000" font-family="sans-serif" font-size="11" lengthAdjust="spacing" textLength="14.8833" x="1183.1777" y="652.6816">No</text><text fill="#000000" font-family="sans-serif" font-size="11" lengthAdjust="spacing" textLength="140.7979" x="1108.7788" y="634.2041">Category reference exists?</text><text fill="#000000" font-family="sans-serif" font-size="11" lengthAdjust="spacing" textLength="18.5894" x="1261.5767" y="627.7266">Yes</text><polygon fill="#F1F1F1" points="1179.1777,720.6572,1191.1777,732.6572,1179.1777,744.6572,1167.1777,732.6572,1179.1777,720.6572" style="stroke:#181818;stroke-width:0.5;stroke-linejoin:miter;stroke-miterlimit:10;"/><rect fill="#F1F1F1" height="34.1328" rx="12.5" ry="12.5" style="stroke:#181818;stroke-width:0.5;" width="237.4238" x="1060.4658" y="813.1348"/><text fill="#000000" font-family="sans-serif" font-size="12" lengthAdjust="spacing" textLength="217.4238" x="1070.4658" y="834.7363">Create organization vendor reference</text><polygon fill="#F1F1F1" points="1113.5107,764.6572,1244.8447,764.6572,1256.8447,776.6572,1244.8447,788.6572,1113.5107,788.6572,1101.5107,776.6572,1113.5107,764.6572" style="stroke:#181818;stroke-width:0.5;stroke-linejoin:miter;stroke-miterlimit:10;"/><text fill="#000000" font-family="sans-serif" font-size="11" lengthAdjust="spacing" textLength="14.8833" x="1183.1777" y="799.292">No</text><text fill="#000000" font-family="sans-serif" font-size="11" lengthAdjust="spacing" textLength="131.334" x="1113.5107" y="780.8145">Vendor reference exists?</text><text fill="#000000" font-family="sans-serif" font-size="11" lengthAdjust="spacing" textLength="18.5894" x="1256.8447" y="774.3369">Yes</text><polygon fill="#F1F1F1" points="1179.1777,867.2676,1191.1777,879.2676,1179.1777,891.2676,1167.1777,879.2676,1179.1777,867.2676" style="stroke:#181818;stroke-width:0.5;stroke-linejoin:miter;stroke-miterlimit:10;"/><rect fill="#F1F1F1" height="34.1328" rx="12.5" ry="12.5" style="stroke:#181818;stroke-width:0.5;" width="292.8359" x="1032.7598" y="911.2676"/><text fill="#000000" font-family="sans-serif" font-size="12" lengthAdjust="spacing" textLength="272.8359" x="1042.7598" y="932.8691">Create or update variants from master variants</text><rect fill="#F1F1F1" height="34.1328" rx="12.5" ry="12.5" style="stroke:#181818;stroke-width:0.5;" width="270.8047" x="1043.7754" y="965.4004"/><text fill="#000000" font-family="sans-serif" font-size="12" lengthAdjust="spacing" textLength="250.8047" x="1053.7754" y="987.002">Create or update prices from master prices</text><rect fill="#F1F1F1" height="34.1328" rx="12.5" ry="12.5" style="stroke:#181818;stroke-width:0.5;" width="195.7754" x="1081.29" y="1068.0107"/><text fill="#000000" font-family="sans-serif" font-size="12" lengthAdjust="spacing" textLength="175.7754" x="1091.29" y="1089.6123">Create bundle item references</text><polygon fill="#F1F1F1" points="1110.0491,1019.5332,1248.3064,1019.5332,1260.3064,1031.5332,1248.3064,1043.5332,1110.0491,1043.5332,1098.0491,1031.5332,1110.0491,1019.5332" style="stroke:#181818;stroke-width:0.5;stroke-linejoin:miter;stroke-miterlimit:10;"/><text fill="#000000" font-family="sans-serif" font-size="11" lengthAdjust="spacing" textLength="18.5894" x="1183.1777" y="1054.168">Yes</text><text fill="#000000" font-family="sans-serif" font-size="11" lengthAdjust="spacing" textLength="138.2573" x="1110.0491" y="1035.6904">Master product is bundle?</text><text fill="#000000" font-family="sans-serif" font-size="11" lengthAdjust="spacing" textLength="14.8833" x="1260.3064" y="1029.2129">No</text><polygon fill="#F1F1F1" points="1179.1777,1122.1436,1191.1777,1134.1436,1179.1777,1146.1436,1167.1777,1134.1436,1179.1777,1122.1436" style="stroke:#181818;stroke-width:0.5;stroke-linejoin:miter;stroke-miterlimit:10;"/><rect fill="#F1F1F1" height="34.1328" rx="12.5" ry="12.5" style="stroke:#181818;stroke-width:0.5;" width="239.5156" x="1059.4199" y="1166.1436"/><text fill="#000000" font-family="sans-serif" font-size="12" lengthAdjust="spacing" textLength="219.5156" x="1069.4199" y="1187.7451">Initialize stock records when required</text><rect fill="#F1F1F1" height="34.1328" rx="12.5" ry="12.5" style="stroke:#181818;stroke-width:0.5;" width="201.7754" x="1078.29" y="1274.4092"/><text fill="#000000" font-family="sans-serif" font-size="12" lengthAdjust="spacing" textLength="181.7754" x="1088.29" y="1296.0107">Return imported product result</text><line style="stroke:#000000;stroke-width:1.5;" x1="923.9492" x2="923.9492" y1="54.7852" y2="1404.6748"/><rect fill="#F1F1F1" height="34.1328" rx="12.5" ry="12.5" style="stroke:#181818;stroke-width:0.5;" width="248.1875" x="1467.0352" y="1220.2764"/><text fill="#000000" font-family="sans-serif" font-size="12" lengthAdjust="spacing" textLength="228.1875" x="1477.0352" y="1241.8779">Persist organization-local product data</text><line style="stroke:#000000;stroke-width:1.5;" x1="1461.0352" x2="1461.0352" y1="54.7852" y2="1404.6748"/><line style="stroke:#000000;stroke-width:1.5;" x1="1719.2227" x2="1719.2227" y1="54.7852" y2="1404.6748"/><line style="stroke:#181818;stroke-width:1;" x1="156.5566" x2="156.5566" y1="100.9844" y2="120.9844"/><polygon fill="#181818" points="152.5566,110.9844,156.5566,120.9844,160.5566,110.9844,156.5566,114.9844" style="stroke:#181818;stroke-width:1;stroke-linejoin:miter;stroke-miterlimit:10;"/><line style="stroke:#181818;stroke-width:1;" x1="156.5566" x2="156.5566" y1="155.1172" y2="175.1172"/><polygon fill="#181818" points="152.5566,165.1172,156.5566,175.1172,160.5566,165.1172,156.5566,169.1172" style="stroke:#181818;stroke-width:1;stroke-linejoin:miter;stroke-miterlimit:10;"/><line style="stroke:#181818;stroke-width:1;" x1="156.5566" x2="156.5566" y1="1362.6748" y2="1382.6748"/><polygon fill="#181818" points="152.5566,1372.6748,156.5566,1382.6748,160.5566,1372.6748,156.5566,1376.6748" style="stroke:#181818;stroke-width:1;stroke-linejoin:miter;stroke-miterlimit:10;"/><line style="stroke:#181818;stroke-width:1;" x1="707.0186" x2="707.0186" y1="317.5156" y2="337.5156"/><polygon fill="#181818" points="703.0186,327.5156,707.0186,337.5156,711.0186,327.5156,707.0186,331.5156" style="stroke:#181818;stroke-width:1;stroke-linejoin:miter;stroke-miterlimit:10;"/><line style="stroke:#181818;stroke-width:1;" x1="1057.3738" x2="1042.4063" y1="511.9141" y2="511.9141"/><line style="stroke:#181818;stroke-width:1;" x1="1042.4063" x2="1042.4063" y1="511.9141" y2="533.9141"/><polygon fill="#181818" points="1038.4063,523.9141,1042.4063,533.9141,1046.4063,523.9141,1042.4063,527.9141" style="stroke:#181818;stroke-width:1;stroke-linejoin:miter;stroke-miterlimit:10;"/><line style="stroke:#181818;stroke-width:1;" x1="1300.9817" x2="1315.9492" y1="511.9141" y2="511.9141"/><line style="stroke:#181818;stroke-width:1;" x1="1315.9492" x2="1315.9492" y1="511.9141" y2="533.9141"/><polygon fill="#181818" points="1311.9492,523.9141,1315.9492,533.9141,1319.9492,523.9141,1315.9492,527.9141" style="stroke:#181818;stroke-width:1;stroke-linejoin:miter;stroke-miterlimit:10;"/><line style="stroke:#181818;stroke-width:1;" x1="1042.4063" x2="1042.4063" y1="568.0469" y2="586.0469"/><line style="stroke:#181818;stroke-width:1;" x1="1042.4063" x2="1167.1777" y1="586.0469" y2="586.0469"/><polygon fill="#181818" points="1157.1777,582.0469,1167.1777,586.0469,1157.1777,590.0469,1161.1777,586.0469" style="stroke:#181818;stroke-width:1;stroke-linejoin:miter;stroke-miterlimit:10;"/><line style="stroke:#181818;stroke-width:1;" x1="1315.9492" x2="1315.9492" y1="568.0469" y2="586.0469"/><line style="stroke:#181818;stroke-width:1;" x1="1315.9492" x2="1191.1777" y1="586.0469" y2="586.0469"/><polygon fill="#181818" points="1201.1777,582.0469,1191.1777,586.0469,1201.1777,590.0469,1197.1777,586.0469" style="stroke:#181818;stroke-width:1;stroke-linejoin:miter;stroke-miterlimit:10;"/><line style="stroke:#181818;stroke-width:1;" x1="1179.1777" x2="1179.1777" y1="479.9141" y2="499.9141"/><polygon fill="#181818" points="1175.1777,489.9141,1179.1777,499.9141,1183.1777,489.9141,1179.1777,493.9141" style="stroke:#181818;stroke-width:1;stroke-linejoin:miter;stroke-miterlimit:10;"/><line style="stroke:#181818;stroke-width:1;" x1="1179.1777" x2="1179.1777" y1="642.0469" y2="666.5244"/><polygon fill="#181818" points="1175.1777,656.5244,1179.1777,666.5244,1183.1777,656.5244,1179.1777,660.5244" style="stroke:#181818;stroke-width:1;stroke-linejoin:miter;stroke-miterlimit:10;"/><line style="stroke:#181818;stroke-width:1;" x1="1261.5767" x2="1312.791" y1="630.0469" y2="630.0469"/><polygon fill="#181818" points="1308.791,673.5908,1312.791,683.5908,1316.791,673.5908,1312.791,677.5908" style="stroke:#181818;stroke-width:1;stroke-linejoin:miter;stroke-miterlimit:10;"/><line style="stroke:#181818;stroke-width:1;" x1="1312.791" x2="1312.791" y1="630.0469" y2="732.6572"/><line style="stroke:#181818;stroke-width:1;" x1="1312.791" x2="1191.1777" y1="732.6572" y2="732.6572"/><polygon fill="#181818" points="1201.1777,728.6572,1191.1777,732.6572,1201.1777,736.6572,1197.1777,732.6572" style="stroke:#181818;stroke-width:1;stroke-linejoin:miter;stroke-miterlimit:10;"/><line style="stroke:#181818;stroke-width:1;" x1="1179.1777" x2="1179.1777" y1="700.6572" y2="720.6572"/><polygon fill="#181818" points="1175.1777,710.6572,1179.1777,720.6572,1183.1777,710.6572,1179.1777,714.6572" style="stroke:#181818;stroke-width:1;stroke-linejoin:miter;stroke-miterlimit:10;"/><line style="stroke:#181818;stroke-width:1;" x1="1179.1777" x2="1179.1777" y1="598.0469" y2="618.0469"/><polygon fill="#181818" points="1175.1777,608.0469,1179.1777,618.0469,1183.1777,608.0469,1179.1777,612.0469" style="stroke:#181818;stroke-width:1;stroke-linejoin:miter;stroke-miterlimit:10;"/><line style="stroke:#181818;stroke-width:1;" x1="1179.1777" x2="1179.1777" y1="788.6572" y2="813.1348"/><polygon fill="#181818" points="1175.1777,803.1348,1179.1777,813.1348,1183.1777,803.1348,1179.1777,807.1348" style="stroke:#181818;stroke-width:1;stroke-linejoin:miter;stroke-miterlimit:10;"/><line style="stroke:#181818;stroke-width:1;" x1="1256.8447" x2="1307.8896" y1="776.6572" y2="776.6572"/><polygon fill="#181818" points="1303.8896,820.2012,1307.8896,830.2012,1311.8896,820.2012,1307.8896,824.2012" style="stroke:#181818;stroke-width:1;stroke-linejoin:miter;stroke-miterlimit:10;"/><line style="stroke:#181818;stroke-width:1;" x1="1307.8896" x2="1307.8896" y1="776.6572" y2="879.2676"/><line style="stroke:#181818;stroke-width:1;" x1="1307.8896" x2="1191.1777" y1="879.2676" y2="879.2676"/><polygon fill="#181818" points="1201.1777,875.2676,1191.1777,879.2676,1201.1777,883.2676,1197.1777,879.2676" style="stroke:#181818;stroke-width:1;stroke-linejoin:miter;stroke-miterlimit:10;"/><line style="stroke:#181818;stroke-width:1;" x1="1179.1777" x2="1179.1777" y1="847.2676" y2="867.2676"/><polygon fill="#181818" points="1175.1777,857.2676,1179.1777,867.2676,1183.1777,857.2676,1179.1777,861.2676" style="stroke:#181818;stroke-width:1;stroke-linejoin:miter;stroke-miterlimit:10;"/><line style="stroke:#181818;stroke-width:1;" x1="1179.1777" x2="1179.1777" y1="744.6572" y2="764.6572"/><polygon fill="#181818" points="1175.1777,754.6572,1179.1777,764.6572,1183.1777,754.6572,1179.1777,758.6572" style="stroke:#181818;stroke-width:1;stroke-linejoin:miter;stroke-miterlimit:10;"/><line style="stroke:#181818;stroke-width:1;" x1="1179.1777" x2="1179.1777" y1="891.2676" y2="911.2676"/><polygon fill="#181818" points="1175.1777,901.2676,1179.1777,911.2676,1183.1777,901.2676,1179.1777,905.2676" style="stroke:#181818;stroke-width:1;stroke-linejoin:miter;stroke-miterlimit:10;"/><line style="stroke:#181818;stroke-width:1;" x1="1179.1777" x2="1179.1777" y1="945.4004" y2="965.4004"/><polygon fill="#181818" points="1175.1777,955.4004,1179.1777,965.4004,1183.1777,955.4004,1179.1777,959.4004" style="stroke:#181818;stroke-width:1;stroke-linejoin:miter;stroke-miterlimit:10;"/><line style="stroke:#181818;stroke-width:1;" x1="1179.1777" x2="1179.1777" y1="1043.5332" y2="1068.0107"/><polygon fill="#181818" points="1175.1777,1058.0107,1179.1777,1068.0107,1183.1777,1058.0107,1179.1777,1062.0107" style="stroke:#181818;stroke-width:1;stroke-linejoin:miter;stroke-miterlimit:10;"/><line style="stroke:#181818;stroke-width:1;" x1="1260.3064" x2="1287.0654" y1="1031.5332" y2="1031.5332"/><polygon fill="#181818" points="1283.0654,1075.0771,1287.0654,1085.0771,1291.0654,1075.0771,1287.0654,1079.0771" style="stroke:#181818;stroke-width:1;stroke-linejoin:miter;stroke-miterlimit:10;"/><line style="stroke:#181818;stroke-width:1;" x1="1287.0654" x2="1287.0654" y1="1031.5332" y2="1134.1436"/><line style="stroke:#181818;stroke-width:1;" x1="1287.0654" x2="1191.1777" y1="1134.1436" y2="1134.1436"/><polygon fill="#181818" points="1201.1777,1130.1436,1191.1777,1134.1436,1201.1777,1138.1436,1197.1777,1134.1436" style="stroke:#181818;stroke-width:1;stroke-linejoin:miter;stroke-miterlimit:10;"/><line style="stroke:#181818;stroke-width:1;" x1="1179.1777" x2="1179.1777" y1="1102.1436" y2="1122.1436"/><polygon fill="#181818" points="1175.1777,1112.1436,1179.1777,1122.1436,1183.1777,1112.1436,1179.1777,1116.1436" style="stroke:#181818;stroke-width:1;stroke-linejoin:miter;stroke-miterlimit:10;"/><line style="stroke:#181818;stroke-width:1;" x1="1179.1777" x2="1179.1777" y1="999.5332" y2="1019.5332"/><polygon fill="#181818" points="1175.1777,1009.5332,1179.1777,1019.5332,1183.1777,1009.5332,1179.1777,1013.5332" style="stroke:#181818;stroke-width:1;stroke-linejoin:miter;stroke-miterlimit:10;"/><line style="stroke:#181818;stroke-width:1;" x1="1179.1777" x2="1179.1777" y1="1146.1436" y2="1166.1436"/><polygon fill="#181818" points="1175.1777,1156.1436,1179.1777,1166.1436,1183.1777,1156.1436,1179.1777,1160.1436" style="stroke:#181818;stroke-width:1;stroke-linejoin:miter;stroke-miterlimit:10;"/><line style="stroke:#181818;stroke-width:1;" x1="156.5566" x2="156.5566" y1="209.25" y2="214.25"/><line style="stroke:#181818;stroke-width:1;" x1="156.5566" x2="390.6006" y1="214.25" y2="214.25"/><line style="stroke:#181818;stroke-width:1;" x1="390.6006" x2="390.6006" y1="214.25" y2="229.25"/><polygon fill="#181818" points="386.6006,219.25,390.6006,229.25,394.6006,219.25,390.6006,223.25" style="stroke:#181818;stroke-width:1;stroke-linejoin:miter;stroke-miterlimit:10;"/><line style="stroke:#181818;stroke-width:1;" x1="390.6006" x2="390.6006" y1="263.3828" y2="268.3828"/><line style="stroke:#181818;stroke-width:1;" x1="390.6006" x2="707.0186" y1="268.3828" y2="268.3828"/><line style="stroke:#181818;stroke-width:1;" x1="707.0186" x2="707.0186" y1="268.3828" y2="283.3828"/><polygon fill="#181818" points="703.0186,273.3828,707.0186,283.3828,711.0186,273.3828,707.0186,277.3828" style="stroke:#181818;stroke-width:1;stroke-linejoin:miter;stroke-miterlimit:10;"/><line style="stroke:#181818;stroke-width:1;" x1="707.0186" x2="707.0186" y1="371.6484" y2="376.6484"/><line style="stroke:#181818;stroke-width:1;" x1="707.0186" x2="156.5566" y1="376.6484" y2="376.6484"/><line style="stroke:#181818;stroke-width:1;" x1="156.5566" x2="156.5566" y1="376.6484" y2="391.6484"/><polygon fill="#181818" points="152.5566,381.6484,156.5566,391.6484,160.5566,381.6484,156.5566,385.6484" style="stroke:#181818;stroke-width:1;stroke-linejoin:miter;stroke-miterlimit:10;"/><line style="stroke:#181818;stroke-width:1;" x1="156.5566" x2="156.5566" y1="425.7813" y2="430.7813"/><line style="stroke:#181818;stroke-width:1;" x1="156.5566" x2="1179.1777" y1="430.7813" y2="430.7813"/><line style="stroke:#181818;stroke-width:1;" x1="1179.1777" x2="1179.1777" y1="430.7813" y2="445.7813"/><polygon fill="#181818" points="1175.1777,435.7813,1179.1777,445.7813,1183.1777,435.7813,1179.1777,439.7813" style="stroke:#181818;stroke-width:1;stroke-linejoin:miter;stroke-miterlimit:10;"/><line style="stroke:#181818;stroke-width:1;" x1="1179.1777" x2="1179.1777" y1="1200.2764" y2="1205.2764"/><line style="stroke:#181818;stroke-width:1;" x1="1179.1777" x2="1591.1289" y1="1205.2764" y2="1205.2764"/><line style="stroke:#181818;stroke-width:1;" x1="1591.1289" x2="1591.1289" y1="1205.2764" y2="1220.2764"/><polygon fill="#181818" points="1587.1289,1210.2764,1591.1289,1220.2764,1595.1289,1210.2764,1591.1289,1214.2764" style="stroke:#181818;stroke-width:1;stroke-linejoin:miter;stroke-miterlimit:10;"/><line style="stroke:#181818;stroke-width:1;" x1="1591.1289" x2="1591.1289" y1="1254.4092" y2="1259.4092"/><line style="stroke:#181818;stroke-width:1;" x1="1591.1289" x2="1179.1777" y1="1259.4092" y2="1259.4092"/><line style="stroke:#181818;stroke-width:1;" x1="1179.1777" x2="1179.1777" y1="1259.4092" y2="1274.4092"/><polygon fill="#181818" points="1175.1777,1264.4092,1179.1777,1274.4092,1183.1777,1264.4092,1179.1777,1268.4092" style="stroke:#181818;stroke-width:1;stroke-linejoin:miter;stroke-miterlimit:10;"/><line style="stroke:#181818;stroke-width:1;" x1="1179.1777" x2="1179.1777" y1="1308.542" y2="1313.542"/><line style="stroke:#181818;stroke-width:1;" x1="1179.1777" x2="156.5566" y1="1313.542" y2="1313.542"/><line style="stroke:#181818;stroke-width:1;" x1="156.5566" x2="156.5566" y1="1313.542" y2="1328.542"/><polygon fill="#181818" points="152.5566,1318.542,156.5566,1328.542,160.5566,1318.542,156.5566,1322.542" style="stroke:#181818;stroke-width:1;stroke-linejoin:miter;stroke-miterlimit:10;"/><text fill="#000000" font-family="sans-serif" font-size="18" lengthAdjust="spacing" textLength="101.6631" x="104.7251" y="72.1875">Admin User</text><text fill="#000000" font-family="sans-serif" font-size="18" lengthAdjust="spacing" textLength="141.126" x="319.0376" y="72.1875">Admin Frontend</text><text fill="#000000" font-family="sans-serif" font-size="18" lengthAdjust="spacing" textLength="196.1016" x="607.9678" y="72.1875">Backend /master-data</text><text fill="#000000" font-family="sans-serif" font-size="18" lengthAdjust="spacing" textLength="295.3301" x="1044.8271" y="72.1875">Backend /admin or /super-admin</text><text fill="#000000" font-family="sans-serif" font-size="18" lengthAdjust="spacing" textLength="80.5693" x="1549.8442" y="72.1875">Database</text><?plantuml-src dLHDRzim3BtxL_2O0Ybojm_3bc50W7Kjkgt0Zef49q9joQFef2douqVBbXCdmGRiPijy7oIVp9OhX0SL60a-ArQmgXjF33yyFD96EVkks7e7J-HDgpbasV6ZgQs3dm7fc0LMn5d-sA23fYy1spDu0atOeuCyeIko_3igqjj5m0gbikvrjMBSU3fqa86a67M-a7UCpXop_1b_jnX6cEdi4cfF9dJrdvH-bK9OzD_lk-yHfSobqZpfp66do2h7tOdLAEz2uMaEwzOP6St8BppSahGIhQCvTr5SJ2LVUbTQgjCeh6ClpPt6ER6h8b9wNuIs4T_nNKXUL6M57IT8qDqutcH0jeJPi1LGbKpQ70OzCRS-YFCI2Pt6bVbm1xoL3Sr-ORZB0FAlNcQ2RpQmTPif_xW0h0B2x9kFW6MtIRnP2NlBstCrWJfZoomwNARTZWMzRXWz_KL1Nu6JhTZ8cSnBtDf_YUmkeBSaJa1ecxYJ8JO1Il9roa8wB6u0OhocvVrHqNVmaCw6InI615xjRc0UycaPwvFtSBwsv7tbB5l9qZj2OAzVKwPXt_6IN2fBQBf8TZ-0jGeeuNj22ZB1oQZkAwzLDLfCoVzda8URCuOp4H26jkAho_ECEulxqoJSLIXKvJU5_7jyymS0?></g></svg>