<svg xmlns="http://www.w3.org/2000/svg" xmlns:xlink="http://www.w3.org/1999/xlink" contentStyleType="text/css" data-diagram-type="ACTIVITY" height="1912px" preserveAspectRatio="none" style="width:1070px;height:1912px;background:#FFFFFF;" version="1.1" viewBox="0 0 1070 1912" width="1070px" zoomAndPan="magnify"><?plantuml 1.2026.6?><defs/><g><g class="title" data-source-line="1"><text fill="#000000" font-family="sans-serif" font-size="14" font-weight="700" lengthAdjust="spacing" textLength="159.5098" x="454.7222" y="33.5352">POS Checkout Activity</text></g><rect fill="none" height="21.1992" style="stroke:none;stroke-width:1;" width="1023.9541" x="20" y="54.7852"/><ellipse cx="240.229" cy="90.9844" fill="#222222" rx="10" ry="10" style="stroke:#222222;stroke-width:1;"/><rect fill="#F1F1F1" height="34.1328" rx="12.5" ry="12.5" style="stroke:#181818;stroke-width:0.5;" width="107.5508" x="186.4536" y="120.9844"/><text fill="#000000" font-family="sans-serif" font-size="12" lengthAdjust="spacing" textLength="87.5508" x="196.4536" y="142.5859">Open checkout</text><rect fill="#F1F1F1" height="34.1328" rx="12.5" ry="12.5" style="stroke:#181818;stroke-width:0.5;" width="200.0586" x="140.1997" y="219.1172"/><text fill="#000000" font-family="sans-serif" font-size="12" lengthAdjust="spacing" textLength="180.0586" x="150.1997" y="240.7188">Scan barcode or select product</text><polygon fill="#F1F1F1" points="240.229,175.1172,252.229,187.1172,240.229,199.1172,228.229,187.1172,240.229,175.1172" style="stroke:#181818;stroke-width:0.5;stroke-linejoin:miter;stroke-miterlimit:10;"/><polygon fill="#F1F1F1" points="195.2327,563.6484,285.2253,563.6484,297.2253,575.6484,285.2253,587.6484,195.2327,587.6484,183.2327,575.6484,195.2327,563.6484" style="stroke:#181818;stroke-width:0.5;stroke-linejoin:miter;stroke-miterlimit:10;"/><text fill="#000000" font-family="sans-serif" font-size="11" lengthAdjust="spacing" textLength="89.9927" x="195.2327" y="579.8057">Add more items?</text><text fill="#000000" font-family="sans-serif" font-size="11" lengthAdjust="spacing" textLength="18.5894" x="297.2253" y="573.3281">Yes</text><rect fill="#F1F1F1" height="34.1328" rx="12.5" ry="12.5" style="stroke:#181818;stroke-width:0.5;" width="117.1309" x="181.6636" y="786.2588"/><text fill="#000000" font-family="sans-serif" font-size="12" lengthAdjust="spacing" textLength="97.1309" x="191.6636" y="807.8604">Choose discount</text><polygon fill="#F1F1F1" points="198.0525,737.7813,282.4055,737.7813,294.4055,749.7813,282.4055,761.7813,198.0525,761.7813,186.0525,749.7813,198.0525,737.7813" style="stroke:#181818;stroke-width:0.5;stroke-linejoin:miter;stroke-miterlimit:10;"/><text fill="#000000" font-family="sans-serif" font-size="11" lengthAdjust="spacing" textLength="18.5894" x="244.229" y="772.416">Yes</text><text fill="#000000" font-family="sans-serif" font-size="11" lengthAdjust="spacing" textLength="84.353" x="198.0525" y="753.9385">Apply discount?</text><text fill="#000000" font-family="sans-serif" font-size="11" lengthAdjust="spacing" textLength="14.8833" x="171.1692" y="747.4609">No</text><polygon fill="#F1F1F1" points="240.229,909.5244,252.229,921.5244,240.229,933.5244,228.229,921.5244,240.229,909.5244" style="stroke:#181818;stroke-width:0.5;stroke-linejoin:miter;stroke-miterlimit:10;"/><rect fill="#F1F1F1" height="34.1328" rx="12.5" ry="12.5" style="stroke:#181818;stroke-width:0.5;" width="156.5527" x="161.9526" y="953.5244"/><text fill="#000000" font-family="sans-serif" font-size="12" lengthAdjust="spacing" textLength="136.5527" x="171.9526" y="975.126">Select payment method</text><rect fill="#F1F1F1" height="34.1328" rx="12.5" ry="12.5" style="stroke:#181818;stroke-width:0.5;" width="121.1855" x="179.6362" y="1007.6572"/><text fill="#000000" font-family="sans-serif" font-size="12" lengthAdjust="spacing" textLength="101.1855" x="189.6362" y="1029.2588">Confirm payment</text><rect fill="#F1F1F1" height="34.1328" rx="12.5" ry="12.5" style="stroke:#181818;stroke-width:0.5;" width="156.5527" x="53" y="1360.666"/><text fill="#000000" font-family="sans-serif" font-size="12" lengthAdjust="spacing" textLength="136.5527" x="63" y="1382.2676">Select payment method</text><polygon fill="#F1F1F1" points="90.4507,1312.1885,172.1021,1312.1885,184.1021,1324.1885,172.1021,1336.1885,90.4507,1336.1885,78.4507,1324.1885,90.4507,1312.1885" style="stroke:#181818;stroke-width:0.5;stroke-linejoin:miter;stroke-miterlimit:10;"/><text fill="#000000" font-family="sans-serif" font-size="11" lengthAdjust="spacing" textLength="18.5894" x="135.2764" y="1346.8232">Yes</text><text fill="#000000" font-family="sans-serif" font-size="11" lengthAdjust="spacing" textLength="81.6514" x="90.4507" y="1328.3457">Retry payment?</text><text fill="#000000" font-family="sans-serif" font-size="11" lengthAdjust="spacing" textLength="14.8833" x="184.1021" y="1321.8682">No</text><rect fill="#F1F1F1" height="34.1328" rx="12.5" ry="12.5" style="stroke:#181818;stroke-width:0.5;" width="140.7383" x="169.8599" y="1761.4629"/><text fill="#000000" font-family="sans-serif" font-size="12" lengthAdjust="spacing" textLength="120.7383" x="179.8599" y="1783.0645">Print or show receipt</text><rect fill="#F1F1F1" height="34.1328" rx="12.5" ry="12.5" style="stroke:#181818;stroke-width:0.5;" width="132.3008" x="174.0786" y="1815.5957"/><text fill="#000000" font-family="sans-serif" font-size="12" lengthAdjust="spacing" textLength="112.3008" x="184.0786" y="1837.1973">Complete checkout</text><ellipse cx="240.229" cy="1880.7285" fill="none" rx="11" ry="11" style="stroke:#222222;stroke-width:1;"/><ellipse cx="240.229" cy="1880.7285" fill="#222222" rx="6" ry="6" style="stroke:#222222;stroke-width:1;"/><line style="stroke:#000000;stroke-width:1.5;" x1="20" x2="20" y1="54.7852" y2="1891.7285"/><rect fill="#F1F1F1" height="34.1328" rx="12.5" ry="12.5" style="stroke:#181818;stroke-width:0.5;" width="203.3223" x="613.4932" y="273.25"/><text fill="#000000" font-family="sans-serif" font-size="12" lengthAdjust="spacing" textLength="183.3223" x="623.4932" y="294.8516">Find product, variant, and price</text><polygon fill="#F1F1F1" points="667.4214,327.3828,762.8872,327.3828,774.8872,339.3828,762.8872,351.3828,667.4214,351.3828,655.4214,339.3828,667.4214,327.3828" style="stroke:#181818;stroke-width:0.5;stroke-linejoin:miter;stroke-miterlimit:10;"/><text fill="#000000" font-family="sans-serif" font-size="11" lengthAdjust="spacing" textLength="95.4658" x="667.4214" y="343.54">Product available?</text><text fill="#000000" font-family="sans-serif" font-size="11" lengthAdjust="spacing" textLength="18.5894" x="636.832" y="337.0625">Yes</text><text fill="#000000" font-family="sans-serif" font-size="11" lengthAdjust="spacing" textLength="14.8833" x="774.8872" y="337.0625">No</text><rect fill="#F1F1F1" height="34.1328" rx="12.5" ry="12.5" style="stroke:#181818;stroke-width:0.5;" width="121.4082" x="535.6208" y="361.3828"/><text fill="#000000" font-family="sans-serif" font-size="12" lengthAdjust="spacing" textLength="101.4082" x="545.6208" y="382.9844">Check local stock</text><polygon fill="#F1F1F1" points="554.5808,415.5156,638.0691,415.5156,650.0691,427.5156,638.0691,439.5156,554.5808,439.5156,542.5808,427.5156,554.5808,415.5156" style="stroke:#181818;stroke-width:0.5;stroke-linejoin:miter;stroke-miterlimit:10;"/><text fill="#000000" font-family="sans-serif" font-size="11" lengthAdjust="spacing" textLength="83.4883" x="554.5808" y="431.6729">Stock available?</text><text fill="#000000" font-family="sans-serif" font-size="11" lengthAdjust="spacing" textLength="18.5894" x="523.9915" y="425.1953">Yes</text><text fill="#000000" font-family="sans-serif" font-size="11" lengthAdjust="spacing" textLength="14.8833" x="650.0691" y="425.1953">No</text><rect fill="#F1F1F1" height="34.1328" rx="12.5" ry="12.5" style="stroke:#181818;stroke-width:0.5;" width="114.6523" x="470.8245" y="449.5156"/><text fill="#000000" font-family="sans-serif" font-size="12" lengthAdjust="spacing" textLength="94.6523" x="480.8245" y="471.1172">Add item to cart</text><rect fill="#F1F1F1" height="34.1328" rx="12.5" ry="12.5" style="stroke:#181818;stroke-width:0.5;" width="118.0449" x="605.4768" y="449.5156"/><text fill="#000000" font-family="sans-serif" font-size="12" lengthAdjust="spacing" textLength="98.0449" x="615.4768" y="471.1172">Show stock error</text><polygon fill="#F1F1F1" points="596.325,489.6484,608.325,501.6484,596.325,513.6484,584.325,501.6484,596.325,489.6484" style="stroke:#181818;stroke-width:0.5;stroke-linejoin:miter;stroke-miterlimit:10;"/><rect fill="#F1F1F1" height="34.1328" rx="12.5" ry="12.5" style="stroke:#181818;stroke-width:0.5;" width="160.9238" x="753.5217" y="361.3828"/><text fill="#000000" font-family="sans-serif" font-size="12" lengthAdjust="spacing" textLength="140.9238" x="763.5217" y="382.9844">Show product not found</text><polygon fill="#F1F1F1" points="715.1543,519.6484,727.1543,531.6484,715.1543,543.6484,703.1543,531.6484,715.1543,519.6484" style="stroke:#181818;stroke-width:0.5;stroke-linejoin:miter;stroke-miterlimit:10;"/><polygon fill="#F1F1F1" points="674.2991,607.6484,756.0095,607.6484,768.0095,619.6484,756.0095,631.6484,674.2991,631.6484,662.2991,619.6484,674.2991,607.6484" style="stroke:#181818;stroke-width:0.5;stroke-linejoin:miter;stroke-miterlimit:10;"/><text fill="#000000" font-family="sans-serif" font-size="11" lengthAdjust="spacing" textLength="81.7104" x="674.2991" y="623.8057">Cart has items?</text><text fill="#000000" font-family="sans-serif" font-size="11" lengthAdjust="spacing" textLength="18.5894" x="643.7097" y="617.3281">Yes</text><text fill="#000000" font-family="sans-serif" font-size="11" lengthAdjust="spacing" textLength="14.8833" x="768.0095" y="617.3281">No</text><rect fill="#F1F1F1" height="34.1328" rx="12.5" ry="12.5" style="stroke:#181818;stroke-width:0.5;" width="315.1426" x="429.9932" y="641.6484"/><text fill="#000000" font-family="sans-serif" font-size="12" lengthAdjust="spacing" textLength="295.1426" x="439.9932" y="663.25">Calculate subtotal, tax, discount, and final amount</text><rect fill="#F1F1F1" height="34.1328" rx="12.5" ry="12.5" style="stroke:#181818;stroke-width:0.5;" width="155.2168" x="765.1357" y="641.6484"/><text fill="#000000" font-family="sans-serif" font-size="12" lengthAdjust="spacing" textLength="135.2168" x="775.1357" y="663.25">Cancel empty checkout</text><ellipse cx="842.7441" cy="706.7813" fill="none" rx="11" ry="11" style="stroke:#222222;stroke-width:1;"/><ellipse cx="842.7441" cy="706.7813" fill="#222222" rx="6" ry="6" style="stroke:#222222;stroke-width:1;"/><rect fill="#F1F1F1" height="34.1328" rx="12.5" ry="12.5" style="stroke:#181818;stroke-width:0.5;" width="162.9805" x="633.6641" y="855.3916"/><text fill="#000000" font-family="sans-serif" font-size="12" lengthAdjust="spacing" textLength="142.9805" x="643.6641" y="876.9932">Recalculate final amount</text><rect fill="#F1F1F1" height="34.1328" rx="12.5" ry="12.5" style="stroke:#181818;stroke-width:0.5;" width="191.9785" x="619.165" y="1061.79"/><text fill="#000000" font-family="sans-serif" font-size="12" lengthAdjust="spacing" textLength="171.9785" x="629.165" y="1083.3916">Create local payment attempt</text><polygon fill="#F1F1F1" points="620.282,1115.9229,810.0266,1115.9229,822.0266,1127.9229,810.0266,1139.9229,620.282,1139.9229,608.282,1127.9229,620.282,1115.9229" style="stroke:#181818;stroke-width:0.5;stroke-linejoin:miter;stroke-miterlimit:10;"/><text fill="#000000" font-family="sans-serif" font-size="11" lengthAdjust="spacing" textLength="189.7446" x="620.282" y="1132.0801">Payment method requires provider?</text><text fill="#000000" font-family="sans-serif" font-size="11" lengthAdjust="spacing" textLength="18.5894" x="589.6926" y="1125.6025">Yes</text><text fill="#000000" font-family="sans-serif" font-size="11" lengthAdjust="spacing" textLength="14.8833" x="822.0266" y="1125.6025">No</text><rect fill="#F1F1F1" height="34.1328" rx="12.5" ry="12.5" style="stroke:#181818;stroke-width:0.5;" width="204.207" x="409.1152" y="1159.9229"/><text fill="#000000" font-family="sans-serif" font-size="12" lengthAdjust="spacing" textLength="184.207" x="419.1152" y="1181.5244">Call payment provider endpoint</text><polygon fill="#F1F1F1" points="460.9722,1214.0557,561.4653,1214.0557,573.4653,1226.0557,561.4653,1238.0557,460.9722,1238.0557,448.9722,1226.0557,460.9722,1214.0557" style="stroke:#181818;stroke-width:0.5;stroke-linejoin:miter;stroke-miterlimit:10;"/><text fill="#000000" font-family="sans-serif" font-size="11" lengthAdjust="spacing" textLength="100.4932" x="460.9722" y="1230.2129">Provider approves?</text><text fill="#000000" font-family="sans-serif" font-size="11" lengthAdjust="spacing" textLength="18.5894" x="430.3828" y="1223.7354">Yes</text><text fill="#000000" font-family="sans-serif" font-size="11" lengthAdjust="spacing" textLength="14.8833" x="573.4653" y="1223.7354">No</text><rect fill="#F1F1F1" height="34.1328" rx="12.5" ry="12.5" style="stroke:#181818;stroke-width:0.5;" width="131.9551" x="350.2583" y="1258.0557"/><text fill="#000000" font-family="sans-serif" font-size="12" lengthAdjust="spacing" textLength="111.9551" x="360.2583" y="1279.6572">Mark payment paid</text><rect fill="#F1F1F1" height="34.1328" rx="12.5" ry="12.5" style="stroke:#181818;stroke-width:0.5;" width="145.4141" x="533.4946" y="1258.0557"/><text fill="#000000" font-family="sans-serif" font-size="12" lengthAdjust="spacing" textLength="125.4141" x="543.4946" y="1279.6572">Show payment failure</text><rect fill="#F1F1F1" height="34.1328" rx="12.5" ry="12.5" style="stroke:#181818;stroke-width:0.5;" width="187.9766" x="512.2134" y="1414.7988"/><text fill="#000000" font-family="sans-serif" font-size="12" lengthAdjust="spacing" textLength="167.9766" x="522.2134" y="1436.4004">Start a new payment attempt</text><ellipse cx="606.2017" cy="1479.9316" fill="none" rx="11" ry="11" style="stroke:#222222;stroke-width:1;"/><ellipse cx="606.2017" cy="1479.9316" fill="#222222" rx="6" ry="6" style="stroke:#222222;stroke-width:1;"/><ellipse cx="695.9106" cy="1324.1885" fill="none" rx="11" ry="11" style="stroke:#222222;stroke-width:1;"/><ellipse cx="695.9106" cy="1324.1885" fill="#222222" rx="6" ry="6" style="stroke:#222222;stroke-width:1;"/><rect fill="#F1F1F1" height="34.1328" rx="12.5" ry="12.5" style="stroke:#181818;stroke-width:0.5;" width="238.0332" x="800.0732" y="1159.9229"/><text fill="#000000" font-family="sans-serif" font-size="12" lengthAdjust="spacing" textLength="218.0332" x="810.0732" y="1181.5244">Record local cash or manual payment</text><polygon fill="#F1F1F1" points="715.1543,1500.9316,727.1543,1512.9316,715.1543,1524.9316,703.1543,1512.9316,715.1543,1500.9316" style="stroke:#181818;stroke-width:0.5;stroke-linejoin:miter;stroke-miterlimit:10;"/><rect fill="#F1F1F1" height="34.1328" rx="12.5" ry="12.5" style="stroke:#181818;stroke-width:0.5;" width="189.3359" x="620.4863" y="1544.9316"/><text fill="#000000" font-family="sans-serif" font-size="12" lengthAdjust="spacing" textLength="169.3359" x="630.4863" y="1566.5332">Create order and order items</text><rect fill="#F1F1F1" height="34.1328" rx="12.5" ry="12.5" style="stroke:#181818;stroke-width:0.5;" width="138.6582" x="645.8252" y="1599.0645"/><text fill="#000000" font-family="sans-serif" font-size="12" lengthAdjust="spacing" textLength="118.6582" x="655.8252" y="1620.666">Decrease local stock</text><rect fill="#F1F1F1" height="34.1328" rx="12.5" ry="12.5" style="stroke:#181818;stroke-width:0.5;" width="127.3203" x="651.4941" y="1653.1973"/><text fill="#000000" font-family="sans-serif" font-size="12" lengthAdjust="spacing" textLength="107.3203" x="661.4941" y="1674.7988">Write product logs</text><rect fill="#F1F1F1" height="34.1328" rx="12.5" ry="12.5" style="stroke:#181818;stroke-width:0.5;" width="122.7441" x="653.7822" y="1707.3301"/><text fill="#000000" font-family="sans-serif" font-size="12" lengthAdjust="spacing" textLength="102.7441" x="663.7822" y="1728.9316">Store receipt data</text><line style="stroke:#000000;stroke-width:1.5;" x1="344.2583" x2="344.2583" y1="54.7852" y2="1891.7285"/><line style="stroke:#000000;stroke-width:1.5;" x1="1042.1064" x2="1042.1064" y1="54.7852" y2="1891.7285"/><line style="stroke:#181818;stroke-width:1;" x1="240.229" x2="240.229" y1="100.9844" y2="120.9844"/><polygon fill="#181818" points="236.229,110.9844,240.229,120.9844,244.229,110.9844,240.229,114.9844" style="stroke:#181818;stroke-width:1;stroke-linejoin:miter;stroke-miterlimit:10;"/><line style="stroke:#181818;stroke-width:1;" x1="240.229" x2="240.229" y1="199.1172" y2="219.1172"/><polygon fill="#181818" points="236.229,209.1172,240.229,219.1172,244.229,209.1172,240.229,213.1172" style="stroke:#181818;stroke-width:1;stroke-linejoin:miter;stroke-miterlimit:10;"/><line style="stroke:#181818;stroke-width:1;" x1="183.2327" x2="39" y1="575.6484" y2="575.6484"/><polygon fill="#181818" points="35,383.8828,39,373.8828,43,383.8828,39,379.8828" style="stroke:#181818;stroke-width:1;stroke-linejoin:miter;stroke-miterlimit:10;"/><line style="stroke:#181818;stroke-width:1;" x1="39" x2="39" y1="187.1172" y2="575.6484"/><line style="stroke:#181818;stroke-width:1;" x1="39" x2="228.229" y1="187.1172" y2="187.1172"/><polygon fill="#181818" points="218.229,183.1172,228.229,187.1172,218.229,191.1172,222.229,187.1172" style="stroke:#181818;stroke-width:1;stroke-linejoin:miter;stroke-miterlimit:10;"/><line style="stroke:#181818;stroke-width:1;" x1="240.229" x2="240.229" y1="155.1172" y2="175.1172"/><polygon fill="#181818" points="236.229,165.1172,240.229,175.1172,244.229,165.1172,240.229,169.1172" style="stroke:#181818;stroke-width:1;stroke-linejoin:miter;stroke-miterlimit:10;"/><line style="stroke:#181818;stroke-width:1;" x1="240.229" x2="240.229" y1="761.7813" y2="786.2588"/><polygon fill="#181818" points="236.229,776.2588,240.229,786.2588,244.229,776.2588,240.229,780.2588" style="stroke:#181818;stroke-width:1;stroke-linejoin:miter;stroke-miterlimit:10;"/><line style="stroke:#181818;stroke-width:1;" x1="186.0525" x2="148.7388" y1="749.7813" y2="749.7813"/><polygon fill="#181818" points="144.7388,827.8916,148.7388,837.8916,152.7388,827.8916,148.7388,831.8916" style="stroke:#181818;stroke-width:1;stroke-linejoin:miter;stroke-miterlimit:10;"/><line style="stroke:#181818;stroke-width:1;" x1="148.7388" x2="148.7388" y1="749.7813" y2="921.5244"/><line style="stroke:#181818;stroke-width:1;" x1="148.7388" x2="228.229" y1="921.5244" y2="921.5244"/><polygon fill="#181818" points="218.229,917.5244,228.229,921.5244,218.229,925.5244,222.229,921.5244" style="stroke:#181818;stroke-width:1;stroke-linejoin:miter;stroke-miterlimit:10;"/><line style="stroke:#181818;stroke-width:1;" x1="240.229" x2="240.229" y1="933.5244" y2="953.5244"/><polygon fill="#181818" points="236.229,943.5244,240.229,953.5244,244.229,943.5244,240.229,947.5244" style="stroke:#181818;stroke-width:1;stroke-linejoin:miter;stroke-miterlimit:10;"/><line style="stroke:#181818;stroke-width:1;" x1="240.229" x2="240.229" y1="987.6572" y2="1007.6572"/><polygon fill="#181818" points="236.229,997.6572,240.229,1007.6572,244.229,997.6572,240.229,1001.6572" style="stroke:#181818;stroke-width:1;stroke-linejoin:miter;stroke-miterlimit:10;"/><line style="stroke:#181818;stroke-width:1;" x1="131.2764" x2="131.2764" y1="1336.1885" y2="1360.666"/><polygon fill="#181818" points="127.2764,1350.666,131.2764,1360.666,135.2764,1350.666,131.2764,1354.666" style="stroke:#181818;stroke-width:1;stroke-linejoin:miter;stroke-miterlimit:10;"/><line style="stroke:#181818;stroke-width:1;" x1="240.229" x2="240.229" y1="1795.5957" y2="1815.5957"/><polygon fill="#181818" points="236.229,1805.5957,240.229,1815.5957,244.229,1805.5957,240.229,1809.5957" style="stroke:#181818;stroke-width:1;stroke-linejoin:miter;stroke-miterlimit:10;"/><line style="stroke:#181818;stroke-width:1;" x1="240.229" x2="240.229" y1="1849.7285" y2="1869.7285"/><polygon fill="#181818" points="236.229,1859.7285,240.229,1869.7285,244.229,1859.7285,240.229,1863.7285" style="stroke:#181818;stroke-width:1;stroke-linejoin:miter;stroke-miterlimit:10;"/><line style="stroke:#181818;stroke-width:1;" x1="542.5808" x2="528.1506" y1="427.5156" y2="427.5156"/><line style="stroke:#181818;stroke-width:1;" x1="528.1506" x2="528.1506" y1="427.5156" y2="449.5156"/><polygon fill="#181818" points="524.1506,439.5156,528.1506,449.5156,532.1506,439.5156,528.1506,443.5156" style="stroke:#181818;stroke-width:1;stroke-linejoin:miter;stroke-miterlimit:10;"/><line style="stroke:#181818;stroke-width:1;" x1="650.0691" x2="664.4993" y1="427.5156" y2="427.5156"/><line style="stroke:#181818;stroke-width:1;" x1="664.4993" x2="664.4993" y1="427.5156" y2="449.5156"/><polygon fill="#181818" points="660.4993,439.5156,664.4993,449.5156,668.4993,439.5156,664.4993,443.5156" style="stroke:#181818;stroke-width:1;stroke-linejoin:miter;stroke-miterlimit:10;"/><line style="stroke:#181818;stroke-width:1;" x1="528.1506" x2="528.1506" y1="483.6484" y2="501.6484"/><line style="stroke:#181818;stroke-width:1;" x1="528.1506" x2="584.325" y1="501.6484" y2="501.6484"/><polygon fill="#181818" points="574.325,497.6484,584.325,501.6484,574.325,505.6484,578.325,501.6484" style="stroke:#181818;stroke-width:1;stroke-linejoin:miter;stroke-miterlimit:10;"/><line style="stroke:#181818;stroke-width:1;" x1="664.4993" x2="664.4993" y1="483.6484" y2="501.6484"/><line style="stroke:#181818;stroke-width:1;" x1="664.4993" x2="608.325" y1="501.6484" y2="501.6484"/><polygon fill="#181818" points="618.325,497.6484,608.325,501.6484,618.325,505.6484,614.325,501.6484" style="stroke:#181818;stroke-width:1;stroke-linejoin:miter;stroke-miterlimit:10;"/><line style="stroke:#181818;stroke-width:1;" x1="596.325" x2="596.325" y1="395.5156" y2="415.5156"/><polygon fill="#181818" points="592.325,405.5156,596.325,415.5156,600.325,405.5156,596.325,409.5156" style="stroke:#181818;stroke-width:1;stroke-linejoin:miter;stroke-miterlimit:10;"/><line style="stroke:#181818;stroke-width:1;" x1="655.4214" x2="596.325" y1="339.3828" y2="339.3828"/><line style="stroke:#181818;stroke-width:1;" x1="596.325" x2="596.325" y1="339.3828" y2="361.3828"/><polygon fill="#181818" points="592.325,351.3828,596.325,361.3828,600.325,351.3828,596.325,355.3828" style="stroke:#181818;stroke-width:1;stroke-linejoin:miter;stroke-miterlimit:10;"/><line style="stroke:#181818;stroke-width:1;" x1="774.8872" x2="833.9836" y1="339.3828" y2="339.3828"/><line style="stroke:#181818;stroke-width:1;" x1="833.9836" x2="833.9836" y1="339.3828" y2="361.3828"/><polygon fill="#181818" points="829.9836,351.3828,833.9836,361.3828,837.9836,351.3828,833.9836,355.3828" style="stroke:#181818;stroke-width:1;stroke-linejoin:miter;stroke-miterlimit:10;"/><line style="stroke:#181818;stroke-width:1;" x1="596.325" x2="596.325" y1="513.6484" y2="531.6484"/><line style="stroke:#181818;stroke-width:1;" x1="596.325" x2="703.1543" y1="531.6484" y2="531.6484"/><polygon fill="#181818" points="693.1543,527.6484,703.1543,531.6484,693.1543,535.6484,697.1543,531.6484" style="stroke:#181818;stroke-width:1;stroke-linejoin:miter;stroke-miterlimit:10;"/><line style="stroke:#181818;stroke-width:1;" x1="833.9836" x2="833.9836" y1="395.5156" y2="531.6484"/><line style="stroke:#181818;stroke-width:1;" x1="833.9836" x2="727.1543" y1="531.6484" y2="531.6484"/><polygon fill="#181818" points="737.1543,527.6484,727.1543,531.6484,737.1543,535.6484,733.1543,531.6484" style="stroke:#181818;stroke-width:1;stroke-linejoin:miter;stroke-miterlimit:10;"/><line style="stroke:#181818;stroke-width:1;" x1="715.1543" x2="715.1543" y1="307.3828" y2="327.3828"/><polygon fill="#181818" points="711.1543,317.3828,715.1543,327.3828,719.1543,317.3828,715.1543,321.3828" style="stroke:#181818;stroke-width:1;stroke-linejoin:miter;stroke-miterlimit:10;"/><line style="stroke:#181818;stroke-width:1;" x1="842.7441" x2="842.7441" y1="675.7813" y2="695.7813"/><polygon fill="#181818" points="838.7441,685.7813,842.7441,695.7813,846.7441,685.7813,842.7441,689.7813" style="stroke:#181818;stroke-width:1;stroke-linejoin:miter;stroke-miterlimit:10;"/><line style="stroke:#181818;stroke-width:1;" x1="662.2991" x2="587.5645" y1="619.6484" y2="619.6484"/><line style="stroke:#181818;stroke-width:1;" x1="587.5645" x2="587.5645" y1="619.6484" y2="641.6484"/><polygon fill="#181818" points="583.5645,631.6484,587.5645,641.6484,591.5645,631.6484,587.5645,635.6484" style="stroke:#181818;stroke-width:1;stroke-linejoin:miter;stroke-miterlimit:10;"/><line style="stroke:#181818;stroke-width:1;" x1="768.0095" x2="842.7441" y1="619.6484" y2="619.6484"/><line style="stroke:#181818;stroke-width:1;" x1="842.7441" x2="842.7441" y1="619.6484" y2="641.6484"/><polygon fill="#181818" points="838.7441,631.6484,842.7441,641.6484,846.7441,631.6484,842.7441,635.6484" style="stroke:#181818;stroke-width:1;stroke-linejoin:miter;stroke-miterlimit:10;"/><line style="stroke:#181818;stroke-width:1;" x1="587.5645" x2="587.5645" y1="675.7813" y2="722.7813"/><line style="stroke:#181818;stroke-width:1;" x1="587.5645" x2="240.229" y1="722.7813" y2="722.7813"/><line style="stroke:#181818;stroke-width:1;" x1="240.229" x2="240.229" y1="722.7813" y2="737.7813"/><polygon fill="#181818" points="236.229,727.7813,240.229,737.7813,244.229,727.7813,240.229,731.7813" style="stroke:#181818;stroke-width:1;stroke-linejoin:miter;stroke-miterlimit:10;"/><line style="stroke:#181818;stroke-width:1;" x1="606.2017" x2="606.2017" y1="1448.9316" y2="1468.9316"/><polygon fill="#181818" points="602.2017,1458.9316,606.2017,1468.9316,610.2017,1458.9316,606.2017,1462.9316" style="stroke:#181818;stroke-width:1;stroke-linejoin:miter;stroke-miterlimit:10;"/><line style="stroke:#181818;stroke-width:1;" x1="448.9722" x2="416.2358" y1="1226.0557" y2="1226.0557"/><line style="stroke:#181818;stroke-width:1;" x1="416.2358" x2="416.2358" y1="1226.0557" y2="1258.0557"/><polygon fill="#181818" points="412.2358,1248.0557,416.2358,1258.0557,420.2358,1248.0557,416.2358,1252.0557" style="stroke:#181818;stroke-width:1;stroke-linejoin:miter;stroke-miterlimit:10;"/><line style="stroke:#181818;stroke-width:1;" x1="573.4653" x2="606.2017" y1="1226.0557" y2="1226.0557"/><line style="stroke:#181818;stroke-width:1;" x1="606.2017" x2="606.2017" y1="1226.0557" y2="1258.0557"/><polygon fill="#181818" points="602.2017,1248.0557,606.2017,1258.0557,610.2017,1248.0557,606.2017,1252.0557" style="stroke:#181818;stroke-width:1;stroke-linejoin:miter;stroke-miterlimit:10;"/><line style="stroke:#181818;stroke-width:1;" x1="416.2358" x2="416.2358" y1="1292.1885" y2="1512.9316"/><line style="stroke:#181818;stroke-width:1;" x1="416.2358" x2="703.1543" y1="1512.9316" y2="1512.9316"/><polygon fill="#181818" points="693.1543,1508.9316,703.1543,1512.9316,693.1543,1516.9316,697.1543,1512.9316" style="stroke:#181818;stroke-width:1;stroke-linejoin:miter;stroke-miterlimit:10;"/><line style="stroke:#181818;stroke-width:1;" x1="511.2188" x2="511.2188" y1="1194.0557" y2="1214.0557"/><polygon fill="#181818" points="507.2188,1204.0557,511.2188,1214.0557,515.2188,1204.0557,511.2188,1208.0557" style="stroke:#181818;stroke-width:1;stroke-linejoin:miter;stroke-miterlimit:10;"/><line style="stroke:#181818;stroke-width:1;" x1="608.282" x2="511.2188" y1="1127.9229" y2="1127.9229"/><line style="stroke:#181818;stroke-width:1;" x1="511.2188" x2="511.2188" y1="1127.9229" y2="1159.9229"/><polygon fill="#181818" points="507.2188,1149.9229,511.2188,1159.9229,515.2188,1149.9229,511.2188,1153.9229" style="stroke:#181818;stroke-width:1;stroke-linejoin:miter;stroke-miterlimit:10;"/><line style="stroke:#181818;stroke-width:1;" x1="822.0266" x2="919.0898" y1="1127.9229" y2="1127.9229"/><line style="stroke:#181818;stroke-width:1;" x1="919.0898" x2="919.0898" y1="1127.9229" y2="1159.9229"/><polygon fill="#181818" points="915.0898,1149.9229,919.0898,1159.9229,923.0898,1149.9229,919.0898,1153.9229" style="stroke:#181818;stroke-width:1;stroke-linejoin:miter;stroke-miterlimit:10;"/><line style="stroke:#181818;stroke-width:1;" x1="919.0898" x2="919.0898" y1="1194.0557" y2="1512.9316"/><line style="stroke:#181818;stroke-width:1;" x1="919.0898" x2="727.1543" y1="1512.9316" y2="1512.9316"/><polygon fill="#181818" points="737.1543,1508.9316,727.1543,1512.9316,737.1543,1516.9316,733.1543,1512.9316" style="stroke:#181818;stroke-width:1;stroke-linejoin:miter;stroke-miterlimit:10;"/><line style="stroke:#181818;stroke-width:1;" x1="715.1543" x2="715.1543" y1="1095.9229" y2="1115.9229"/><polygon fill="#181818" points="711.1543,1105.9229,715.1543,1115.9229,719.1543,1105.9229,715.1543,1109.9229" style="stroke:#181818;stroke-width:1;stroke-linejoin:miter;stroke-miterlimit:10;"/><line style="stroke:#181818;stroke-width:1;" x1="715.1543" x2="715.1543" y1="1524.9316" y2="1544.9316"/><polygon fill="#181818" points="711.1543,1534.9316,715.1543,1544.9316,719.1543,1534.9316,715.1543,1538.9316" style="stroke:#181818;stroke-width:1;stroke-linejoin:miter;stroke-miterlimit:10;"/><line style="stroke:#181818;stroke-width:1;" x1="715.1543" x2="715.1543" y1="1579.0645" y2="1599.0645"/><polygon fill="#181818" points="711.1543,1589.0645,715.1543,1599.0645,719.1543,1589.0645,715.1543,1593.0645" style="stroke:#181818;stroke-width:1;stroke-linejoin:miter;stroke-miterlimit:10;"/><line style="stroke:#181818;stroke-width:1;" x1="715.1543" x2="715.1543" y1="1633.1973" y2="1653.1973"/><polygon fill="#181818" points="711.1543,1643.1973,715.1543,1653.1973,719.1543,1643.1973,715.1543,1647.1973" style="stroke:#181818;stroke-width:1;stroke-linejoin:miter;stroke-miterlimit:10;"/><line style="stroke:#181818;stroke-width:1;" x1="715.1543" x2="715.1543" y1="1687.3301" y2="1707.3301"/><polygon fill="#181818" points="711.1543,1697.3301,715.1543,1707.3301,719.1543,1697.3301,715.1543,1701.3301" style="stroke:#181818;stroke-width:1;stroke-linejoin:miter;stroke-miterlimit:10;"/><line style="stroke:#181818;stroke-width:1;" x1="240.229" x2="240.229" y1="253.25" y2="258.25"/><line style="stroke:#181818;stroke-width:1;" x1="240.229" x2="715.1543" y1="258.25" y2="258.25"/><line style="stroke:#181818;stroke-width:1;" x1="715.1543" x2="715.1543" y1="258.25" y2="273.25"/><polygon fill="#181818" points="711.1543,263.25,715.1543,273.25,719.1543,263.25,715.1543,267.25" style="stroke:#181818;stroke-width:1;stroke-linejoin:miter;stroke-miterlimit:10;"/><line style="stroke:#181818;stroke-width:1;" x1="715.1543" x2="715.1543" y1="543.6484" y2="548.6484"/><line style="stroke:#181818;stroke-width:1;" x1="715.1543" x2="240.229" y1="548.6484" y2="548.6484"/><line style="stroke:#181818;stroke-width:1;" x1="240.229" x2="240.229" y1="548.6484" y2="563.6484"/><polygon fill="#181818" points="236.229,553.6484,240.229,563.6484,244.229,553.6484,240.229,557.6484" style="stroke:#181818;stroke-width:1;stroke-linejoin:miter;stroke-miterlimit:10;"/><line style="stroke:#181818;stroke-width:1;" x1="240.229" x2="240.229" y1="587.6484" y2="592.6484"/><line style="stroke:#181818;stroke-width:1;" x1="240.229" x2="715.1543" y1="592.6484" y2="592.6484"/><line style="stroke:#181818;stroke-width:1;" x1="715.1543" x2="715.1543" y1="592.6484" y2="607.6484"/><polygon fill="#181818" points="711.1543,597.6484,715.1543,607.6484,719.1543,597.6484,715.1543,601.6484" style="stroke:#181818;stroke-width:1;stroke-linejoin:miter;stroke-miterlimit:10;"/><line style="stroke:#181818;stroke-width:1;" x1="240.229" x2="240.229" y1="820.3916" y2="837.8916"/><line style="stroke:#181818;stroke-width:1;" x1="240.229" x2="715.1543" y1="837.8916" y2="837.8916"/><line style="stroke:#181818;stroke-width:1;" x1="715.1543" x2="715.1543" y1="837.8916" y2="855.3916"/><polygon fill="#181818" points="711.1543,845.3916,715.1543,855.3916,719.1543,845.3916,715.1543,849.3916" style="stroke:#181818;stroke-width:1;stroke-linejoin:miter;stroke-miterlimit:10;"/><line style="stroke:#181818;stroke-width:1;" x1="715.1543" x2="715.1543" y1="889.5244" y2="897.2856"/><line style="stroke:#181818;stroke-width:1;" x1="715.1543" x2="240.229" y1="897.2856" y2="897.2856"/><line style="stroke:#181818;stroke-width:1;" x1="240.229" x2="240.229" y1="897.2856" y2="909.5244"/><polygon fill="#181818" points="236.229,899.5244,240.229,909.5244,244.229,899.5244,240.229,903.5244" style="stroke:#181818;stroke-width:1;stroke-linejoin:miter;stroke-miterlimit:10;"/><line style="stroke:#181818;stroke-width:1;" x1="240.229" x2="240.229" y1="1041.79" y2="1046.79"/><line style="stroke:#181818;stroke-width:1;" x1="240.229" x2="715.1543" y1="1046.79" y2="1046.79"/><line style="stroke:#181818;stroke-width:1;" x1="715.1543" x2="715.1543" y1="1046.79" y2="1061.79"/><polygon fill="#181818" points="711.1543,1051.79,715.1543,1061.79,719.1543,1051.79,715.1543,1055.79" style="stroke:#181818;stroke-width:1;stroke-linejoin:miter;stroke-miterlimit:10;"/><line style="stroke:#181818;stroke-width:1;" x1="131.2764" x2="131.2764" y1="1394.7988" y2="1399.7988"/><line style="stroke:#181818;stroke-width:1;" x1="131.2764" x2="606.2017" y1="1399.7988" y2="1399.7988"/><line style="stroke:#181818;stroke-width:1;" x1="606.2017" x2="606.2017" y1="1399.7988" y2="1414.7988"/><polygon fill="#181818" points="602.2017,1404.7988,606.2017,1414.7988,610.2017,1404.7988,606.2017,1408.7988" style="stroke:#181818;stroke-width:1;stroke-linejoin:miter;stroke-miterlimit:10;"/><line style="stroke:#181818;stroke-width:1;" x1="606.2017" x2="606.2017" y1="1292.1885" y2="1297.1885"/><line style="stroke:#181818;stroke-width:1;" x1="606.2017" x2="131.2764" y1="1297.1885" y2="1297.1885"/><line style="stroke:#181818;stroke-width:1;" x1="131.2764" x2="131.2764" y1="1297.1885" y2="1312.1885"/><polygon fill="#181818" points="127.2764,1302.1885,131.2764,1312.1885,135.2764,1302.1885,131.2764,1306.1885" style="stroke:#181818;stroke-width:1;stroke-linejoin:miter;stroke-miterlimit:10;"/><line style="stroke:#181818;stroke-width:1;" x1="715.1543" x2="715.1543" y1="1741.4629" y2="1746.4629"/><line style="stroke:#181818;stroke-width:1;" x1="715.1543" x2="240.229" y1="1746.4629" y2="1746.4629"/><line style="stroke:#181818;stroke-width:1;" x1="240.229" x2="240.229" y1="1746.4629" y2="1761.4629"/><polygon fill="#181818" points="236.229,1751.4629,240.229,1761.4629,244.229,1751.4629,240.229,1755.4629" style="stroke:#181818;stroke-width:1;stroke-linejoin:miter;stroke-miterlimit:10;"/><text fill="#000000" font-family="sans-serif" font-size="18" lengthAdjust="spacing" textLength="65.3379" x="149.4602" y="72.1875">Cashier</text><text fill="#000000" font-family="sans-serif" font-size="18" lengthAdjust="spacing" textLength="111.6475" x="637.3586" y="72.1875">POS Desktop</text><?plantuml-src VLJBZjim3BpxAtZC0la2-x08lEYjtM1pA7faPBeM8akkH2SDa8ylPVcnIRmznP66r70u96is1Flt0vGDgPFh6NQAzLdpDSjk9OP6axzbWT5pbhztP46Dm2BBF7M4d07a1uKMZkYLgmYSXq2654FdNTMh20MunLVUA9pOTRSOyqtRQa9iuOnUevKF74wrea90keRDFa40pwWD7WszlW0tmcJpYyABW2JNm1wCKsWWi5EdOZYFuOVuzt_14hwhAj1CBR039QMcQ3A1OFF3pR13uoufFP3tpeymM-awUuGdy5WUMCTGkzvMCIG5H4bcWPEIS6cqj6CJwRJEqy0f26CTHhxPlOgnlbBuGeDX1j-LbvTeL6-G2K9_PCTeji3uTmkL3aeOZOhNsefqsCQJ8ljSYcImYWnGs_7rK_SXAj5bOp5BAP7JhklCTNxXcLFZd3mmtHThxlWWDJF_YjpJs_bXz1rUMx8CBN7ZHFEyTBRMlfqkYaSXyz9JV2avQ0f7vbXrCTIqlyi9dlxqsbE8BJxhYloQyakg2HMRtpcTYXxTdIwmYnWAA-x-ZlwqP4ATNBHcjn5JYzbxJycVYppJI7mG--i4NXs8BtHCju-zIX5nHG22fSkpVWap-6Lji9QBQPI6tpiNYX-ShyO6AQaehfaMRR_qgvWDiTfR2OyoYzdJrp0lueqtKW88TBy-yfzU0FC06_SxOcMPo5XwKgGxXWePYpl_xRsqTbY0iHqZRl1VsncIVClynAB_0G00?></g></svg>