<svg xmlns="http://www.w3.org/2000/svg" xmlns:xlink="http://www.w3.org/1999/xlink" contentStyleType="text/css" data-diagram-type="SEQUENCE" height="1014px" preserveAspectRatio="none" style="width:1104px;height:1014px;background:#FFFFFF;" version="1.1" viewBox="0 0 1104 1014" width="1104px" zoomAndPan="magnify"><?plantuml 1.2026.6?><defs/><g><g class="title" data-source-line="1"><text fill="#000000" font-family="sans-serif" font-size="14" font-weight="700" lengthAdjust="spacing" textLength="172.5527" x="462.5461" y="28.5352">POS Checkout Sequence</text></g><rect fill="none" height="191.8184" style="stroke:#000000;stroke-width:1.5;" width="743.7588" x="344.8862" y="383.4609"/><rect fill="none" height="325.3711" style="stroke:#000000;stroke-width:1.5;" width="684.3071" x="10" y="589.2793"/><g class="participant-lifeline" data-entity-uid="part1" data-qualified-name="Cashier" data-source-line="3" id="part1-lifeline"><g><title>Cashier</title><rect fill="#000000" fill-opacity="0.00000" height="812.6738" width="8" x="44.4092" y="118.9766"/><line style="stroke:#181818;stroke-width:0.5;stroke-dasharray:5,5;" x1="48" x2="48" y1="118.9766" y2="931.6504"/></g></g><g class="participant-lifeline" data-entity-uid="part2" data-qualified-name="UI" data-source-line="4" id="part2-lifeline"><g><title>POS Desktop UI</title><rect fill="#000000" fill-opacity="0.00000" height="812.6738" width="8" x="200.5801" y="118.9766"/><line style="stroke:#181818;stroke-width:0.5;stroke-dasharray:5,5;" x1="204.0801" x2="204.0801" y1="118.9766" y2="931.6504"/></g></g><g class="participant-lifeline" data-entity-uid="part3" data-qualified-name="Main" data-source-line="5" id="part3-lifeline"><g><title>Desktop Main Service</title><rect fill="#000000" fill-opacity="0.00000" height="812.6738" width="8" x="430.3711" y="118.9766"/><line style="stroke:#181818;stroke-width:0.5;stroke-dasharray:5,5;" x1="433.8862" x2="433.8862" y1="118.9766" y2="931.6504"/></g></g><g class="participant-lifeline" data-entity-uid="part4" data-qualified-name="Lite" data-source-line="6" id="part4-lifeline"><g><title>PGlite Local DB</title><rect fill="#000000" fill-opacity="0.00000" height="812.6738" width="8" x="626.6084" y="118.9766"/><line style="stroke:#181818;stroke-width:0.5;stroke-dasharray:5,5;" x1="629.9097" x2="629.9097" y1="118.9766" y2="931.6504"/></g></g><g class="participant-lifeline" data-entity-uid="part5" data-qualified-name="Processor" data-source-line="7" id="part5-lifeline"><g><title>Payment Processor</title><rect fill="#000000" fill-opacity="0.00000" height="812.6738" width="8" x="761.1309" y="118.9766"/><line style="stroke:#181818;stroke-width:0.5;stroke-dasharray:5,5;" x1="764.3071" x2="764.3071" y1="118.9766" y2="931.6504"/></g></g><g class="participant-lifeline" data-entity-uid="part6" data-qualified-name="PosPayments" data-source-line="8" id="part6-lifeline"><g><title>Backend .pos.payments</title><rect fill="#000000" fill-opacity="0.00000" height="812.6738" width="8" x="984.7012" y="118.9766"/><line style="stroke:#181818;stroke-width:0.5;stroke-dasharray:5,5;" x1="987.7573" x2="987.7573" y1="118.9766" y2="931.6504"/></g></g><g class="participant participant-head" data-entity-uid="part1" data-qualified-name="Cashier" data-source-line="3" id="part1-head"><text fill="#000000" font-family="sans-serif" font-size="14" lengthAdjust="spacing" textLength="50.8184" x="20" y="116.0234">Cashier</text><ellipse cx="48.4092" cy="50.9883" fill="#E2E2F0" rx="8" ry="8" style="stroke:#181818;stroke-width:0.5;"/><path d="M48.4092,58.9883 L48.4092,85.9883 M35.4092,66.9883 L61.4092,66.9883 M48.4092,85.9883 L35.4092,100.9883 M48.4092,85.9883 L61.4092,100.9883" fill="none" style="stroke:#181818;stroke-width:0.5;"/></g><g class="participant participant-tail" data-entity-uid="part1" data-qualified-name="Cashier" data-source-line="3" id="part1-tail"><text fill="#000000" font-family="sans-serif" font-size="14" lengthAdjust="spacing" textLength="50.8184" x="20" y="944.1855">Cashier</text><ellipse cx="48.4092" cy="955.6387" fill="#E2E2F0" rx="8" ry="8" style="stroke:#181818;stroke-width:0.5;"/><path d="M48.4092,963.6387 L48.4092,990.6387 M35.4092,971.6387 L61.4092,971.6387 M48.4092,990.6387 L35.4092,1005.6387 M48.4092,990.6387 L61.4092,1005.6387" fill="none" style="stroke:#181818;stroke-width:0.5;"/></g><g class="participant participant-head" data-entity-uid="part2" data-qualified-name="UI" data-source-line="4" id="part2-head"><rect fill="#E2E2F0" height="30.4883" rx="2.5" ry="2.5" style="stroke:#181818;stroke-width:0.5;" width="119" x="145.0801" y="87.4883"/><text fill="#000000" font-family="sans-serif" font-size="14" lengthAdjust="spacing" textLength="105" x="152.0801" y="108.0234">POS Desktop UI</text></g><g class="participant participant-tail" data-entity-uid="part2" data-qualified-name="UI" data-source-line="4" id="part2-tail"><rect fill="#E2E2F0" height="30.4883" rx="2.5" ry="2.5" style="stroke:#181818;stroke-width:0.5;" width="119" x="145.0801" y="930.6504"/><text fill="#000000" font-family="sans-serif" font-size="14" lengthAdjust="spacing" textLength="105" x="152.0801" y="951.1855">POS Desktop UI</text></g><g class="participant participant-head" data-entity-uid="part3" data-qualified-name="Main" data-source-line="5" id="part3-head"><rect fill="#E2E2F0" height="30.4883" rx="2.5" ry="2.5" style="stroke:#181818;stroke-width:0.5;" width="158.9697" x="354.8862" y="87.4883"/><text fill="#000000" font-family="sans-serif" font-size="14" lengthAdjust="spacing" textLength="144.9697" x="361.8862" y="108.0234">Desktop Main Service</text></g><g class="participant participant-tail" data-entity-uid="part3" data-qualified-name="Main" data-source-line="5" id="part3-tail"><rect fill="#E2E2F0" height="30.4883" rx="2.5" ry="2.5" style="stroke:#181818;stroke-width:0.5;" width="158.9697" x="354.8862" y="930.6504"/><text fill="#000000" font-family="sans-serif" font-size="14" lengthAdjust="spacing" textLength="144.9697" x="361.8862" y="951.1855">Desktop Main Service</text></g><g class="participant participant-head" data-entity-uid="part4" data-qualified-name="Lite" data-source-line="6" id="part4-head"><text fill="#000000" font-family="sans-serif" font-size="14" lengthAdjust="spacing" textLength="101.3975" x="576.9097" y="116.0234">PGlite Local DB</text><path d="M612.6084,66.4883 C612.6084,56.4883 630.6084,56.4883 630.6084,56.4883 C630.6084,56.4883 648.6084,56.4883 648.6084,66.4883 L648.6084,92.4883 C648.6084,102.4883 630.6084,102.4883 630.6084,102.4883 C630.6084,102.4883 612.6084,102.4883 612.6084,92.4883 L612.6084,66.4883" fill="#E2E2F0" style="stroke:#181818;stroke-width:0.5;"/><path d="M612.6084,66.4883 C612.6084,76.4883 630.6084,76.4883 630.6084,76.4883 C630.6084,76.4883 648.6084,76.4883 648.6084,66.4883" fill="none" style="stroke:#181818;stroke-width:0.5;"/></g><g class="participant participant-tail" data-entity-uid="part4" data-qualified-name="Lite" data-source-line="6" id="part4-tail"><text fill="#000000" font-family="sans-serif" font-size="14" lengthAdjust="spacing" textLength="101.3975" x="576.9097" y="944.1855">PGlite Local DB</text><path d="M612.6084,957.1387 C612.6084,947.1387 630.6084,947.1387 630.6084,947.1387 C630.6084,947.1387 648.6084,947.1387 648.6084,957.1387 L648.6084,983.1387 C648.6084,993.1387 630.6084,993.1387 630.6084,993.1387 C630.6084,993.1387 612.6084,993.1387 612.6084,983.1387 L612.6084,957.1387" fill="#E2E2F0" style="stroke:#181818;stroke-width:0.5;"/><path d="M612.6084,957.1387 C612.6084,967.1387 630.6084,967.1387 630.6084,967.1387 C630.6084,967.1387 648.6084,967.1387 648.6084,957.1387" fill="none" style="stroke:#181818;stroke-width:0.5;"/></g><g class="participant participant-head" data-entity-uid="part5" data-qualified-name="Processor" data-source-line="7" id="part5-head"><rect fill="#E2E2F0" height="30.4883" rx="2.5" ry="2.5" style="stroke:#181818;stroke-width:0.5;" width="141.6475" x="694.3071" y="87.4883"/><text fill="#000000" font-family="sans-serif" font-size="14" lengthAdjust="spacing" textLength="127.6475" x="701.3071" y="108.0234">Payment Processor</text></g><g class="participant participant-tail" data-entity-uid="part5" data-qualified-name="Processor" data-source-line="7" id="part5-tail"><rect fill="#E2E2F0" height="30.4883" rx="2.5" ry="2.5" style="stroke:#181818;stroke-width:0.5;" width="141.6475" x="694.3071" y="930.6504"/><text fill="#000000" font-family="sans-serif" font-size="14" lengthAdjust="spacing" textLength="127.6475" x="701.3071" y="951.1855">Payment Processor</text></g><g class="participant participant-head" data-entity-uid="part6" data-qualified-name="PosPayments" data-source-line="8" id="part6-head"><rect fill="#E2E2F0" height="30.4883" rx="2.5" ry="2.5" style="stroke:#181818;stroke-width:0.5;" width="179.8877" x="898.7573" y="87.4883"/><text fill="#000000" font-family="sans-serif" font-size="14" lengthAdjust="spacing" textLength="165.8877" x="905.7573" y="108.0234">Backend /pos/payments</text></g><g class="participant participant-tail" data-entity-uid="part6" data-qualified-name="PosPayments" data-source-line="8" id="part6-tail"><rect fill="#E2E2F0" height="30.4883" rx="2.5" ry="2.5" style="stroke:#181818;stroke-width:0.5;" width="179.8877" x="898.7573" y="930.6504"/><text fill="#000000" font-family="sans-serif" font-size="14" lengthAdjust="spacing" textLength="165.8877" x="905.7573" y="951.1855">Backend /pos/payments</text></g><g class="message" data-entity-1="part1" data-entity-2="part2" data-source-line="10" id="msg1"><polygon fill="#181818" points="192.5801,146.2871,202.5801,150.2871,192.5801,154.2871,196.5801,150.2871" style="stroke:#181818;stroke-width:1;stroke-linejoin:miter;stroke-miterlimit:10;"/><line style="stroke:#181818;stroke-width:1;" x1="48.4092" x2="198.5801" y1="150.2871" y2="150.2871"/><text fill="#000000" font-family="sans-serif" font-size="13" lengthAdjust="spacing" textLength="132.1138" x="55.4092" y="145.5449">Scan/select products</text></g><g class="message" data-entity-1="part2" data-entity-2="part3" data-source-line="11" id="msg2"><polygon fill="#181818" points="422.3711,175.5977,432.3711,179.5977,422.3711,183.5977,426.3711,179.5977" style="stroke:#181818;stroke-width:1;stroke-linejoin:miter;stroke-miterlimit:10;"/><line style="stroke:#181818;stroke-width:1;" x1="204.5801" x2="428.3711" y1="179.5977" y2="179.5977"/><text fill="#000000" font-family="sans-serif" font-size="13" lengthAdjust="spacing" textLength="205.791" x="211.5801" y="174.8555">Load products, prices, and stock</text></g><g class="message" data-entity-1="part3" data-entity-2="part4" data-source-line="12" id="msg3"><polygon fill="#181818" points="618.6084,204.9082,628.6084,208.9082,618.6084,212.9082,622.6084,208.9082" style="stroke:#181818;stroke-width:1;stroke-linejoin:miter;stroke-miterlimit:10;"/><line style="stroke:#181818;stroke-width:1;" x1="434.3711" x2="624.6084" y1="208.9082" y2="208.9082"/><text fill="#000000" font-family="sans-serif" font-size="13" lengthAdjust="spacing" textLength="172.2373" x="441.3711" y="204.166">Query product, price, stock</text></g><g class="message" data-entity-1="part4" data-entity-2="part3" data-source-line="13" id="msg4"><polygon fill="#181818" points="445.3711,234.2188,435.3711,238.2188,445.3711,242.2188,441.3711,238.2188" style="stroke:#181818;stroke-width:1;stroke-linejoin:miter;stroke-miterlimit:10;"/><line style="stroke:#181818;stroke-width:1;stroke-dasharray:2,2;" x1="439.3711" x2="629.6084" y1="238.2188" y2="238.2188"/><text fill="#000000" font-family="sans-serif" font-size="13" lengthAdjust="spacing" textLength="79.7773" x="451.3711" y="233.4766">Product data</text></g><g class="message" data-entity-1="part3" data-entity-2="part2" data-source-line="14" id="msg5"><polygon fill="#181818" points="215.5801,263.5293,205.5801,267.5293,215.5801,271.5293,211.5801,267.5293" style="stroke:#181818;stroke-width:1;stroke-linejoin:miter;stroke-miterlimit:10;"/><line style="stroke:#181818;stroke-width:1;stroke-dasharray:2,2;" x1="209.5801" x2="433.3711" y1="267.5293" y2="267.5293"/><text fill="#000000" font-family="sans-serif" font-size="13" lengthAdjust="spacing" textLength="99.0171" x="221.5801" y="262.7871">Cart line details</text></g><g class="message" data-entity-1="part1" data-entity-2="part2" data-source-line="16" id="msg6"><polygon fill="#181818" points="192.5801,292.8398,202.5801,296.8398,192.5801,300.8398,196.5801,296.8398" style="stroke:#181818;stroke-width:1;stroke-linejoin:miter;stroke-miterlimit:10;"/><line style="stroke:#181818;stroke-width:1;" x1="48.4092" x2="198.5801" y1="296.8398" y2="296.8398"/><text fill="#000000" font-family="sans-serif" font-size="13" lengthAdjust="spacing" textLength="112.2964" x="55.4092" y="292.0977">Confirm checkout</text></g><g class="message" data-entity-1="part2" data-entity-2="part3" data-source-line="17" id="msg7"><polygon fill="#181818" points="422.3711,322.1504,432.3711,326.1504,422.3711,330.1504,426.3711,326.1504" style="stroke:#181818;stroke-width:1;stroke-linejoin:miter;stroke-miterlimit:10;"/><line style="stroke:#181818;stroke-width:1;" x1="204.5801" x2="428.3711" y1="326.1504" y2="326.1504"/><text fill="#000000" font-family="sans-serif" font-size="13" lengthAdjust="spacing" textLength="85.8076" x="211.5801" y="321.4082">Process order</text></g><g class="message" data-entity-1="part3" data-entity-2="part3" data-source-line="18" id="msg8"><line style="stroke:#181818;stroke-width:1;" x1="434.3711" x2="476.3711" y1="355.4609" y2="355.4609"/><line style="stroke:#181818;stroke-width:1;" x1="476.3711" x2="476.3711" y1="355.4609" y2="368.4609"/><line style="stroke:#181818;stroke-width:1;" x1="435.3711" x2="476.3711" y1="368.4609" y2="368.4609"/><polygon fill="#181818" points="445.3711,364.4609,435.3711,368.4609,445.3711,372.4609,441.3711,368.4609" style="stroke:#181818;stroke-width:1;stroke-linejoin:miter;stroke-miterlimit:10;"/><text fill="#000000" font-family="sans-serif" font-size="13" lengthAdjust="spacing" textLength="148.7573" x="441.3711" y="350.7188">Calculate totals and tax</text></g><path d="M344.8862,383.4609 L407.0249,383.4609 L407.0249,390.7715 L397.0249,400.7715 L344.8862,400.7715 L344.8862,383.4609" fill="#EEEEEE" style="stroke:#000000;stroke-width:1.5;"/><rect fill="none" height="191.8184" style="stroke:#000000;stroke-width:1.5;" width="743.7588" x="344.8862" y="383.4609"/><text fill="#000000" font-family="sans-serif" font-size="13" font-weight="700" lengthAdjust="spacing" textLength="17.1387" x="359.8862" y="397.0293">alt</text><text fill="#000000" font-family="sans-serif" font-size="11" font-weight="700" lengthAdjust="spacing" textLength="155.6812" x="422.0249" y="396.0957">[Provider-backed payment]</text><g class="message" data-entity-1="part3" data-entity-2="part5" data-source-line="21" id="msg9"><polygon fill="#181818" points="753.1309,418.082,763.1309,422.082,753.1309,426.082,757.1309,422.082" style="stroke:#181818;stroke-width:1;stroke-linejoin:miter;stroke-miterlimit:10;"/><line style="stroke:#181818;stroke-width:1;" x1="434.3711" x2="759.1309" y1="422.082" y2="422.082"/><text fill="#000000" font-family="sans-serif" font-size="13" lengthAdjust="spacing" textLength="151.0742" x="441.3711" y="417.3398">Create payment request</text></g><g class="message" data-entity-1="part5" data-entity-2="part6" data-source-line="22" id="msg10"><polygon fill="#181818" points="976.7012,447.3926,986.7012,451.3926,976.7012,455.3926,980.7012,451.3926" style="stroke:#181818;stroke-width:1;stroke-linejoin:miter;stroke-miterlimit:10;"/><line style="stroke:#181818;stroke-width:1;" x1="765.1309" x2="982.7012" y1="451.3926" y2="451.3926"/><text fill="#000000" font-family="sans-serif" font-size="13" lengthAdjust="spacing" textLength="199.5703" x="772.1309" y="446.6504">POST provider payment request</text></g><g class="message" data-entity-1="part6" data-entity-2="part5" data-source-line="23" id="msg11"><polygon fill="#181818" points="776.1309,476.7031,766.1309,480.7031,776.1309,484.7031,772.1309,480.7031" style="stroke:#181818;stroke-width:1;stroke-linejoin:miter;stroke-miterlimit:10;"/><line style="stroke:#181818;stroke-width:1;stroke-dasharray:2,2;" x1="770.1309" x2="987.7012" y1="480.7031" y2="480.7031"/><text fill="#000000" font-family="sans-serif" font-size="13" lengthAdjust="spacing" textLength="150.2871" x="782.1309" y="475.9609">Provider payment result</text></g><g class="message" data-entity-1="part5" data-entity-2="part3" data-source-line="24" id="msg12"><polygon fill="#181818" points="445.3711,506.0137,435.3711,510.0137,445.3711,514.0137,441.3711,510.0137" style="stroke:#181818;stroke-width:1;stroke-linejoin:miter;stroke-miterlimit:10;"/><line style="stroke:#181818;stroke-width:1;stroke-dasharray:2,2;" x1="439.3711" x2="764.1309" y1="510.0137" y2="510.0137"/><text fill="#000000" font-family="sans-serif" font-size="13" lengthAdjust="spacing" textLength="133.0278" x="451.3711" y="505.2715">Approved or rejected</text></g><line style="stroke:#000000;stroke-width:1;stroke-dasharray:2,2;" x1="344.8862" x2="1088.645" y1="519.0137" y2="519.0137"/><text fill="#000000" font-family="sans-serif" font-size="11" font-weight="700" lengthAdjust="spacing" textLength="167.2988" x="349.8862" y="529.6484">[Local cash/manual payment]</text><g class="message" data-entity-1="part3" data-entity-2="part3" data-source-line="26" id="msg13"><line style="stroke:#181818;stroke-width:1;" x1="434.3711" x2="476.3711" y1="554.2793" y2="554.2793"/><line style="stroke:#181818;stroke-width:1;" x1="476.3711" x2="476.3711" y1="554.2793" y2="567.2793"/><line style="stroke:#181818;stroke-width:1;" x1="435.3711" x2="476.3711" y1="567.2793" y2="567.2793"/><polygon fill="#181818" points="445.3711,563.2793,435.3711,567.2793,445.3711,571.2793,441.3711,567.2793" style="stroke:#181818;stroke-width:1;stroke-linejoin:miter;stroke-miterlimit:10;"/><text fill="#000000" font-family="sans-serif" font-size="13" lengthAdjust="spacing" textLength="180.3242" x="441.3711" y="549.5371">Accept local payment details</text></g><path d="M10,589.2793 L72.1387,589.2793 L72.1387,596.5898 L62.1387,606.5898 L10,606.5898 L10,589.2793" fill="#EEEEEE" style="stroke:#000000;stroke-width:1.5;"/><rect fill="none" height="325.3711" style="stroke:#000000;stroke-width:1.5;" width="684.3071" x="10" y="589.2793"/><text fill="#000000" font-family="sans-serif" font-size="13" font-weight="700" lengthAdjust="spacing" textLength="17.1387" x="25" y="602.8477">alt</text><text fill="#000000" font-family="sans-serif" font-size="11" font-weight="700" lengthAdjust="spacing" textLength="113.5288" x="87.1387" y="601.9141">[Payment approved]</text><g class="message" data-entity-1="part3" data-entity-2="part4" data-source-line="30" id="msg14"><polygon fill="#181818" points="618.6084,623.9004,628.6084,627.9004,618.6084,631.9004,622.6084,627.9004" style="stroke:#181818;stroke-width:1;stroke-linejoin:miter;stroke-miterlimit:10;"/><line style="stroke:#181818;stroke-width:1;" x1="434.3711" x2="624.6084" y1="627.9004" y2="627.9004"/><text fill="#000000" font-family="sans-serif" font-size="13" lengthAdjust="spacing" textLength="94.4404" x="441.3711" y="623.1582">Insert payment</text></g><g class="message" data-entity-1="part3" data-entity-2="part4" data-source-line="31" id="msg15"><polygon fill="#181818" points="618.6084,653.2109,628.6084,657.2109,618.6084,661.2109,622.6084,657.2109" style="stroke:#181818;stroke-width:1;stroke-linejoin:miter;stroke-miterlimit:10;"/><line style="stroke:#181818;stroke-width:1;" x1="434.3711" x2="624.6084" y1="657.2109" y2="657.2109"/><text fill="#000000" font-family="sans-serif" font-size="13" lengthAdjust="spacing" textLength="74.0264" x="441.3711" y="652.4688">Insert order</text></g><g class="message" data-entity-1="part3" data-entity-2="part4" data-source-line="32" id="msg16"><polygon fill="#181818" points="618.6084,682.5215,628.6084,686.5215,618.6084,690.5215,622.6084,686.5215" style="stroke:#181818;stroke-width:1;stroke-linejoin:miter;stroke-miterlimit:10;"/><line style="stroke:#181818;stroke-width:1;" x1="434.3711" x2="624.6084" y1="686.5215" y2="686.5215"/><text fill="#000000" font-family="sans-serif" font-size="13" lengthAdjust="spacing" textLength="112.7661" x="441.3711" y="681.7793">Insert order items</text></g><g class="message" data-entity-1="part3" data-entity-2="part4" data-source-line="33" id="msg17"><polygon fill="#181818" points="618.6084,711.832,628.6084,715.832,618.6084,719.832,622.6084,715.832" style="stroke:#181818;stroke-width:1;stroke-linejoin:miter;stroke-miterlimit:10;"/><line style="stroke:#181818;stroke-width:1;" x1="434.3711" x2="624.6084" y1="715.832" y2="715.832"/><text fill="#000000" font-family="sans-serif" font-size="13" lengthAdjust="spacing" textLength="89.1274" x="441.3711" y="711.0898">Update stocks</text></g><g class="message" data-entity-1="part3" data-entity-2="part4" data-source-line="34" id="msg18"><polygon fill="#181818" points="618.6084,741.1426,628.6084,745.1426,618.6084,749.1426,622.6084,745.1426" style="stroke:#181818;stroke-width:1;stroke-linejoin:miter;stroke-miterlimit:10;"/><line style="stroke:#181818;stroke-width:1;" x1="434.3711" x2="624.6084" y1="745.1426" y2="745.1426"/><text fill="#000000" font-family="sans-serif" font-size="13" lengthAdjust="spacing" textLength="119.8247" x="441.3711" y="740.4004">Insert product logs</text></g><g class="message" data-entity-1="part4" data-entity-2="part3" data-source-line="35" id="msg19"><polygon fill="#181818" points="445.3711,770.4531,435.3711,774.4531,445.3711,778.4531,441.3711,774.4531" style="stroke:#181818;stroke-width:1;stroke-linejoin:miter;stroke-miterlimit:10;"/><line style="stroke:#181818;stroke-width:1;stroke-dasharray:2,2;" x1="439.3711" x2="629.6084" y1="774.4531" y2="774.4531"/><text fill="#000000" font-family="sans-serif" font-size="13" lengthAdjust="spacing" textLength="90.5493" x="451.3711" y="769.7109">Saved order id</text></g><g class="message" data-entity-1="part3" data-entity-2="part2" data-source-line="36" id="msg20"><polygon fill="#181818" points="215.5801,799.7637,205.5801,803.7637,215.5801,807.7637,211.5801,803.7637" style="stroke:#181818;stroke-width:1;stroke-linejoin:miter;stroke-miterlimit:10;"/><line style="stroke:#181818;stroke-width:1;stroke-dasharray:2,2;" x1="209.5801" x2="433.3711" y1="803.7637" y2="803.7637"/><text fill="#000000" font-family="sans-serif" font-size="13" lengthAdjust="spacing" textLength="77.6826" x="221.5801" y="799.0215">Receipt data</text></g><g class="message" data-entity-1="part2" data-entity-2="part1" data-source-line="37" id="msg21"><polygon fill="#181818" points="59.4092,829.0742,49.4092,833.0742,59.4092,837.0742,55.4092,833.0742" style="stroke:#181818;stroke-width:1;stroke-linejoin:miter;stroke-miterlimit:10;"/><line style="stroke:#181818;stroke-width:1;stroke-dasharray:2,2;" x1="53.4092" x2="203.5801" y1="833.0742" y2="833.0742"/><text fill="#000000" font-family="sans-serif" font-size="13" lengthAdjust="spacing" textLength="132.1709" x="65.4092" y="828.332">Show or print receipt</text></g><line style="stroke:#000000;stroke-width:1;stroke-dasharray:2,2;" x1="10" x2="694.3071" y1="842.0742" y2="842.0742"/><text fill="#000000" font-family="sans-serif" font-size="11" font-weight="700" lengthAdjust="spacing" textLength="105.7998" x="15" y="852.709">[Payment rejected]</text><g class="message" data-entity-1="part3" data-entity-2="part2" data-source-line="39" id="msg22"><polygon fill="#181818" points="215.5801,873.3398,205.5801,877.3398,215.5801,881.3398,211.5801,877.3398" style="stroke:#181818;stroke-width:1;stroke-linejoin:miter;stroke-miterlimit:10;"/><line style="stroke:#181818;stroke-width:1;stroke-dasharray:2,2;" x1="209.5801" x2="433.3711" y1="877.3398" y2="877.3398"/><text fill="#000000" font-family="sans-serif" font-size="13" lengthAdjust="spacing" textLength="97.6841" x="221.5801" y="872.5977">Payment failure</text></g><g class="message" data-entity-1="part2" data-entity-2="part1" data-source-line="40" id="msg23"><polygon fill="#181818" points="59.4092,902.6504,49.4092,906.6504,59.4092,910.6504,55.4092,906.6504" style="stroke:#181818;stroke-width:1;stroke-linejoin:miter;stroke-miterlimit:10;"/><line style="stroke:#181818;stroke-width:1;stroke-dasharray:2,2;" x1="53.4092" x2="203.5801" y1="906.6504" y2="906.6504"/><text fill="#000000" font-family="sans-serif" font-size="13" lengthAdjust="spacing" textLength="93.5327" x="65.4092" y="901.9082">Retry or cancel</text></g><?plantuml-src VLF1Rjim3BthAuYU6-IUmu3L1OO07UOromUmChjeKInDbBlrxqVAijF4NK-MnST7yl4fk-m9scyxQ0vaZs78iAFV0_MMZ46RGu86-U0ecOWfE-iYzXbkDEEU-9X3XFts1f3bSmcPmb_HzKAQNfob0jGBqs769sGIgY_UPOA7OD73_Ls1FCZDLK5yFP4SsXGiCOTKSFFV9VWExP7w3jOny3gEcJmc1AvCR4oT35QVfFaDx2psQoPFDaDCeHkiWFPR3MlB6saHkpboAoUPIBuebJW7UpHbL85h-nluFb1wdV0LVbkHYe3LpDoE851LAajjgf6vmBkUeAECpY_RRaB_xD89R5tWHSjL80YfanLE_Osn1hqTF4eZEMJqN0R9-5SMxulGBqwILaygfimzocO09fPPVA5Af3mL0qajn8gTCINXBFv6FVT3nIb5tiiyWuiORwgroomU_5MvUSpFKQl817ARw9Tibpf3dYVBMP5pVS9-aFDooCfXBKNPGqcOgauB4QTLoMe0QyKtDACZjZsJh7DPvI8yxkgZ8CZDYHUGVUnq2yLX_D_YrMe-_5JCbH5tE2fLYfm7g5Px94ikLfi2gD4aKlqeoOVmHrKMfvUb5F0eTJjlgYxWYdcAFukYGw9to1yfosiITdcbbhog_Wy0?></g></svg>