<svg xmlns="http://www.w3.org/2000/svg" xmlns:xlink="http://www.w3.org/1999/xlink" contentStyleType="text/css" data-diagram-type="ACTIVITY" height="997px" preserveAspectRatio="none" style="width:918px;height:997px;background:#FFFFFF;" version="1.1" viewBox="0 0 918 997" width="918px" zoomAndPan="magnify"><?plantuml 1.2026.6?><defs/><g><g class="title" data-source-line="1"><text fill="#000000" font-family="sans-serif" font-size="14" font-weight="700" lengthAdjust="spacing" textLength="171.4727" x="372.3086" y="33.5352">RBAC Permission Check</text></g><rect fill="none" height="21.1992" style="stroke:none;stroke-width:1;" width="871.0898" x="20" y="54.7852"/><ellipse cx="126.6973" cy="90.9844" fill="#222222" rx="10" ry="10" style="stroke:#222222;stroke-width:1;"/><rect fill="#F1F1F1" height="34.1328" rx="12.5" ry="12.5" style="stroke:#181818;stroke-width:0.5;" width="201.3945" x="26" y="120.9844"/><text fill="#000000" font-family="sans-serif" font-size="12" lengthAdjust="spacing" textLength="181.3945" x="36" y="142.5859">Send authenticated API request</text><line style="stroke:#000000;stroke-width:1.5;" x1="20" x2="20" y1="54.7852" y2="976.3125"/><rect fill="#F1F1F1" height="34.1328" rx="12.5" ry="12.5" style="stroke:#181818;stroke-width:0.5;" width="226.3848" x="337.8027" y="175.1172"/><text fill="#000000" font-family="sans-serif" font-size="12" lengthAdjust="spacing" textLength="206.3848" x="347.8027" y="196.7188">Resolve mounted surface and route</text><rect fill="#F1F1F1" height="34.1328" rx="12.5" ry="12.5" style="stroke:#181818;stroke-width:0.5;" width="126.4238" x="387.7832" y="229.25"/><text fill="#000000" font-family="sans-serif" font-size="12" lengthAdjust="spacing" textLength="106.4238" x="397.7832" y="250.8516">Read bearer token</text><polygon fill="#F1F1F1" points="410.2715,283.3828,491.7188,283.3828,503.7188,295.3828,491.7188,307.3828,410.2715,307.3828,398.2715,295.3828,410.2715,283.3828" style="stroke:#181818;stroke-width:0.5;stroke-linejoin:miter;stroke-miterlimit:10;"/><text fill="#000000" font-family="sans-serif" font-size="11" lengthAdjust="spacing" textLength="81.4473" x="410.2715" y="299.54">Token present?</text><text fill="#000000" font-family="sans-serif" font-size="11" lengthAdjust="spacing" textLength="18.5894" x="379.6821" y="293.0625">Yes</text><text fill="#000000" font-family="sans-serif" font-size="11" lengthAdjust="spacing" textLength="14.8833" x="503.7188" y="293.0625">No</text><rect fill="#F1F1F1" height="34.1328" rx="12.5" ry="12.5" style="stroke:#181818;stroke-width:0.5;" width="90.3945" x="334.8608" y="317.3828"/><text fill="#000000" font-family="sans-serif" font-size="12" lengthAdjust="spacing" textLength="70.3945" x="344.8608" y="338.9844">Verify token</text><rect fill="#F1F1F1" height="34.1328" rx="12.5" ry="12.5" style="stroke:#181818;stroke-width:0.5;" width="153.3535" x="445.2554" y="317.3828"/><text fill="#000000" font-family="sans-serif" font-size="12" lengthAdjust="spacing" textLength="133.3535" x="455.2554" y="338.9844">Reject as unauthorized</text><ellipse cx="521.9321" cy="382.5156" fill="none" rx="11" ry="11" style="stroke:#222222;stroke-width:1;"/><ellipse cx="521.9321" cy="382.5156" fill="#222222" rx="6" ry="6" style="stroke:#222222;stroke-width:1;"/><polygon fill="#F1F1F1" points="417.8608,413.5156,484.1294,413.5156,496.1294,425.5156,484.1294,437.5156,417.8608,437.5156,405.8608,425.5156,417.8608,413.5156" style="stroke:#181818;stroke-width:0.5;stroke-linejoin:miter;stroke-miterlimit:10;"/><text fill="#000000" font-family="sans-serif" font-size="11" lengthAdjust="spacing" textLength="66.2686" x="417.8608" y="429.6729">Token valid?</text><text fill="#000000" font-family="sans-serif" font-size="11" lengthAdjust="spacing" textLength="18.5894" x="387.2715" y="423.1953">Yes</text><text fill="#000000" font-family="sans-serif" font-size="11" lengthAdjust="spacing" textLength="14.8833" x="496.1294" y="423.1953">No</text><rect fill="#F1F1F1" height="34.1328" rx="12.5" ry="12.5" style="stroke:#181818;stroke-width:0.5;" width="220.3496" x="237.3945" y="447.5156"/><text fill="#000000" font-family="sans-serif" font-size="12" lengthAdjust="spacing" textLength="200.3496" x="247.3945" y="469.1172">Resolve user id, org id, and role id</text><rect fill="#F1F1F1" height="34.1328" rx="12.5" ry="12.5" style="stroke:#181818;stroke-width:0.5;" width="153.3535" x="477.7441" y="447.5156"/><text fill="#000000" font-family="sans-serif" font-size="12" lengthAdjust="spacing" textLength="133.3535" x="487.7441" y="469.1172">Reject as unauthorized</text><ellipse cx="554.4209" cy="512.6484" fill="none" rx="11" ry="11" style="stroke:#222222;stroke-width:1;"/><ellipse cx="554.4209" cy="512.6484" fill="#222222" rx="6" ry="6" style="stroke:#222222;stroke-width:1;"/><polygon fill="#F1F1F1" points="378.4155,543.6484,523.5747,543.6484,535.5747,555.6484,523.5747,567.6484,378.4155,567.6484,366.4155,555.6484,378.4155,543.6484" style="stroke:#181818;stroke-width:0.5;stroke-linejoin:miter;stroke-miterlimit:10;"/><text fill="#000000" font-family="sans-serif" font-size="11" lengthAdjust="spacing" textLength="145.1592" x="378.4155" y="559.8057">Route requires permission?</text><text fill="#000000" font-family="sans-serif" font-size="11" lengthAdjust="spacing" textLength="18.5894" x="347.8262" y="553.3281">Yes</text><text fill="#000000" font-family="sans-serif" font-size="11" lengthAdjust="spacing" textLength="14.8833" x="535.5747" y="553.3281">No</text><rect fill="#F1F1F1" height="34.1328" rx="12.5" ry="12.5" style="stroke:#181818;stroke-width:0.5;" width="200.75" x="253.5693" y="577.6484"/><text fill="#000000" font-family="sans-serif" font-size="12" lengthAdjust="spacing" textLength="180.75" x="263.5693" y="599.25">Find required route permission</text><rect fill="#F1F1F1" height="34.1328" rx="12.5" ry="12.5" style="stroke:#181818;stroke-width:0.5;" width="147.4531" x="474.3193" y="577.6484"/><text fill="#000000" font-family="sans-serif" font-size="12" lengthAdjust="spacing" textLength="127.4531" x="484.3193" y="599.25">Allow request handler</text><ellipse cx="548.0459" cy="642.7813" fill="none" rx="11" ry="11" style="stroke:#222222;stroke-width:1;"/><ellipse cx="548.0459" cy="642.7813" fill="#222222" rx="6" ry="6" style="stroke:#222222;stroke-width:1;"/><rect fill="#F1F1F1" height="34.1328" rx="12.5" ry="12.5" style="stroke:#181818;stroke-width:0.5;" width="166.6836" x="367.6533" y="727.9141"/><text fill="#000000" font-family="sans-serif" font-size="12" lengthAdjust="spacing" textLength="146.6836" x="377.6533" y="749.5156">Parse role permission list</text><polygon fill="#F1F1F1" points="371.2075,782.0469,530.7827,782.0469,542.7827,794.0469,530.7827,806.0469,371.2075,806.0469,359.2075,794.0469,371.2075,782.0469" style="stroke:#181818;stroke-width:0.5;stroke-linejoin:miter;stroke-miterlimit:10;"/><text fill="#000000" font-family="sans-serif" font-size="11" lengthAdjust="spacing" textLength="159.5752" x="371.2075" y="798.2041">Required permission granted?</text><text fill="#000000" font-family="sans-serif" font-size="11" lengthAdjust="spacing" textLength="18.5894" x="340.6182" y="791.7266">Yes</text><text fill="#000000" font-family="sans-serif" font-size="11" lengthAdjust="spacing" textLength="14.8833" x="542.7827" y="791.7266">No</text><rect fill="#F1F1F1" height="34.1328" rx="12.5" ry="12.5" style="stroke:#181818;stroke-width:0.5;" width="135.0664" x="281.6743" y="816.0469"/><text fill="#000000" font-family="sans-serif" font-size="12" lengthAdjust="spacing" textLength="115.0664" x="291.6743" y="837.6484">Attach auth context</text><rect fill="#F1F1F1" height="34.1328" rx="12.5" ry="12.5" style="stroke:#181818;stroke-width:0.5;" width="147.4531" x="275.481" y="870.1797"/><text fill="#000000" font-family="sans-serif" font-size="12" lengthAdjust="spacing" textLength="127.4531" x="285.481" y="891.7813">Allow request handler</text><rect fill="#F1F1F1" height="34.1328" rx="12.5" ry="12.5" style="stroke:#181818;stroke-width:0.5;" width="132.5352" x="486.5151" y="816.0469"/><text fill="#000000" font-family="sans-serif" font-size="12" lengthAdjust="spacing" textLength="112.5352" x="496.5151" y="837.6484">Reject as forbidden</text><polygon fill="#F1F1F1" points="450.9951,910.3125,462.9951,922.3125,450.9951,934.3125,438.9951,922.3125,450.9951,910.3125" style="stroke:#181818;stroke-width:0.5;stroke-linejoin:miter;stroke-miterlimit:10;"/><ellipse cx="450.9951" cy="965.3125" fill="none" rx="11" ry="11" style="stroke:#222222;stroke-width:1;"/><ellipse cx="450.9951" cy="965.3125" fill="#222222" rx="6" ry="6" style="stroke:#222222;stroke-width:1;"/><line style="stroke:#000000;stroke-width:1.5;" x1="231.3945" x2="231.3945" y1="54.7852" y2="976.3125"/><rect fill="#F1F1F1" height="34.1328" rx="12.5" ry="12.5" style="stroke:#181818;stroke-width:0.5;" width="244.1445" x="641.0977" y="673.7813"/><text fill="#000000" font-family="sans-serif" font-size="12" lengthAdjust="spacing" textLength="224.1445" x="651.0977" y="695.3828">Load role permissions for org and role</text><line style="stroke:#000000;stroke-width:1.5;" x1="635.0977" x2="635.0977" y1="54.7852" y2="976.3125"/><line style="stroke:#000000;stroke-width:1.5;" x1="889.2422" x2="889.2422" y1="54.7852" y2="976.3125"/><line style="stroke:#181818;stroke-width:1;" x1="126.6973" x2="126.6973" y1="100.9844" y2="120.9844"/><polygon fill="#181818" points="122.6973,110.9844,126.6973,120.9844,130.6973,110.9844,126.6973,114.9844" style="stroke:#181818;stroke-width:1;stroke-linejoin:miter;stroke-miterlimit:10;"/><line style="stroke:#181818;stroke-width:1;" x1="450.9951" x2="450.9951" y1="209.25" y2="229.25"/><polygon fill="#181818" points="446.9951,219.25,450.9951,229.25,454.9951,219.25,450.9951,223.25" style="stroke:#181818;stroke-width:1;stroke-linejoin:miter;stroke-miterlimit:10;"/><line style="stroke:#181818;stroke-width:1;" x1="521.9321" x2="521.9321" y1="351.5156" y2="371.5156"/><polygon fill="#181818" points="517.9321,361.5156,521.9321,371.5156,525.9321,361.5156,521.9321,365.5156" style="stroke:#181818;stroke-width:1;stroke-linejoin:miter;stroke-miterlimit:10;"/><line style="stroke:#181818;stroke-width:1;" x1="398.2715" x2="380.0581" y1="295.3828" y2="295.3828"/><line style="stroke:#181818;stroke-width:1;" x1="380.0581" x2="380.0581" y1="295.3828" y2="317.3828"/><polygon fill="#181818" points="376.0581,307.3828,380.0581,317.3828,384.0581,307.3828,380.0581,311.3828" style="stroke:#181818;stroke-width:1;stroke-linejoin:miter;stroke-miterlimit:10;"/><line style="stroke:#181818;stroke-width:1;" x1="503.7188" x2="521.9321" y1="295.3828" y2="295.3828"/><line style="stroke:#181818;stroke-width:1;" x1="521.9321" x2="521.9321" y1="295.3828" y2="317.3828"/><polygon fill="#181818" points="517.9321,307.3828,521.9321,317.3828,525.9321,307.3828,521.9321,311.3828" style="stroke:#181818;stroke-width:1;stroke-linejoin:miter;stroke-miterlimit:10;"/><line style="stroke:#181818;stroke-width:1;" x1="380.0581" x2="380.0581" y1="351.5156" y2="398.5156"/><line style="stroke:#181818;stroke-width:1;" x1="380.0581" x2="450.9951" y1="398.5156" y2="398.5156"/><line style="stroke:#181818;stroke-width:1;" x1="450.9951" x2="450.9951" y1="398.5156" y2="413.5156"/><polygon fill="#181818" points="446.9951,403.5156,450.9951,413.5156,454.9951,403.5156,450.9951,407.5156" style="stroke:#181818;stroke-width:1;stroke-linejoin:miter;stroke-miterlimit:10;"/><line style="stroke:#181818;stroke-width:1;" x1="450.9951" x2="450.9951" y1="263.3828" y2="283.3828"/><polygon fill="#181818" points="446.9951,273.3828,450.9951,283.3828,454.9951,273.3828,450.9951,277.3828" style="stroke:#181818;stroke-width:1;stroke-linejoin:miter;stroke-miterlimit:10;"/><line style="stroke:#181818;stroke-width:1;" x1="554.4209" x2="554.4209" y1="481.6484" y2="501.6484"/><polygon fill="#181818" points="550.4209,491.6484,554.4209,501.6484,558.4209,491.6484,554.4209,495.6484" style="stroke:#181818;stroke-width:1;stroke-linejoin:miter;stroke-miterlimit:10;"/><line style="stroke:#181818;stroke-width:1;" x1="405.8608" x2="347.5693" y1="425.5156" y2="425.5156"/><line style="stroke:#181818;stroke-width:1;" x1="347.5693" x2="347.5693" y1="425.5156" y2="447.5156"/><polygon fill="#181818" points="343.5693,437.5156,347.5693,447.5156,351.5693,437.5156,347.5693,441.5156" style="stroke:#181818;stroke-width:1;stroke-linejoin:miter;stroke-miterlimit:10;"/><line style="stroke:#181818;stroke-width:1;" x1="496.1294" x2="554.4209" y1="425.5156" y2="425.5156"/><line style="stroke:#181818;stroke-width:1;" x1="554.4209" x2="554.4209" y1="425.5156" y2="447.5156"/><polygon fill="#181818" points="550.4209,437.5156,554.4209,447.5156,558.4209,437.5156,554.4209,441.5156" style="stroke:#181818;stroke-width:1;stroke-linejoin:miter;stroke-miterlimit:10;"/><line style="stroke:#181818;stroke-width:1;" x1="347.5693" x2="347.5693" y1="481.6484" y2="528.6484"/><line style="stroke:#181818;stroke-width:1;" x1="347.5693" x2="450.9951" y1="528.6484" y2="528.6484"/><line style="stroke:#181818;stroke-width:1;" x1="450.9951" x2="450.9951" y1="528.6484" y2="543.6484"/><polygon fill="#181818" points="446.9951,533.6484,450.9951,543.6484,454.9951,533.6484,450.9951,537.6484" style="stroke:#181818;stroke-width:1;stroke-linejoin:miter;stroke-miterlimit:10;"/><line style="stroke:#181818;stroke-width:1;" x1="548.0459" x2="548.0459" y1="611.7813" y2="631.7813"/><polygon fill="#181818" points="544.0459,621.7813,548.0459,631.7813,552.0459,621.7813,548.0459,625.7813" style="stroke:#181818;stroke-width:1;stroke-linejoin:miter;stroke-miterlimit:10;"/><line style="stroke:#181818;stroke-width:1;" x1="366.4155" x2="353.9443" y1="555.6484" y2="555.6484"/><line style="stroke:#181818;stroke-width:1;" x1="353.9443" x2="353.9443" y1="555.6484" y2="577.6484"/><polygon fill="#181818" points="349.9443,567.6484,353.9443,577.6484,357.9443,567.6484,353.9443,571.6484" style="stroke:#181818;stroke-width:1;stroke-linejoin:miter;stroke-miterlimit:10;"/><line style="stroke:#181818;stroke-width:1;" x1="535.5747" x2="548.0459" y1="555.6484" y2="555.6484"/><line style="stroke:#181818;stroke-width:1;" x1="548.0459" x2="548.0459" y1="555.6484" y2="577.6484"/><polygon fill="#181818" points="544.0459,567.6484,548.0459,577.6484,552.0459,567.6484,548.0459,571.6484" style="stroke:#181818;stroke-width:1;stroke-linejoin:miter;stroke-miterlimit:10;"/><line style="stroke:#181818;stroke-width:1;" x1="353.9443" x2="353.9443" y1="611.7813" y2="658.7813"/><line style="stroke:#181818;stroke-width:1;" x1="353.9443" x2="763.1699" y1="658.7813" y2="658.7813"/><line style="stroke:#181818;stroke-width:1;" x1="763.1699" x2="763.1699" y1="658.7813" y2="673.7813"/><polygon fill="#181818" points="759.1699,663.7813,763.1699,673.7813,767.1699,663.7813,763.1699,667.7813" style="stroke:#181818;stroke-width:1;stroke-linejoin:miter;stroke-miterlimit:10;"/><line style="stroke:#181818;stroke-width:1;" x1="349.2075" x2="349.2075" y1="850.1797" y2="870.1797"/><polygon fill="#181818" points="345.2075,860.1797,349.2075,870.1797,353.2075,860.1797,349.2075,864.1797" style="stroke:#181818;stroke-width:1;stroke-linejoin:miter;stroke-miterlimit:10;"/><line style="stroke:#181818;stroke-width:1;" x1="359.2075" x2="349.2075" y1="794.0469" y2="794.0469"/><line style="stroke:#181818;stroke-width:1;" x1="349.2075" x2="349.2075" y1="794.0469" y2="816.0469"/><polygon fill="#181818" points="345.2075,806.0469,349.2075,816.0469,353.2075,806.0469,349.2075,810.0469" style="stroke:#181818;stroke-width:1;stroke-linejoin:miter;stroke-miterlimit:10;"/><line style="stroke:#181818;stroke-width:1;" x1="542.7827" x2="552.7827" y1="794.0469" y2="794.0469"/><line style="stroke:#181818;stroke-width:1;" x1="552.7827" x2="552.7827" y1="794.0469" y2="816.0469"/><polygon fill="#181818" points="548.7827,806.0469,552.7827,816.0469,556.7827,806.0469,552.7827,810.0469" style="stroke:#181818;stroke-width:1;stroke-linejoin:miter;stroke-miterlimit:10;"/><line style="stroke:#181818;stroke-width:1;" x1="349.2075" x2="349.2075" y1="904.3125" y2="922.3125"/><line style="stroke:#181818;stroke-width:1;" x1="349.2075" x2="438.9951" y1="922.3125" y2="922.3125"/><polygon fill="#181818" points="428.9951,918.3125,438.9951,922.3125,428.9951,926.3125,432.9951,922.3125" style="stroke:#181818;stroke-width:1;stroke-linejoin:miter;stroke-miterlimit:10;"/><line style="stroke:#181818;stroke-width:1;" x1="552.7827" x2="552.7827" y1="850.1797" y2="922.3125"/><line style="stroke:#181818;stroke-width:1;" x1="552.7827" x2="462.9951" y1="922.3125" y2="922.3125"/><polygon fill="#181818" points="472.9951,918.3125,462.9951,922.3125,472.9951,926.3125,468.9951,922.3125" style="stroke:#181818;stroke-width:1;stroke-linejoin:miter;stroke-miterlimit:10;"/><line style="stroke:#181818;stroke-width:1;" x1="450.9951" x2="450.9951" y1="762.0469" y2="782.0469"/><polygon fill="#181818" points="446.9951,772.0469,450.9951,782.0469,454.9951,772.0469,450.9951,776.0469" style="stroke:#181818;stroke-width:1;stroke-linejoin:miter;stroke-miterlimit:10;"/><line style="stroke:#181818;stroke-width:1;" x1="450.9951" x2="450.9951" y1="934.3125" y2="954.3125"/><polygon fill="#181818" points="446.9951,944.3125,450.9951,954.3125,454.9951,944.3125,450.9951,948.3125" style="stroke:#181818;stroke-width:1;stroke-linejoin:miter;stroke-miterlimit:10;"/><line style="stroke:#181818;stroke-width:1;" x1="126.6973" x2="126.6973" y1="155.1172" y2="160.1172"/><line style="stroke:#181818;stroke-width:1;" x1="126.6973" x2="450.9951" y1="160.1172" y2="160.1172"/><line style="stroke:#181818;stroke-width:1;" x1="450.9951" x2="450.9951" y1="160.1172" y2="175.1172"/><polygon fill="#181818" points="446.9951,165.1172,450.9951,175.1172,454.9951,165.1172,450.9951,169.1172" style="stroke:#181818;stroke-width:1;stroke-linejoin:miter;stroke-miterlimit:10;"/><line style="stroke:#181818;stroke-width:1;" x1="763.1699" x2="763.1699" y1="707.9141" y2="712.9141"/><line style="stroke:#181818;stroke-width:1;" x1="763.1699" x2="450.9951" y1="712.9141" y2="712.9141"/><line style="stroke:#181818;stroke-width:1;" x1="450.9951" x2="450.9951" y1="712.9141" y2="727.9141"/><polygon fill="#181818" points="446.9951,717.9141,450.9951,727.9141,454.9951,717.9141,450.9951,721.9141" style="stroke:#181818;stroke-width:1;stroke-linejoin:miter;stroke-miterlimit:10;"/><text fill="#000000" font-family="sans-serif" font-size="18" lengthAdjust="spacing" textLength="91.5645" x="79.915" y="72.1875">Client App</text><text fill="#000000" font-family="sans-serif" font-size="18" lengthAdjust="spacing" textLength="155.3555" x="355.5684" y="72.1875">Backend Monolith</text><text fill="#000000" font-family="sans-serif" font-size="18" lengthAdjust="spacing" textLength="80.5693" x="721.8853" y="72.1875">Database</text><?plantuml-src dP9DJiD038NtSmelMuaJD0kK5Y4X0Qe2GcBfPfp6T9e9CqxvKGwF9ssWQWKBLedavtdlioqiZg2OvmjOKjXoZEmRMDHKRepf5uwf4SZRjZTHC8YPFL1Z0JkfjS0b2bd8bpSGwBMZA9aspR7S9D6TRxnZgNipAoXwjoFO-gv97R4B5PO4gBBWEw4iQT32YZ1G0F7wWhx55KmUqp-qWQ8wNauXESFacUBK0CoUA73rCJQGYmIJUp-K2dgXKW0ZT4qAx0D_aisq5CMtHYDoTMonGyVsp62CtaNDnVO2V5WFttrs7HxRVniNYNsO7IiVjDyRE8jnpSbkBppCx4X-4Y1tph-DAu5QapeAf_xz5GgkC9BkvzRZ0URdpGYL3mFjIFhBSfSOrFka6nodQnWWnzH7rNN0T0XdcBa8blLmNr1wbRnBzWVHBsFNu2ksThY8FMm2_m80?></g></svg>