<svg xmlns="http://www.w3.org/2000/svg" xmlns:xlink="http://www.w3.org/1999/xlink" contentStyleType="text/css" data-diagram-type="DESCRIPTION" height="551px" preserveAspectRatio="none" style="width:1835px;height:551px;background:#FFFFFF;" version="1.1" viewBox="0 0 1835 551" width="1835px" zoomAndPan="magnify"><?plantuml 1.2026.6?><defs/><g><g class="title" data-source-line="1"><text fill="#000000" font-family="sans-serif" font-size="14" font-weight="700" lengthAdjust="spacing" textLength="218.374" x="805.183" y="23.5352">Kass POS System Components</text></g><!--cluster Frontend Apps--><g class="cluster" data-qualified-name="Frontend Apps" data-source-line="5" id="ent0001"><path d="M1006.24,43.4883 L1113.5183,43.4883 A3.75,3.75 0 0 1 1116.0183,45.9883 L1123.0183,65.9766 L1818.24,65.9766 A2.5,2.5 0 0 1 1820.74,68.4766 L1820.74,224.9683 A2.5,2.5 0 0 1 1818.24,227.4683 L1006.24,227.4683 A2.5,2.5 0 0 1 1003.74,224.9683 L1003.74,45.9883 A2.5,2.5 0 0 1 1006.24,43.4883" fill="none" style="stroke:#000000;stroke-width:1.5;"/><line style="stroke:#000000;stroke-width:1.5;" x1="1003.74" x2="1123.0183" y1="65.9766" y2="65.9766"/><text fill="#000000" font-family="sans-serif" font-size="14" font-weight="700" lengthAdjust="spacing" textLength="106.2783" x="1007.74" y="59.0234">Frontend Apps</text></g><!--cluster Backend Monolith: apps/backend--><g class="cluster" data-qualified-name="Backend Monolith. apps.backend" data-source-line="13" id="ent0007"><path d="M23.24,139.9783 L263.8259,139.9783 A3.75,3.75 0 0 1 266.3259,142.4783 L273.3259,162.4666 L977.24,162.4666 A2.5,2.5 0 0 1 979.74,164.9666 L979.74,321.4483 A2.5,2.5 0 0 1 977.24,323.9483 L23.24,323.9483 A2.5,2.5 0 0 1 20.74,321.4483 L20.74,142.4783 A2.5,2.5 0 0 1 23.24,139.9783" fill="none" style="stroke:#000000;stroke-width:1.5;"/><line style="stroke:#000000;stroke-width:1.5;" x1="20.74" x2="273.3259" y1="162.4666" y2="162.4666"/><text fill="#000000" font-family="sans-serif" font-size="14" font-weight="700" lengthAdjust="spacing" textLength="239.5859" x="24.74" y="155.5134">Backend Monolith: apps/backend</text></g><!--cluster Shared Packages--><g class="cluster" data-qualified-name="Shared Packages" data-source-line="22" id="ent0014"><path d="M538.24,347.9483 L659.8328,347.9483 A3.75,3.75 0 0 1 662.3328,350.4483 L669.3328,370.4366 L1401.24,370.4366 A2.5,2.5 0 0 1 1403.74,372.9366 L1403.74,533.9283 A2.5,2.5 0 0 1 1401.24,536.4283 L538.24,536.4283 A2.5,2.5 0 0 1 535.74,533.9283 L535.74,350.4483 A2.5,2.5 0 0 1 538.24,347.9483" fill="none" style="stroke:#000000;stroke-width:1.5;"/><line style="stroke:#000000;stroke-width:1.5;" x1="535.74" x2="669.3328" y1="370.4366" y2="370.4366"/><text fill="#000000" font-family="sans-serif" font-size="14" font-weight="700" lengthAdjust="spacing" textLength="120.5928" x="539.74" y="363.4834">Shared Packages</text></g><!--entity AdminUi--><g class="entity" data-qualified-name="Frontend Apps.AdminUi" data-source-line="6" id="ent0002"><rect fill="#F1F1F1" height="36.4883" rx="2.5" ry="2.5" style="stroke:#181818;stroke-width:0.5;" width="116.4961" x="1019.49" y="78.4883"/><text fill="#000000" font-family="sans-serif" font-size="14" lengthAdjust="spacing" textLength="96.4961" x="1029.49" y="102.0234">Admin Next.js</text></g><!--entity SuperAdminUi--><g class="entity" data-qualified-name="Frontend Apps.SuperAdminUi" data-source-line="7" id="ent0003"><rect fill="#F1F1F1" height="36.4883" rx="2.5" ry="2.5" style="stroke:#181818;stroke-width:0.5;" width="159.4941" x="1170.99" y="78.4883"/><text fill="#000000" font-family="sans-serif" font-size="14" lengthAdjust="spacing" textLength="139.4941" x="1180.99" y="102.0234">Super Admin Next.js</text></g><!--entity MasterDataUi--><g class="entity" data-qualified-name="Frontend Apps.MasterDataUi" data-source-line="8" id="ent0004"><rect fill="#F1F1F1" height="36.4883" rx="2.5" ry="2.5" style="stroke:#181818;stroke-width:0.5;" width="209.9092" x="1365.79" y="78.4883"/><text fill="#000000" font-family="sans-serif" font-size="14" lengthAdjust="spacing" textLength="189.9092" x="1375.79" y="102.0234">Internal Master Data Next.js</text></g><!--entity DesktopShell--><g class="entity" data-qualified-name="Frontend Apps.DesktopShell" data-source-line="9" id="ent0005"><rect fill="#F1F1F1" height="36.4883" rx="2.5" ry="2.5" style="stroke:#181818;stroke-width:0.5;" width="172.0928" x="1070.69" y="174.9783"/><text fill="#000000" font-family="sans-serif" font-size="14" lengthAdjust="spacing" textLength="152.0928" x="1080.69" y="198.5134">Desktop Electron Shell</text></g><!--entity DesktopRenderer--><g class="entity" data-qualified-name="Frontend Apps.DesktopRenderer" data-source-line="10" id="ent0006"><rect fill="#F1F1F1" height="36.4883" rx="2.5" ry="2.5" style="stroke:#181818;stroke-width:0.5;" width="194.1113" x="1610.68" y="78.4883"/><text fill="#000000" font-family="sans-serif" font-size="14" lengthAdjust="spacing" textLength="174.1113" x="1620.68" y="102.0234">Desktop Next.js Renderer</text></g><!--entity Backend--><g class="entity" data-qualified-name="Backend Monolith. apps.backend.Backend" data-source-line="14" id="ent0008"><rect fill="#F1F1F1" height="36.4883" rx="2.5" ry="2.5" style="stroke:#181818;stroke-width:0.5;" width="163.9443" x="294.77" y="174.9783"/><text fill="#000000" font-family="sans-serif" font-size="14" lengthAdjust="spacing" textLength="143.9443" x="304.77" y="198.5134">Elysia App Entrypoint</text></g><!--entity AdminSurface--><g class="entity" data-qualified-name="Backend Monolith. apps.backend.AdminSurface" data-source-line="15" id="ent0009"><rect fill="#F1F1F1" height="36.4883" rx="2.5" ry="2.5" style="stroke:#181818;stroke-width:0.5;" width="172.6328" x="36.42" y="271.4683"/><text fill="#000000" font-family="sans-serif" font-size="14" lengthAdjust="spacing" textLength="152.6328" x="46.42" y="295.0034">Admin Surface /admin</text></g><!--entity PosSurface--><g class="entity" data-qualified-name="Backend Monolith. apps.backend.PosSurface" data-source-line="16" id="ent0010"><rect fill="#F1F1F1" height="36.4883" rx="2.5" ry="2.5" style="stroke:#181818;stroke-width:0.5;" width="136.71" x="827.39" y="271.4683"/><text fill="#000000" font-family="sans-serif" font-size="14" lengthAdjust="spacing" textLength="116.71" x="837.39" y="295.0034">POS Surface /pos</text></g><!--entity SuperAdminSurface--><g class="entity" data-qualified-name="Backend Monolith. apps.backend.SuperAdminSurface" data-source-line="17" id="ent0011"><rect fill="#F1F1F1" height="36.4883" rx="2.5" ry="2.5" style="stroke:#181818;stroke-width:0.5;" width="261.8965" x="243.79" y="271.4683"/><text fill="#000000" font-family="sans-serif" font-size="14" lengthAdjust="spacing" textLength="241.8965" x="253.79" y="295.0034">Super Admin Surface /super-admin</text></g><!--entity MasterDataSurface--><g class="entity" data-qualified-name="Backend Monolith. apps.backend.MasterDataSurface" data-source-line="18" id="ent0012"><rect fill="#F1F1F1" height="36.4883" rx="2.5" ry="2.5" style="stroke:#181818;stroke-width:0.5;" width="251.6289" x="540.93" y="271.4683"/><text fill="#000000" font-family="sans-serif" font-size="14" lengthAdjust="spacing" textLength="231.6289" x="550.93" y="295.0034">Master Data Surface /master-data</text></g><!--entity PermissionSync--><g class="entity" data-qualified-name="Backend Monolith. apps.backend.PermissionSync" data-source-line="19" id="ent0013"><rect fill="#F1F1F1" height="36.4883" rx="2.5" ry="2.5" style="stroke:#181818;stroke-width:0.5;" width="198.6982" x="36.39" y="174.9783"/><text fill="#000000" font-family="sans-serif" font-size="14" lengthAdjust="spacing" textLength="178.6982" x="46.39" y="198.5134">Permission Sync Bootstrap</text></g><!--entity ApiClient--><g class="entity" data-qualified-name="Shared Packages.ApiClient" data-source-line="23" id="ent0015"><rect fill="#F1F1F1" height="36.4883" rx="2.5" ry="2.5" style="stroke:#181818;stroke-width:0.5;" width="135.9785" x="1132.75" y="382.9483"/><text fill="#000000" font-family="sans-serif" font-size="14" lengthAdjust="spacing" textLength="115.9785" x="1142.75" y="406.4834">@repo/api-client</text></g><!--entity DbSchema--><g class="entity" data-qualified-name="Shared Packages.DbSchema" data-source-line="24" id="ent0016"><rect fill="#F1F1F1" height="36.4883" rx="2.5" ry="2.5" style="stroke:#181818;stroke-width:0.5;" width="147.6201" x="553.93" y="483.9383"/><text fill="#000000" font-family="sans-serif" font-size="14" lengthAdjust="spacing" textLength="127.6201" x="563.93" y="507.4734">@repo/db-schema</text></g><!--entity DbCore--><g class="entity" data-qualified-name="Shared Packages.DbCore" data-source-line="25" id="ent0017"><rect fill="#F1F1F1" height="36.4883" rx="2.5" ry="2.5" style="stroke:#181818;stroke-width:0.5;" width="125.3213" x="552.08" y="382.9483"/><text fill="#000000" font-family="sans-serif" font-size="14" lengthAdjust="spacing" textLength="105.3213" x="562.08" y="406.4834">@repo/db-core</text></g><!--entity DbLite--><g class="entity" data-qualified-name="Shared Packages.DbLite" data-source-line="26" id="ent0018"><rect fill="#F1F1F1" height="36.4883" rx="2.5" ry="2.5" style="stroke:#181818;stroke-width:0.5;" width="117.1523" x="980.16" y="382.9483"/><text fill="#000000" font-family="sans-serif" font-size="14" lengthAdjust="spacing" textLength="97.1523" x="990.16" y="406.4834">@repo/db-lite</text></g><!--entity PermissionMiddleware--><g class="entity" data-qualified-name="Shared Packages.PermissionMiddleware" data-source-line="27" id="ent0019"><rect fill="#F1F1F1" height="36.4883" rx="2.5" ry="2.5" style="stroke:#181818;stroke-width:0.5;" width="232.0986" x="712.69" y="382.9483"/><text fill="#000000" font-family="sans-serif" font-size="14" lengthAdjust="spacing" textLength="212.0986" x="722.69" y="406.4834">@repo/permission-middleware</text></g><!--entity SharedUi--><g class="entity" data-qualified-name="Shared Packages.SharedUi" data-source-line="28" id="ent0020"><rect fill="#F1F1F1" height="36.4883" rx="2.5" ry="2.5" style="stroke:#181818;stroke-width:0.5;" width="83.0342" x="1304.22" y="382.9483"/><text fill="#000000" font-family="sans-serif" font-size="14" lengthAdjust="spacing" textLength="63.0342" x="1314.22" y="406.4834">@repo/ui</text></g><!--entity Postgres--><g class="entity" data-qualified-name="Postgres" data-source-line="31" id="ent0021"><path d="M111.32,489.4383 C111.32,479.4383 159.7448,479.4383 159.7448,479.4383 C159.7448,479.4383 208.1696,479.4383 208.1696,489.4383 L208.1696,514.9266 C208.1696,524.9266 159.7448,524.9266 159.7448,524.9266 C159.7448,524.9266 111.32,524.9266 111.32,514.9266 L111.32,489.4383" fill="#F1F1F1" style="stroke:#181818;stroke-width:0.5;"/><path d="M111.32,489.4383 C111.32,499.4383 159.7448,499.4383 159.7448,499.4383 C159.7448,499.4383 208.1696,499.4383 208.1696,489.4383" fill="none" style="stroke:#181818;stroke-width:0.5;"/><text fill="#000000" font-family="sans-serif" font-size="14" lengthAdjust="spacing" textLength="76.8496" x="121.32" y="516.9734">PostgreSQL</text></g><!--entity Pglite--><g class="entity" data-qualified-name="Pglite" data-source-line="32" id="ent0022"><path d="M397.04,489.4383 C397.04,479.4383 457.7387,479.4383 457.7387,479.4383 C457.7387,479.4383 518.4375,479.4383 518.4375,489.4383 L518.4375,514.9266 C518.4375,524.9266 457.7387,524.9266 457.7387,524.9266 C457.7387,524.9266 397.04,524.9266 397.04,514.9266 L397.04,489.4383" fill="#F1F1F1" style="stroke:#181818;stroke-width:0.5;"/><path d="M397.04,489.4383 C397.04,499.4383 457.7387,499.4383 457.7387,499.4383 C457.7387,499.4383 518.4375,499.4383 518.4375,489.4383" fill="none" style="stroke:#181818;stroke-width:0.5;"/><text fill="#000000" font-family="sans-serif" font-size="14" lengthAdjust="spacing" textLength="101.3975" x="407.04" y="516.9734">PGlite Local DB</text></g><!--entity LocalSettings--><g class="entity" data-qualified-name="LocalSettings" data-source-line="33" id="ent0023"><rect fill="#F1F1F1" height="36.4883" rx="35" ry="35" style="stroke:#181818;stroke-width:0.5;" width="174.54" x="1069.47" y="271.4683"/><text fill="#000000" font-family="sans-serif" font-size="14" lengthAdjust="spacing" textLength="154.54" x="1079.47" y="295.0034">Desktop Local Settings</text></g><!--link AdminUi to AdminSurface--><g class="link" data-entity-1="ent0002" data-entity-2="ent0009" data-link-type="dependency" data-source-line="35" id="lnk24"><path d="M1019.22,97.4483 C945.95,98.3883 817.12,104.3683 710.74,131.9783 C600.28,160.6483 585.44,204.0083 475.74,235.4683 C368.25,266.2783 337.23,254.3183 226.74,271.4683 C221.13,272.3383 220.2974,272.4593 214.4774,273.3893" fill="none" id="AdminUi-to-AdminSurface" style="stroke:#181818;stroke-width:1;"/><polygon fill="#181818" points="209.54,274.1783,219.0584,276.708,214.4774,273.3893,217.7961,268.8083,209.54,274.1783" style="stroke:#181818;stroke-width:1;stroke-linejoin:miter;stroke-miterlimit:10;"/></g><!--link SuperAdminUi to SuperAdminSurface--><g class="link" data-entity-1="ent0003" data-entity-2="ent0011" data-link-type="dependency" data-source-line="36" id="lnk25"><path d="M1170.67,112.7983 C1164.95,113.6183 1159.26,114.3583 1153.74,114.9783 C1113.39,119.4783 824.4,112.5683 788.74,131.9783 C739.07,158.9983 762.87,205.7783 714.74,235.4683 C696.66,246.6183 598.6492,261.181 510.7192,272.481" fill="none" id="SuperAdminUi-to-SuperAdminSurface" style="stroke:#181818;stroke-width:1;"/><polygon fill="#181818" points="505.76,273.1183,515.1964,275.9385,510.7192,272.481,514.1767,268.0037,505.76,273.1183" style="stroke:#181818;stroke-width:1;stroke-linejoin:miter;stroke-miterlimit:10;"/></g><!--link MasterDataUi to MasterDataSurface--><g class="link" data-entity-1="ent0004" data-entity-2="ent0012" data-link-type="dependency" data-source-line="37" id="lnk26"><path d="M1365.46,113.0683 C1359.47,113.7583 1353.53,114.3983 1347.74,114.9783 C1217.05,127.8783 1180.86,103.1083 1052.74,131.9783 C1034.97,135.9783 810.6469,228.8588 713.9769,269.0488" fill="none" id="MasterDataUi-to-MasterDataSurface" style="stroke:#181818;stroke-width:1;"/><polygon fill="#181818" points="709.36,270.9683,719.206,271.2068,713.9769,269.0488,716.1349,263.8198,709.36,270.9683" style="stroke:#181818;stroke-width:1;stroke-linejoin:miter;stroke-miterlimit:10;"/></g><!--link DesktopRenderer to DesktopShell--><g class="link" data-entity-1="ent0006" data-entity-2="ent0005" data-link-type="dependency" data-source-line="38" id="lnk27"><path d="M1610.5,114.4083 C1506.39,132.2583 1347.668,159.4731 1247.968,176.5731" fill="none" id="DesktopRenderer-to-DesktopShell" style="stroke:#181818;stroke-width:1;"/><polygon fill="#181818" points="1243.04,177.4183,1252.5867,179.8393,1247.968,176.5731,1251.2343,171.9544,1243.04,177.4183" style="stroke:#181818;stroke-width:1;stroke-linejoin:miter;stroke-miterlimit:10;"/></g><!--link DesktopShell to PosSurface--><g class="link" data-entity-1="ent0005" data-entity-2="ent0010" data-link-type="dependency" data-source-line="39" id="lnk28"><path d="M1107.95,211.8783 C1061.33,228.7583 996.1215,252.3665 949.4315,269.2665" fill="none" id="DesktopShell-to-PosSurface" style="stroke:#181818;stroke-width:1;"/><polygon fill="#181818" points="944.73,270.9683,954.5541,271.6663,949.4315,269.2665,951.8313,264.1439,944.73,270.9683" style="stroke:#181818;stroke-width:1;stroke-linejoin:miter;stroke-miterlimit:10;"/></g><!--link Backend to AdminSurface--><g class="link" data-entity-1="ent0008" data-entity-2="ent0009" data-link-type="dependency" data-source-line="41" id="lnk29"><path d="M329.26,211.8783 C283.89,228.7583 220.5363,252.325 175.1063,269.225" fill="none" id="Backend-to-AdminSurface" style="stroke:#181818;stroke-width:1;"/><polygon fill="#181818" points="170.42,270.9683,180.2499,271.5794,175.1063,269.225,177.4606,264.0814,170.42,270.9683" style="stroke:#181818;stroke-width:1;stroke-linejoin:miter;stroke-miterlimit:10;"/></g><!--link Backend to PosSurface--><g class="link" data-entity-1="ent0008" data-entity-2="ent0010" data-link-type="dependency" data-source-line="42" id="lnk30"><path d="M459.04,208.3583 C546.22,223.4683 687.82,248.3683 809.74,271.4683 C815.43,272.5383 816.4136,272.7153 822.3236,273.8753" fill="none" id="Backend-to-PosSurface" style="stroke:#181818;stroke-width:1;"/><polygon fill="#181818" points="827.23,274.8383,819.1689,269.1798,822.3236,273.8753,817.6281,277.03,827.23,274.8383" style="stroke:#181818;stroke-width:1;stroke-linejoin:miter;stroke-miterlimit:10;"/></g><!--link Backend to SuperAdminSurface--><g class="link" data-entity-1="ent0008" data-entity-2="ent0011" data-link-type="dependency" data-source-line="43" id="lnk31"><path d="M376.37,211.5483 C376.01,228.4883 375.5757,249.1494 375.2157,266.1694" fill="none" id="Backend-to-SuperAdminSurface" style="stroke:#181818;stroke-width:1;"/><polygon fill="#181818" points="375.11,271.1683,379.2994,262.2549,375.2157,266.1694,371.3012,262.0857,375.11,271.1683" style="stroke:#181818;stroke-width:1;stroke-linejoin:miter;stroke-miterlimit:10;"/></g><!--link Backend to MasterDataSurface--><g class="link" data-entity-1="ent0008" data-entity-2="ent0012" data-link-type="dependency" data-source-line="44" id="lnk32"><path d="M430.95,211.8783 C482.75,228.7583 555.6759,252.5196 607.5559,269.4196" fill="none" id="Backend-to-MasterDataSurface" style="stroke:#181818;stroke-width:1;"/><polygon fill="#181818" points="612.31,270.9683,604.9915,264.3774,607.5559,269.4196,602.5137,271.984,612.31,270.9683" style="stroke:#181818;stroke-width:1;stroke-linejoin:miter;stroke-miterlimit:10;"/></g><!--link AdminSurface to PermissionMiddleware--><g class="link" data-entity-1="ent0009" data-entity-2="ent0019" data-link-type="dependency" data-source-line="46" id="lnk33"><path d="M157.86,308.3183 C177.58,317.2483 202.93,327.1883 226.74,331.9483 C328.74,352.3483 593.23,317.2683 694.74,339.9483 C732.45,348.3783 768.0825,365.5122 794.4625,380.0722" fill="none" id="AdminSurface-to-PermissionMiddleware" style="stroke:#181818;stroke-width:1;"/><polygon fill="#181818" points="798.84,382.4883,792.8934,374.6373,794.4625,380.0722,789.0276,381.6413,798.84,382.4883" style="stroke:#181818;stroke-width:1;stroke-linejoin:miter;stroke-miterlimit:10;"/></g><!--link PosSurface to PermissionMiddleware--><g class="link" data-entity-1="ent0010" data-entity-2="ent0019" data-link-type="dependency" data-source-line="47" id="lnk34"><path d="M884.98,308.2983 C872.47,328.7283 854.5799,357.9735 842.0899,378.3835" fill="none" id="PosSurface-to-PermissionMiddleware" style="stroke:#181818;stroke-width:1;"/><polygon fill="#181818" points="839.48,382.6483,847.5896,377.0595,842.0899,378.3835,840.7659,372.8837,839.48,382.6483" style="stroke:#181818;stroke-width:1;stroke-linejoin:miter;stroke-miterlimit:10;"/></g><!--link SuperAdminSurface to PermissionMiddleware--><g class="link" data-entity-1="ent0011" data-entity-2="ent0019" data-link-type="dependency" data-source-line="48" id="lnk35"><path d="M427.55,308.4283 C455.76,317.0983 491.27,326.7683 523.74,331.9483 C598.87,343.9483 620.74,322.2683 694.74,339.9483 C732.08,348.8783 767.4363,365.7418 793.8563,380.0918" fill="none" id="SuperAdminSurface-to-PermissionMiddleware" style="stroke:#181818;stroke-width:1;"/><polygon fill="#181818" points="798.25,382.4783,792.2504,374.6677,793.8563,380.0918,788.4321,381.6977,798.25,382.4783" style="stroke:#181818;stroke-width:1;stroke-linejoin:miter;stroke-miterlimit:10;"/></g><!--link MasterDataSurface to PermissionMiddleware--><g class="link" data-entity-1="ent0012" data-entity-2="ent0019" data-link-type="dependency" data-source-line="49" id="lnk36"><path d="M692.77,308.2983 C722.91,328.6683 768.1373,359.2386 798.3673,379.6686" fill="none" id="MasterDataSurface-to-PermissionMiddleware" style="stroke:#181818;stroke-width:1;"/><polygon fill="#181818" points="802.51,382.4683,797.2929,374.1147,798.3673,379.6686,792.8134,380.743,802.51,382.4683" style="stroke:#181818;stroke-width:1;stroke-linejoin:miter;stroke-miterlimit:10;"/></g><!--link PermissionSync to Postgres--><g class="link" data-entity-1="ent0013" data-entity-2="ent0021" data-link-type="dependency" data-source-line="50" id="lnk37"><path d="M89.21,211.8283 C63.44,224.2683 33.68,243.7083 18.74,271.4683 C6,295.1383 9.59,306.6683 18.74,331.9483 C41.26,394.1583 93.935,446.3228 128.195,475.7128" fill="none" id="PermissionSync-to-Postgres" style="stroke:#181818;stroke-width:1;"/><polygon fill="#181818" points="131.99,478.9683,127.7635,470.0724,128.195,475.7128,122.5547,476.1443,131.99,478.9683" style="stroke:#181818;stroke-width:1;stroke-linejoin:miter;stroke-miterlimit:10;"/></g><!--link AdminSurface to DbCore--><g class="link" data-entity-1="ent0009" data-entity-2="ent0017" data-link-type="dependency" data-source-line="52" id="lnk38"><path d="M161.6,308.2983 C180.87,316.4583 204.69,325.7083 226.74,331.9483 C339.11,363.7583 469.2281,382.8824 546.7381,392.5024" fill="none" id="AdminSurface-to-DbCore" style="stroke:#181818;stroke-width:1;"/><polygon fill="#181818" points="551.7,393.1183,543.2612,388.0402,546.7381,392.5024,542.2759,395.9793,551.7,393.1183" style="stroke:#181818;stroke-width:1;stroke-linejoin:miter;stroke-miterlimit:10;"/></g><!--link PosSurface to DbCore--><g class="link" data-entity-1="ent0010" data-entity-2="ent0017" data-link-type="dependency" data-source-line="53" id="lnk39"><path d="M866.17,308.3283 C850.05,317.0283 829.43,326.7483 809.74,331.9483 C760.21,345.0383 742.74,322.0283 694.74,339.9483 C670.31,349.0783 650.6717,364.7516 635.5917,379.0216" fill="none" id="PosSurface-to-DbCore" style="stroke:#181818;stroke-width:1;"/><polygon fill="#181818" points="631.96,382.4583,641.2464,379.1777,635.5917,379.0216,635.7478,373.3669,631.96,382.4583" style="stroke:#181818;stroke-width:1;stroke-linejoin:miter;stroke-miterlimit:10;"/></g><!--link SuperAdminSurface to DbCore--><g class="link" data-entity-1="ent0011" data-entity-2="ent0017" data-link-type="dependency" data-source-line="54" id="lnk40"><path d="M413.57,308.4183 C458.28,328.8183 526.7311,360.0428 571.4211,380.4328" fill="none" id="SuperAdminSurface-to-DbCore" style="stroke:#181818;stroke-width:1;"/><polygon fill="#181818" points="575.97,382.5083,569.4423,375.1333,571.4211,380.4328,566.1216,382.4116,575.97,382.5083" style="stroke:#181818;stroke-width:1;stroke-linejoin:miter;stroke-miterlimit:10;"/></g><!--link MasterDataSurface to DbCore--><g class="link" data-entity-1="ent0012" data-entity-2="ent0017" data-link-type="dependency" data-source-line="55" id="lnk41"><path d="M658.39,308.2983 C648.68,328.7283 634.9162,357.7223 625.2162,378.1323" fill="none" id="MasterDataSurface-to-DbCore" style="stroke:#181818;stroke-width:1;"/><polygon fill="#181818" points="623.07,382.6483,630.546,376.2366,625.2162,378.1323,623.3205,372.8026,623.07,382.6483" style="stroke:#181818;stroke-width:1;stroke-linejoin:miter;stroke-miterlimit:10;"/></g><!--link DbCore to Postgres--><g class="link" data-entity-1="ent0017" data-entity-2="ent0021" data-link-type="dependency" data-source-line="56" id="lnk42"><path d="M551.95,415.8583 C460.29,435.7983 296.6157,471.4055 213.5457,489.4755" fill="none" id="DbCore-to-Postgres" style="stroke:#181818;stroke-width:1;"/><polygon fill="#181818" points="208.66,490.5383,218.3046,492.5339,213.5457,489.4755,216.6041,484.7167,208.66,490.5383" style="stroke:#181818;stroke-width:1;stroke-linejoin:miter;stroke-miterlimit:10;"/></g><!--link DbCore to DbSchema--><g class="link" data-entity-1="ent0017" data-entity-2="ent0016" data-link-type="dependency" data-source-line="57" id="lnk43"><path d="M617.06,419.8883 C619.43,437.9083 622.4286,460.7209 624.7886,478.6809" fill="none" id="DbCore-to-DbSchema" style="stroke:#181818;stroke-width:1;"/><polygon fill="#181818" points="625.44,483.6383,628.2334,474.1939,624.7886,478.6809,620.3015,475.2361,625.44,483.6383" style="stroke:#181818;stroke-width:1;stroke-linejoin:miter;stroke-miterlimit:10;"/></g><!--link DesktopShell to DbLite--><g class="link" data-entity-1="ent0005" data-entity-2="ent0018" data-link-type="dependency" data-source-line="59" id="lnk44"><path d="M1118.69,211.8883 C1095.25,224.8983 1066.88,244.9283 1051.74,271.4683 C1031.59,306.7783 1032.895,351.537 1035.705,377.647" fill="none" id="DesktopShell-to-DbLite" style="stroke:#181818;stroke-width:1;"/><polygon fill="#181818" points="1036.24,382.6183,1039.254,373.2419,1035.705,377.647,1031.2999,374.098,1036.24,382.6183" style="stroke:#181818;stroke-width:1;stroke-linejoin:miter;stroke-miterlimit:10;"/></g><!--link DbLite to Pglite--><g class="link" data-entity-1="ent0018" data-entity-2="ent0022" data-link-type="dependency" data-source-line="60" id="lnk45"><path d="M979.92,416.0483 C974.13,417.2583 968.33,418.4183 962.74,419.4383 C774.24,454.0083 723.34,440.2883 535.74,479.4383 C530.24,480.5883 529.4027,480.7036 523.7227,482.1136" fill="none" id="DbLite-to-Pglite" style="stroke:#181818;stroke-width:1;"/><polygon fill="#181818" points="518.87,483.3183,528.5686,485.0321,523.7227,482.1136,526.6412,477.2678,518.87,483.3183" style="stroke:#181818;stroke-width:1;stroke-linejoin:miter;stroke-miterlimit:10;"/></g><!--link DesktopShell to LocalSettings--><g class="link" data-entity-1="ent0005" data-entity-2="ent0023" data-link-type="dependency" data-source-line="61" id="lnk46"><path d="M1156.74,211.5483 C1156.74,228.4883 1156.74,249.1483 1156.74,266.1683" fill="none" id="DesktopShell-to-LocalSettings" style="stroke:#181818;stroke-width:1;"/><polygon fill="#181818" points="1156.74,271.1683,1160.74,262.1683,1156.74,266.1683,1152.74,262.1683,1156.74,271.1683" style="stroke:#181818;stroke-width:1;stroke-linejoin:miter;stroke-miterlimit:10;"/></g><!--link DesktopShell to ApiClient--><g class="link" data-entity-1="ent0005" data-entity-2="ent0015" data-link-type="dependency" data-source-line="62" id="lnk47"><path d="M1196.49,211.8383 C1220.14,224.6583 1248.1,244.5083 1261.74,271.4683 C1273.87,295.4483 1271.33,306.8383 1261.74,331.9483 C1254.03,352.1383 1241.0376,366.8171 1227.0376,379.2571" fill="none" id="DesktopShell-to-ApiClient" style="stroke:#181818;stroke-width:1;"/><polygon fill="#181818" points="1223.3,382.5783,1232.6847,379.5903,1227.0376,379.2571,1227.3708,373.6101,1223.3,382.5783" style="stroke:#181818;stroke-width:1;stroke-linejoin:miter;stroke-miterlimit:10;"/></g><!--link ApiClient to PosSurface--><g class="link" data-entity-1="ent0015" data-entity-2="ent0010" data-link-type="dependency" data-source-line="63" id="lnk48"><path d="M1181.51,382.5483 C1165.05,368.5383 1140.08,349.7383 1114.74,339.9483 C1088.41,329.7783 1079.44,337.3483 1051.74,331.9483 C1019.57,325.6883 989.0349,317.8761 960.1349,309.7861" fill="none" id="ApiClient-to-PosSurface" style="stroke:#181818;stroke-width:1;"/><polygon fill="#181818" points="955.32,308.4383,962.9086,314.7163,960.1349,309.7861,965.0651,307.0125,955.32,308.4383" style="stroke:#181818;stroke-width:1;stroke-linejoin:miter;stroke-miterlimit:10;"/></g><!--link AdminUi to SharedUi--><g class="link" data-entity-1="ent0002" data-entity-2="ent0020" data-link-type="dependency" data-source-line="65" id="lnk49"><path d="M1136.16,111.3883 C1142.09,112.6583 1148.03,113.8783 1153.74,114.9783 C1177.38,119.5283 1242.49,116.2683 1260.74,131.9783 C1337.93,198.4183 1345.7441,329.5483 1345.9941,377.7783" fill="none" id="AdminUi-to-SharedUi" style="stroke:#181818;stroke-width:1;"/><polygon fill="#181818" points="1346.02,382.7783,1349.9733,373.7577,1345.9941,377.7783,1341.9734,373.7991,1346.02,382.7783" style="stroke:#181818;stroke-width:1;stroke-linejoin:miter;stroke-miterlimit:10;"/></g><!--link SuperAdminUi to SharedUi--><g class="link" data-entity-1="ent0003" data-entity-2="ent0020" data-link-type="dependency" data-source-line="66" id="lnk50"><path d="M1330.97,112.6383 C1361.14,119.0383 1389.29,126.3383 1393.74,131.9783 C1448.78,201.7583 1420.56,247.2183 1393.74,331.9483 C1387.67,351.1483 1377.3207,365.8451 1366.1307,378.7151" fill="none" id="SuperAdminUi-to-SharedUi" style="stroke:#181818;stroke-width:1;"/><polygon fill="#181818" points="1362.85,382.4883,1371.7738,378.321,1366.1307,378.7151,1365.7366,373.072,1362.85,382.4883" style="stroke:#181818;stroke-width:1;stroke-linejoin:miter;stroke-miterlimit:10;"/></g><!--link MasterDataUi to SharedUi--><g class="link" data-entity-1="ent0004" data-entity-2="ent0020" data-link-type="dependency" data-source-line="67" id="lnk51"><path d="M1471.68,115.3083 C1473.07,156.2983 1471.86,260.2183 1429.74,331.9483 C1417.28,353.1783 1399.7552,367.8125 1381.5352,379.7225" fill="none" id="MasterDataUi-to-SharedUi" style="stroke:#181818;stroke-width:1;"/><polygon fill="#181818" points="1377.35,382.4583,1387.0719,380.8821,1381.5352,379.7225,1382.6947,374.1858,1377.35,382.4583" style="stroke:#181818;stroke-width:1;stroke-linejoin:miter;stroke-miterlimit:10;"/></g><!--link DesktopRenderer to SharedUi--><g class="link" data-entity-1="ent0006" data-entity-2="ent0020" data-link-type="dependency" data-source-line="68" id="lnk52"><path d="M1692.79,115.2083 C1656.92,156.4283 1561.96,261.5683 1467.74,331.9483 C1441.1,351.8483 1412.5068,367.7515 1387.5168,380.3215" fill="none" id="DesktopRenderer-to-SharedUi" style="stroke:#181818;stroke-width:1;"/><polygon fill="#181818" points="1383.05,382.5683,1392.8876,382.0975,1387.5168,380.3215,1389.2927,374.9507,1383.05,382.5683" style="stroke:#181818;stroke-width:1;stroke-linejoin:miter;stroke-miterlimit:10;"/></g><?plantuml-src VLDDhzCm4BpxLwnw3xrpGAzVF25QA4IS40StMLA_9hPbku8AyT_nP-BKVPmIpupjsVMiOQP7-4YrXkFd6kgRDZZ0HWnISEH64w8lZ4kgw01DGcjpiviKDeRohaT296qkj4DOl5U26-GjhAJK2_X30Bwlse5n-8I_pPiN_GEe1ezyOuwihn8Lb1AFPxeFzbZ5QGy7QXqgs593Pni2xk2mOOlwOeI4NMzjMbTGdx7llJHI7iYbyJZuQWj0XIeN9upypQfTsnzNx45mqJDpVWlKbhqy1JYMl-jlcb7N4DXnesvIC6xyqN7xrAFwgdxI1c59tN9gLSITq3zIaaaHQZyAdKdobevIxS1gEdVgRxOpx-suS_1WrLhmhj6vBLG3qvgvFjzu0siXZ3QAok1lP1qvQs5zfWfRE8PrYioJGYcMLBAgwHd6Tgqas_ZLf6XFbMxEE0HdsrFj5pE-4GeZkx6_Cyw-MUBszdVYv6Yu6bZRzlYBnbEcKWuZCUsxij1SNvJDeQtKzUr4jItLlfBf5DPVzeluQ6wfSyMpSmHxqTYWRzT1rZcCQ2EKRrWAQn3LQ0pZdVPI3oM4a3WzK5NlvZ7APykpPHZoQVAIyjNl1iEhPfELBpoRnPIaqIdCvKIs8OTBkpbREYMvDXpyw1MdsrxN55U_BYry_EVcsNoaqaCwIlCno7Ts8_hOO2GVMufa-Cmlpx1nkCftZTCJFk604Df2EKzeGKyJFluLmPdbDirPcUZ4544UcKVvJUG_?></g></svg>